<?xml version="1.0" standalone="no"?>
<!DOCTYPE svg PUBLIC "-//W3C//DTD SVG 1.1//EN" "http://www.w3.org/Graphics/SVG/1.1/DTD/svg11.dtd" >
<svg xmlns="http://www.w3.org/2000/svg" version="1.1">
<metadata></metadata>
<defs>
<font id="ophandbook" horiz-adv-x="839" >
<font-face units-per-em="2048" ascent="1536" descent="-512" />
<missing-glyph horiz-adv-x="491" />
<glyph unicode="&#xfb01;" horiz-adv-x="1417" d="M23 680q-4 16 0 29.5t4 29.5q0 45 28 86q16 20 38 38t52 30q45 18 109 25q37 4 49 23.5t14 41.5q8 104 41 198.5t91.5 166t145.5 113.5t204 42q47 0 87 -1t62 -13q20 -10 24.5 -25.5t10.5 -31.5q6 -14 0 -24.5t-6 -27.5q0 -31 -3 -65.5t-20 -52.5q-8 -10 -20 -14.5 t-26.5 -4.5t-28 2t-25.5 2q-10 0 -27.5 -2t-37 -5t-36 -5t-24.5 -2q-41 0 -70.5 -26.5t-50 -65.5t-31 -82t-10.5 -76q0 -31 7.5 -46t50.5 -15q8 0 52 1t101 3q37 0 75 1t70.5 2t56.5 2t32 1q18 0 30.5 1t25.5 0t30.5 -4t46.5 -11q12 -4 32.5 -18.5t39 -33t32 -40t13.5 -38.5 v-81.5t-9 -61.5l-16 -72q-10 -37 -15 -77.5t-5 -106.5q0 -35 -4.5 -55.5t-0.5 -36.5q6 -29 7 -53q0 -43 6 -80q4 -18 6 -35.5t2 -34.5q0 -31 -35 -61q-16 -16 -53 -28.5t-60 -12.5q-25 0 -44 8t-42 20q-20 10 -24 26.5t-8 35.5q-4 16 -11.5 28.5t-11.5 26.5q-4 16 -11 30.5 t-7 39.5q0 23 2 59.5t16 77.5l37 109q16 43 21.5 84t5.5 63q0 31 -6.5 48.5t-17.5 25.5t-28.5 9t-42.5 1q-12 0 -42.5 -2t-67.5 -5t-74 -8t-61 -10q-20 -4 -28.5 -7t-17 -5t-20.5 -4t-41 -2q-25 0 -30 -7t-7 -28q-4 -37 -10 -92t-14 -117.5t-16.5 -127t-14.5 -119.5 q-8 -66 -14 -128.5t-15 -113.5q-6 -37 -30.5 -54.5t-61.5 -39.5q-25 -16 -53.5 -38t-63.5 -22q-18 0 -35.5 15.5t-29.5 25.5q-18 14 -26.5 23.5t-8.5 34.5q0 66 12.5 130t28.5 130q14 57 26.5 117.5t16.5 129.5q4 49 12.5 79t16.5 50q4 16 9 50t5 59q0 27 -5 32t-34 5 q-16 0 -37.5 1t-29.5 -1q-10 -2 -24.5 -4t-33.5 2q-23 4 -43 11t-28 36zM1145 1319q0 16 13 39.5t34.5 46t48.5 38t51 15.5q47 0 85 -42.5t38 -110.5q0 -14 -17.5 -37t-40 -43.5t-45 -35.5t-34.5 -15q-53 0 -93 34.5t-40 110.5z" />
<glyph unicode="&#xfb02;" horiz-adv-x="1456" d="M27 778q0 23 6 49.5t22.5 48t45 36t71.5 14.5q25 0 41 -4t39 -4q39 0 50 32.5t15 67.5q8 98 41 180t85.5 141.5t121 92t148.5 32.5q72 0 123 -17t84 -40q47 -35 47 -64q0 -35 -6.5 -51t-22.5 -35q-14 -16 -34.5 -36.5t-41.5 -20.5q-33 0 -55.5 -4t-43 -9t-44 -9t-60.5 -4 q-25 0 -44 -20.5t-33.5 -52.5t-22.5 -69t-8 -69q0 -31 13.5 -54.5t56.5 -23.5q8 0 51 -2t98 -5.5t115.5 -5.5t103.5 -2q27 0 41 15.5t14 52.5q0 18 -1 25.5t3.5 27t14.5 63.5t33 136q8 33 12 54.5t6 37.5t3 31.5t1 38.5q0 43 4 90t41 67q14 8 32.5 10.5t35.5 2.5 q6 0 18.5 -2t22.5 -7q12 -4 26 -6q25 -4 43.5 -22.5t29.5 -41t17.5 -44t6.5 -29.5q0 -12 -1 -37.5t-4.5 -59.5t-6.5 -71t-7 -69q0 -4 -4 -18.5t-11 -37t-14.5 -49.5t-13.5 -53q-18 -86 -32.5 -154.5t-23.5 -132t-14.5 -128t-5.5 -142.5q0 -47 -1 -82t-2 -63.5t0 -53t8 -49.5 q6 -29 0.5 -62.5t-5.5 -58.5q0 -20 -5 -47t-38 -43q-29 -12 -51 -17t-57 -5q-33 0 -51.5 27.5t-36.5 58.5q-12 20 -28.5 54t-16.5 75q0 18 4 54t8 74.5t8 75.5t4 62v33.5t1 29t1 38v59.5q0 25 -4 31.5t-24 6.5h-122t-123 1t-101 1h-58q-8 0 -18 -7t-21 -36q-12 -41 -21 -93 t-15.5 -109.5t-12.5 -114.5t-14 -106q-2 -8 -4 -23.5t-5 -32t-7.5 -32t-6.5 -21.5q-8 -20 -14 -43t-23 -37q-18 -16 -55 -34.5t-69 -18.5q-23 0 -42.5 15.5t-31.5 37.5q-16 29 -24.5 40t-8.5 34q0 59 5 89t12.5 56.5t14.5 63.5t11 114q2 37 8 75t13.5 72t13.5 62.5t6 46.5 q0 35 -7 35t-24 4q-14 4 -41.5 13.5t-50.5 15.5q-35 8 -55.5 10t-31.5 8.5t-15 22.5t-4 53z" />
<glyph horiz-adv-x="0" />
<glyph unicode="&#xd;" horiz-adv-x="491" />
<glyph unicode=" "  horiz-adv-x="491" />
<glyph unicode="&#x09;" horiz-adv-x="491" />
<glyph unicode="&#xa0;" horiz-adv-x="491" />
<glyph unicode="!" horiz-adv-x="659" d="M82 164q0 53 47 94t119 41q20 0 57 -29.5t72 -64.5q16 -16 35.5 -29.5t19.5 -32.5q0 -31 -23.5 -56.5t-46.5 -45.5q-23 -18 -41 -30.5t-47 -12.5q-16 0 -47.5 16.5t-63.5 41t-56.5 53t-24.5 55.5zM244 632.5q0 16.5 4 33.5q2 14 4 26.5t2 40.5v21.5t2 27.5q2 23 4 52.5 t2 64.5q0 31 11.5 81t21.5 97q8 35 14 63.5t6 47.5v55.5t2 46.5q0 16 1 30.5t1 27.5q0 41 6.5 60t28.5 50q23 29 34 47.5t46 18.5q33 0 52.5 -7.5t62.5 -27.5q12 -6 28.5 -16.5t30 -24.5t23.5 -31.5t10 -34.5q0 -53 -9 -92t-20 -71l-14 -52q-4 -14 -11 -40.5t-18 -55.5h2 q-16 -53 -39.5 -116.5t-25.5 -112.5q-8 -35 -14 -66q-4 -27 -8.5 -54.5t-4.5 -45.5q0 -27 -11 -64t-17 -65q-10 -35 -47 -35h-76q-23 0 -36 6t-21.5 17.5t-12.5 27t-10 35.5q-4 18 -4 34.5z" />
<glyph unicode="&#x22;" horiz-adv-x="1038" d="M129 868q0 10 5 36t12.5 59.5t17.5 73.5t20 79q10 45 20.5 84t14.5 64q16 88 32.5 123.5t61.5 35.5q72 0 117 -8t71.5 -18.5t36 -21.5t9.5 -19q0 -98 -21.5 -198.5t-54.5 -181.5t-75 -133t-81 -52q-31 0 -64.5 7t-60 17t-44 24.5t-17.5 28.5zM610 768q0 35 5.5 128 t29.5 239q14 80 24.5 129t23 75.5t27.5 35.5t38 9q72 0 117 -10t71.5 -29.5t35.5 -49t9 -66.5q0 -66 -22.5 -154t-58.5 -168t-78.5 -135t-83.5 -55q-59 0 -98.5 12t-39.5 39z" />
<glyph unicode="#" horiz-adv-x="1347" d="M57 494q0 12 12.5 34.5t36 46t56.5 41t76 17.5q8 0 25.5 5t17.5 24q0 23 4 40t6 33t1 37t-24 21t-44 2t-31 6q-35 6 -52.5 36.5t-17.5 61.5q0 12 10 34.5t26.5 45t39 40t45.5 17.5q4 0 25.5 2t37.5 2q10 0 24.5 13.5t14.5 36.5q0 68 1 137t11 143q4 25 17.5 43.5 t32.5 34.5q12 10 25 21.5t30 15.5q16 4 36.5 5t39.5 -5q41 -10 63.5 -17.5t22.5 -40.5q0 -59 -2 -117.5t-2 -82.5q0 -6 -2.5 -25.5t-4.5 -40t-5 -40t-5 -25.5q-4 -10 0 -31t37 -25q20 -4 48 -1t50 -1q33 -4 44.5 12.5t17.5 26.5q2 20 2 27.5v38.5q0 55 4 97t8 83q4 47 42 77 t77 52q35 18 64.5 20.5t50.5 -22.5q8 -12 14 -35.5t10 -49.5t5 -49.5t1 -35.5q0 -6 -1 -28.5t-3 -47t-4 -47t-4 -29.5q-6 -41 1 -64.5t44 -23.5q6 0 22.5 -1t37 -2t39 -2t28.5 -1q18 0 41 -22.5t23 -69.5q0 -12 -9.5 -35.5t-29 -45t-50 -38t-75.5 -16.5q-14 0 -28.5 -1 t-33.5 -1q-33 0 -44 -10.5t-19 -38.5q-6 -29 -10.5 -55.5t-4.5 -53.5q0 -14 7.5 -26.5t23.5 -14.5h11.5h20.5t21.5 -1t14.5 -1q10 -2 25.5 -5t33.5 -3q47 0 64.5 -27.5t17.5 -68.5q0 -12 -12.5 -29.5t-29.5 -32t-37.5 -25t-37.5 -10.5q-16 0 -44.5 -2t-63.5 -6 q-14 -4 -27.5 -9t-13.5 -19q0 -10 -2 -32t-5 -45.5t-7.5 -46t-6.5 -36.5q-4 -20 -13 -55t-15 -58q-12 -49 -33 -64.5t-55 -15.5q-29 0 -45.5 11.5t-42.5 27.5q-33 20 -58.5 54t-25.5 53q0 23 6 67.5t14 108.5q0 2 -1 19.5t-15 21.5q-10 4 -35 0t-41 -4q-4 -2 -14.5 -2h-22.5 q-20 0 -30.5 -13.5t-14.5 -54.5q-2 -29 -5 -62.5t-7 -65.5t-8.5 -59.5t-10.5 -41.5q-16 -49 -34.5 -61.5t-51.5 -12.5q-27 0 -52.5 -1t-43.5 11q-29 20 -38 52t-15 59q-4 23 -9.5 82t3.5 123q0 2 1 15.5t5 29.5h-21.5t-21.5 2q-16 2 -31.5 4t-22.5 4q-35 8 -62.5 30.5 t-27.5 82.5zM539 668q-2 -25 4 -33t22 -8h70h47q41 0 50 9t13 34q2 20 8.5 39.5t6.5 48.5q0 18 -11.5 25.5t-21.5 7.5q-31 0 -75 1t-56 1q-51 0 -51 -43q0 -16 -2 -39t-4 -43z" />
<glyph unicode="$" horiz-adv-x="1101" d="M20 170q0 31 27 49.5t68 18.5q23 0 39 8t63 8q27 0 61.5 2t57.5 2q20 0 43.5 2t43 9t33 19.5t13.5 35.5q0 29 -12.5 54t-48.5 79q-16 23 -39 54.5t-52 76.5q-27 39 -48 90t-35.5 103.5t-21.5 102.5t-7 91q0 66 3 119t32 102q78 141 160.5 210t187.5 89q29 6 46 8t15 29 t4 44t6 44q0 25 11.5 51.5t34.5 42.5q12 8 26 17.5t31.5 16.5t36 9t37.5 -4q37 -14 52 -49t25 -72t-3 -64.5t-23 -51.5q-16 -45 24 -66q12 -6 31 -19.5t36 -31t30.5 -35.5t13.5 -35q0 -12 -6 -44t-31 -56q-29 -29 -61.5 -43.5t-51.5 -14.5q-10 0 -30.5 5.5t-42 11.5t-41 12 t-27.5 6q-23 2 -42 8.5t-66 6.5q-12 0 -34 -11.5t-41.5 -33t-33.5 -56.5t-14 -80q0 -53 1 -86.5t7 -59.5t17.5 -52.5t31.5 -65.5q20 -41 59 -93t70 -101q59 -94 84 -174t25 -142q0 -41 -28 -86t-71 -82t-95 -60.5t-101 -23.5q-23 0 -33 -11t-14 -28q-2 -8 -8.5 -29.5 t-12.5 -48t-10 -52t-2 -40.5q2 -16 -7.5 -31.5t-21.5 -29.5t-27.5 -27.5t-25.5 -25.5t-34.5 -14.5t-49.5 5t-43 23.5t-18 41t3 58.5t7 69.5t11 68.5t17 57.5q8 20 -2 25.5t-30 5.5q-16 0 -36 6t-39.5 15t-35.5 17.5t-25 14.5q-29 20 -36 44t-7 42z" />
<glyph unicode="%" horiz-adv-x="1912" d="M23 766q0 76 33.5 171t95 177t147.5 138.5t190 56.5q14 0 38 -5.5t48.5 -15.5t48 -25.5t42.5 -33.5q12 -14 15 -19.5t8 -8.5t18.5 -5t46.5 -8q39 -8 87 -7t95 6t88 13t66 14t41 11.5t28 11.5t23.5 16.5t29.5 26.5q12 10 18.5 25.5t35.5 42.5q6 6 23.5 21t40 30.5t47 26 t46.5 6.5q16 -2 38 -8.5t41.5 -16.5t36.5 -28.5t26 -45.5q10 -35 7 -70.5t-18 -84.5q-6 -20 -20 -39t-30.5 -36.5t-32 -30.5t-23.5 -25q-29 -41 -68 -71t-67 -71q-20 -29 -55 -65.5t-54 -63.5q-18 -29 -30.5 -44t-23.5 -28.5t-23.5 -27.5t-30.5 -37q-57 -72 -122 -150.5 t-106 -158.5q-10 -18 -38.5 -55t-59.5 -76t-55.5 -72t-26.5 -41q-4 -16 -32.5 -42t-65.5 -26q-16 0 -32.5 -2t-45.5 15q-29 14 -38 22t-9 45t15.5 81t31.5 75q10 20 23.5 39.5t23.5 36.5q4 10 9 18t7 12q8 14 32 49t55.5 79t65.5 91.5t62.5 87.5t48 66.5t21.5 28.5 q14 18 44 51t61.5 67.5t57.5 65.5t32 45q10 23 -8.5 30t-47.5 -3q-55 -18 -106 -20.5t-94 -4.5q-35 -2 -40 -13t-5 -48q0 -53 -15.5 -100.5t-40 -87t-57.5 -71.5t-68 -55q-59 -39 -130.5 -69.5t-159.5 -30.5q-31 0 -64 7t-63.5 22.5t-56 39t-38.5 56.5q-10 29 -24 59.5 t-14 63.5zM289 795q0 -35 20.5 -51.5t40.5 -16.5q29 0 58.5 14.5t54 39t41 56t16.5 68.5q0 12 -7 21.5t-16.5 16.5t-17.5 12.5t-10 9.5q-8 16 -8 55q0 16 -10.5 19t-24.5 3q-31 0 -66.5 -34.5t-56.5 -75.5q-14 -29 -14 -63.5v-73.5zM1128 236q0 115 20.5 213t63.5 151 q35 43 61.5 81t57.5 66.5t70 46t98 21.5q45 0 74 -18.5t33 -36.5q4 -16 13 -21.5t28 -5.5q29 0 64.5 -17.5t66 -51t51 -84t20.5 -115.5q0 -90 -37.5 -172t-99 -146.5t-138.5 -102.5t-155 -38q-63 0 -116.5 21.5t-92.5 54.5t-60.5 74t-21.5 80zM1380 303q0 -33 14.5 -61.5 t55.5 -28.5q25 0 51.5 17.5t48 46t35.5 63.5t14 72q0 47 -8 74.5t-18 60.5q-6 16 -9 21t-18 5q-14 0 -16 -1t-12 -17q-18 -29 -47 -50.5t-35 -31.5q-16 -25 -26.5 -40t-17 -31.5t-9.5 -39t-3 -59.5z" />
<glyph unicode="&#x26;" horiz-adv-x="1214" d="M18 313q0 68 20.5 132.5t52.5 122t73 103.5t84 74q25 16 18.5 26.5t-14.5 19.5q-33 39 -55.5 107.5t-22.5 139.5q0 35 34 89.5t90 109.5t132 101t160 67q45 10 86 8t67 -12q8 -4 25.5 -13.5t35 -20.5t32 -20.5t20.5 -15.5q18 -16 32.5 -40.5t26 -51.5t17.5 -50.5t6 -39.5 q0 -51 -23.5 -104.5t-63.5 -104.5t-95.5 -97t-116.5 -79q-25 -14 2 -53q8 -12 23.5 -32t33 -39t36 -37.5t32.5 -31.5q31 -25 53 33q10 27 31.5 53.5t30.5 49.5q8 23 29.5 43t52.5 24q14 2 36.5 -3t44 -14t38 -19.5t20.5 -18.5q8 -16 10 -35.5t0 -48.5q0 -14 -12.5 -32.5 t-28.5 -38t-33.5 -35t-25.5 -23.5q-18 -16 -28.5 -35.5t-16.5 -24.5q-6 -4 -2 -21t16 -32q27 -29 56.5 -54.5t54.5 -53.5q8 -10 27.5 -29.5t40 -39t35.5 -37t15 -21.5q0 -25 -3 -43.5t-17 -28.5t-27.5 -19.5t-44.5 -5.5q-16 2 -34.5 13.5t-39 27t-39 30.5t-32.5 26 q-37 25 -73 47t-58 37q-39 23 -68 -15q-23 -31 -61.5 -66.5t-90 -65t-111.5 -49t-124 -19.5q-74 0 -141.5 27.5t-117.5 70.5t-80 93t-30 95zM283 406q0 -18 15 -43t38.5 -46.5t50.5 -36t51 -14.5q41 0 78 10.5t66 51.5q10 16 19 23t-5 24q-41 47 -77 90t-83 82q-8 6 -15 13 t-14.5 11t-17.5 1t-22 -15q-23 -23 -53.5 -56.5t-30.5 -94.5zM416 991q0 -23 7 -46t23 -36q12 -10 26.5 -10t43.5 16q31 16 58.5 41t49 51.5t34 53t12.5 51.5q0 37 -37 37q-41 0 -80 -20.5t-69.5 -47t-49 -52t-18.5 -38.5z" />
<glyph unicode="'" horiz-adv-x="575" d="M129 868q0 10 5 36t12.5 59.5t17.5 73.5t20 79q10 45 20.5 84t14.5 64q16 88 32.5 123.5t61.5 35.5q72 0 114 -7t64.5 -17t29.5 -20.5t7 -18.5q0 -98 -21.5 -198.5t-54 -181.5t-74.5 -133t-81 -52q-31 0 -61.5 6t-54 16t-38 23.5t-14.5 27.5z" />
<glyph unicode="(" horiz-adv-x="960" d="M70 475q0 172 40 308.5t101 245t136 191.5t147 148q41 37 100 59.5t116.5 34t101.5 14.5t56 3q37 0 61.5 -41t24.5 -113q0 -55 -16 -81.5t-37 -49.5q-12 -14 -29.5 -14h-29.5q-82 0 -127 -10.5t-80 -32.5q-35 -23 -78 -73t-82 -129t-64.5 -184.5t-25.5 -238.5 q0 -74 10.5 -142.5t16.5 -113.5q6 -43 13 -83t18.5 -71.5t30 -51t44.5 -19.5q25 0 64 3t86 42q16 12 38.5 -1.5t22.5 -54.5q0 -16 -16 -41.5t-39 -35.5q-43 -23 -76 -42.5t-59.5 -32.5t-51 -21.5t-53.5 -4.5q-23 0 -55.5 12.5t-68.5 34t-68.5 49t-57.5 60.5t-46 89 t-36.5 121.5t-23.5 135.5t-8 131z" />
<glyph unicode=")" horiz-adv-x="933" d="M-51 -201q0 16 21.5 32.5t49.5 43.5q23 23 60 38t70 32q66 31 108.5 76t87.5 100q55 70 105.5 149.5t76.5 165.5q41 129 59.5 244t18.5 203q0 84 -13 150.5t-30 105.5q-23 53 -54.5 73.5t-57.5 20.5q-33 0 -59.5 7t-41.5 -3q-8 -6 -29.5 -10t-44.5 6q-18 8 -33.5 11 t-21.5 18q-10 18 -16 32.5t-10.5 29.5t-6.5 34.5t-2 50.5q0 20 10.5 35.5t26 28t32.5 19.5t32 9q6 0 28.5 4t51 7.5t59.5 6.5t53 3q57 0 115.5 -17.5t112.5 -60.5q29 -25 56.5 -80t49.5 -98q16 -35 29.5 -69t21.5 -74t12.5 -90t4.5 -115q0 -78 -14.5 -173.5t-43.5 -199.5 q-10 -33 -21 -76t-24.5 -87t-28 -86t-28.5 -75q-57 -127 -130 -207.5t-171 -150.5q-37 -27 -81 -50.5t-86 -43t-76 -31.5t-50 -14q-31 -4 -46 -6.5t-25.5 -4.5t-20.5 -2h-29q-29 0 -43 26.5t-14 61.5z" />
<glyph unicode="*" horiz-adv-x="1091" d="M92 1073q0 12 8.5 32.5t26.5 41t48 36t73 15.5q12 0 28.5 -3t34.5 -1q25 4 24 16.5t-9 22.5q-4 6 -22.5 24.5t-20.5 24.5q-6 10 -24.5 32.5t-29.5 39.5q-29 41 -6 77.5t58 63.5q12 8 36.5 9t53 -4t54.5 -17.5t40 -30.5q27 -37 44 -67.5t26 -47.5q16 -35 37.5 -42t50.5 44 q2 2 8 12.5t13 20.5t13.5 19.5t10.5 11.5q6 10 17 22.5t22 28.5q25 43 58.5 45t70.5 -20q12 -6 27.5 -25.5t26.5 -43.5t15 -48.5t-8 -44.5q-23 -41 -42 -65.5t-30 -41.5q-16 -29 -1.5 -42t30.5 -13q2 0 13.5 -1t23.5 -3t23.5 -4t15.5 -2q10 -2 43 -2h53q49 0 51 -18.5 t2 -61.5q0 -14 -19.5 -35.5t-47 -43t-59 -37t-54.5 -15.5q-88 0 -45 -55q6 -6 13 -20.5t13.5 -30t12.5 -29t8 -19.5q8 -16 15.5 -32.5t8.5 -32t-8.5 -31.5t-33.5 -35q-10 -6 -34 -10t-54.5 1t-62.5 22.5t-58 54.5q-8 10 -20.5 34.5t-22.5 41.5q-4 10 -12.5 11t-18.5 1 q-10 -2 -22 -4l-33 -62q-10 -16 -31.5 -48t-32.5 -42q-25 -29 -65.5 -35t-93.5 27q-10 6 -22.5 21.5t-19 40t-3 56t25.5 70.5q6 10 23.5 32t25.5 38q8 14 7 24.5t-6 15.5t-13 7t-16 2t-29 1t-44.5 2t-43 2t-25.5 3q-37 8 -63.5 32t-26.5 87z" />
<glyph unicode="+" horiz-adv-x="931" d="M49 631q0 12 4 31.5t14.5 38t27 31.5t40.5 13h135q39 0 59.5 21.5t22.5 30.5q2 23 10.5 47t12.5 47q2 8 5 23.5t8 32t9 30.5t6 20q16 35 31 49.5t58 14.5q27 0 57.5 -6t57 -20.5t45 -38t18.5 -58.5q0 -6 -5.5 -26.5t-12.5 -43t-13 -44t-8 -29.5q-14 -63 37 -64q2 0 13 -1 t24.5 -2t24.5 -2t15 -1q10 -2 26.5 -5t37.5 -3q25 0 43 -11.5t31.5 -27.5t19.5 -34.5t6 -33.5q0 -14 -9 -34.5t-24.5 -39t-36.5 -31.5t-44 -13h-50.5t-54 -1.5t-47 -1.5h-31.5q-29 0 -52 -2t-28 -38q0 -4 -3 -14.5t-6 -23t-6 -23.5t-5 -15q-4 -10 -10 -25.5t-10 -36.5 q-4 -25 -21.5 -46t-40 -37.5t-48.5 -24.5t-46 -4q-14 2 -28.5 15t-26 32.5t-17.5 43t-2 46.5t6 36t3 20t2 13.5t6 16.5v8t-5.5 17.5t-14.5 16.5t-23 7q-23 0 -37.5 -4t-36.5 -4q-16 0 -30.5 12t-22.5 23q-35 39 -47.5 76.5t-12.5 56.5z" />
<glyph unicode="," horiz-adv-x="489" d="M-29 -264q0 10 8.5 31.5t20.5 52.5t22.5 47t22.5 57q10 35 22.5 91.5t16.5 95.5q8 96 27.5 140t66.5 44q35 0 51.5 -9.5t38.5 -13.5q72 -10 106 -28.5t34 -30.5q0 -37 -6.5 -61.5t-16.5 -61.5q-4 -16 -12 -37.5t-18.5 -45t-19.5 -46t-16 -37.5q-35 -76 -64.5 -128 t-74.5 -93q-55 -51 -96 -51q-59 0 -86 27.5t-27 56.5z" />
<glyph unicode="-" d="M96 631q0 12 6.5 31.5t22.5 38t45 31.5t72 13q12 0 28.5 -1t34.5 -3q16 -2 34.5 -3t31.5 -1h59.5t46.5 -2q23 0 48.5 -1t56.5 -1h13t15 -2q10 -2 23.5 -3t34.5 -1q49 0 82.5 -42t33.5 -142q0 -14 -13 -31.5t-39.5 -33t-63.5 -27t-84 -11.5t-76 5.5t-49 9.5q-10 4 -21.5 6 t-27.5 2q-10 0 -27.5 -1t-34.5 -1q-23 -2 -46 -2h-46h-31.5t-27.5 4q-37 8 -69 56t-32 112z" />
<glyph unicode="." horiz-adv-x="489" d="M59 166q0 43 16.5 72.5t42 48t56.5 27t59 8.5q33 0 61 -18.5t48 -45.5t30.5 -56.5t10.5 -49.5q0 -78 -50 -118t-114 -40q-66 0 -113 41t-47 131z" />
<glyph unicode="/" horiz-adv-x="718" d="M-14 121q6 45 16 78q6 23 16.5 45t18.5 39q4 10 7 19t5 13q4 14 12.5 26.5t16.5 25.5q10 14 21.5 30.5t19.5 40.5q14 41 26.5 69t22.5 48t19.5 34.5t17.5 28.5q10 18 18 43t31 78q6 20 25.5 58.5t43 84.5t49 94t48 89t37 71t16.5 40q4 10 11.5 24t11.5 25l12 24 q4 6 7 14.5t7 16.5q6 14 13.5 29.5t29.5 44.5q12 16 32.5 21t66.5 5q35 0 45 -17t26 -42q6 -10 7 -26.5t0 -34t0 -33t10 -23.5q16 -18 10 -47t-17 -55q-2 -8 -14 -28.5t-27.5 -46.5t-31 -53.5t-27.5 -49.5l-59 -119q-29 -61 -61.5 -118.5t-63.5 -111.5q-45 -78 -87 -156.5 t-71 -164.5q-12 -39 -25.5 -67.5t-15.5 -45.5q0 -8 -8 -20t-19.5 -27.5t-22.5 -32t-17 -34.5q-4 -12 -24.5 -23.5t-45.5 -19t-49.5 -9.5t-38.5 5q-29 10 -33 22t-14 43t-4 76z" />
<glyph unicode="0" horiz-adv-x="1103" d="M57 582q0 174 45 316t128 242.5t198 156t254 55.5q16 0 60 -5.5t79 -31.5q16 -12 28.5 -38t24.5 -48q10 -16 10.5 -32.5t2.5 -41.5q0 -18 20 -27q23 -10 43.5 -13t36.5 -25q8 -10 20.5 -30t18.5 -34q8 -18 5 -51t1 -55q4 -16 6 -27.5t2 -32.5q0 -164 -59 -309 t-150.5 -253t-202 -170t-212.5 -62q-358 0 -359 516zM348 594q0 -72 7 -117t20.5 -71.5t30.5 -36t40 -9.5q59 0 115.5 38t102 102.5t72 151.5t26.5 188q0 27 -10.5 47t-14.5 37q-4 10 0 32.5t4 38.5q0 23 -2 32t-30 11q-16 2 -35 12.5t-45 10.5q-31 0 -79 -26.5t-93 -83 t-77 -144.5t-32 -213z" />
<glyph unicode="1" horiz-adv-x="1009" d="M68 696.5q8 30.5 8 59.5q0 6 7 24.5t17.5 40t20.5 40t16 24.5q14 18 26.5 31.5t25 22.5t24.5 17.5t31 20.5q18 12 61 48t92 79t92.5 83t59.5 58q16 20 41.5 42t55.5 39t58.5 27.5t51.5 10.5q86 0 120.5 -52t34.5 -138q0 -16 -5 -57.5t-13 -90.5q-4 -33 -9 -67.5 t-10 -63.5q-4 -35 -15 -103.5t-22.5 -141t-19.5 -136t-8 -88.5q2 -25 3 -48.5t1 -47.5q0 -12 -5 -38t-11 -55.5t-12.5 -56t-8.5 -39.5q-4 -14 -19.5 -35.5t-39 -41t-52 -34t-59.5 -14.5q-12 0 -26.5 7.5t-28.5 16.5t-25.5 18.5t-15.5 15.5q-6 8 -11 11t-9.5 7t-6.5 14.5 t-2 30.5q0 37 -2 51.5t-2 40.5q0 14 1 47t5 48q4 16 6.5 53t6.5 63q2 25 10 71t16 98.5t16.5 99.5t10.5 75q4 41 -8.5 39t-46.5 -26q-16 -10 -57.5 -41t-89.5 -64t-91 -60.5t-61 -31.5q-45 -10 -74 -7t-45 38t-8 65.5z" />
<glyph unicode="2" horiz-adv-x="1153" d="M102.5 194.5q-6.5 18.5 1.5 41.5q10 29 32 53t36 41q37 39 89 88t108 102q66 61 135 127t126.5 125t94.5 107.5t37 76.5q0 53 -36 82t-81 29q-25 0 -55.5 -13.5t-62 -31.5t-62.5 -37.5t-57 -32.5q-39 -16 -70 -30.5t-51 -14.5q-41 0 -74 19.5t-37 42.5q-2 16 -5 51t-3 63 q0 16 21.5 36t43.5 42q31 33 78 64.5t105.5 58.5t125 43t134.5 16q31 0 71.5 -4t88.5 -16q23 -6 43 -21.5t43 -31.5l36 -27q102 -74 103 -233q0 -111 -52.5 -199t-131.5 -145q-41 -29 -83 -71t-73 -69q-14 -10 -39 -38.5t-47 -45.5q-20 -16 -46 -46.5t-36 -47.5 q-14 -23 -19.5 -35t-1 -18t16.5 -9t31 -10q35 -10 84 -20t96 -18.5t83 -14.5t46 -6q29 0 54.5 -17.5t43.5 -27.5q16 -10 24.5 -14t8.5 -33q0 -23 -6 -33t-41 -29q-12 -6 -30.5 -18t-37.5 -16q-6 -2 -29.5 -5.5t-49 -6.5t-50 -5t-33.5 -2q-27 0 -72.5 2t-101 6.5t-115 9.5 t-112.5 10t-93 9t-56 8q-35 10 -59.5 40t-24.5 65q0 16 -6.5 34.5z" />
<glyph unicode="3" horiz-adv-x="1069" d="M8 111q0 16 21.5 32.5t50.5 42.5q23 23 58.5 41.5t70.5 28.5q70 18 137.5 44t121.5 57.5t88 71.5t34 89q0 41 -32 70.5t-79 29.5q-29 0 -49 -10t-53 -33q-14 -10 -44 -9t-36 9q-8 8 -22.5 30t-29 46.5t-25.5 48t-11 39.5q0 31 20.5 48.5t53 29.5t75.5 23.5t86 27.5 q41 14 84 29.5t78 37t56.5 54.5t21.5 84q0 41 -16.5 65.5t-63.5 24.5q-12 0 -33.5 -4t-45 -10t-47 -14.5t-42.5 -16.5q-41 -18 -60.5 -33.5t-37.5 -27.5q-16 -10 -39 -10h-37q-10 0 -23.5 21.5t-27.5 53t-23.5 68.5t-9.5 67q0 20 11.5 35t26.5 25t32.5 18t30.5 15 q16 10 68 24.5t112.5 28.5t115 23.5t76.5 9.5q68 0 130.5 -10.5t110.5 -39t76.5 -77.5t28.5 -127q0 -76 -25.5 -136.5t-64.5 -106.5t-85 -81t-89 -57q-6 -4 -13 -10.5t-9 -12.5t3 -12t21 -12q37 -10 71 -36t59.5 -58.5t42 -68.5t16.5 -69q0 -59 -34 -121.5t-87 -119.5 q-27 -29 -45.5 -46.5t-46.5 -33.5q-29 -16 -68 -35t-68 -35q-6 -4 -25.5 -10t-43 -13.5t-45 -13.5t-29.5 -8q-47 -16 -103.5 -31.5t-88.5 -19.5q-61 -8 -98.5 -10t-75.5 -2q-29 0 -43.5 26.5t-14.5 61.5z" />
<glyph unicode="4" horiz-adv-x="1101" d="M23 424v58.5t3 30.5t10 19.5t19 24.5q16 23 41 61.5t47 67.5q6 6 23.5 28.5t39 48t39 48.5t23.5 29q33 39 82 92t98.5 109.5t93.5 109.5t68 92q29 45 84.5 64.5t104.5 19.5q43 0 69.5 -14.5t42 -41t20.5 -61t5 -77.5q0 -12 -6 -54.5t-12.5 -88.5t-12.5 -85t-6 -49 t-3 -30.5t-8 -43t-9.5 -42t-4.5 -25.5q-6 -37 -11 -78t-5 -49q0 -29 6 -39t31 -21q76 -27 122 -40t46 -46q0 -20 -9.5 -47.5t-19.5 -52.5q-6 -18 -25.5 -33.5t-44 -28t-50 -19.5t-44.5 -7q-23 0 -33 -4t-10 -25q-4 -25 -6 -45q-2 -18 -4 -34.5t-2 -20.5q2 -23 0 -45 q-2 -18 -6 -38t-14 -32q-29 -35 -47.5 -49t-45.5 -14q-37 0 -58 9t-44 9q-10 0 -31.5 4t-33.5 33q-6 14 -8.5 19.5t-2.5 6.5v3t-4 8q-10 20 -2 47t8 53q0 14 2 39t7 53q4 16 -1.5 20.5t-15.5 14.5t-31.5 7t-37.5 1q-23 4 -71 9.5t-96.5 8.5t-85 5t-38.5 2q-76 0 -105.5 39 t-29.5 86zM420 602q0 -29 28.5 -40t61.5 -11h40t28 8q6 16 15 59.5t17 90.5t14.5 88t6.5 53q0 8 -2 18.5t-7.5 14.5t-14.5 1t-23 -20q-6 -6 -29 -34.5t-47.5 -62.5t-46 -64.5t-27.5 -38.5q-12 -20 -13 -34t-1 -28z" />
<glyph unicode="5" horiz-adv-x="1069" d="M35 150q0 16 25.5 32.5t84.5 44.5q29 14 61 31.5t66 28.5q70 18 131.5 45.5t107.5 62.5t72.5 77t26.5 91q0 20 -25.5 42t-60.5 39.5t-71.5 28.5t-59.5 11q-29 0 -63.5 -20.5t-67.5 -42.5q-6 -4 -24.5 -3.5t-37 4t-34.5 8.5t-19 9q-16 18 -15 48t1 61t6 56t15.5 53 t20.5 61.5t22 78.5q16 70 23 127.5t14.5 101.5t16.5 76.5t32 51.5q6 4 20 13t32.5 18.5t37 14.5t33.5 3q8 -2 25.5 -1t35.5 2t34.5 3t22.5 2q51 0 91 -1t76 -2t74 -2t87 -1q29 0 50.5 -35t21.5 -72q0 -14 -5.5 -34.5t-14.5 -41t-22.5 -39t-27.5 -26.5q-16 -10 -38.5 -21.5 t-45.5 -9.5q-14 0 -20.5 2t-12.5 3t-14 2.5t-29 1.5q-4 0 -12 -2.5t-16 -2.5t-13.5 -1t-12.5 -1h-18.5h-33.5q-41 0 -55.5 -12t-26.5 -35t-12 -40t-5 -35q-6 -41 -7 -59.5t22 -20.5q100 -4 172 -28t106 -34q37 -10 64.5 -42t47 -71.5t30 -81.5t10.5 -75q0 -31 -10.5 -72 t-28.5 -85t-41.5 -84.5t-50.5 -69.5t-45.5 -46.5t-46.5 -33.5q-29 -16 -61 -40t-60 -40q-82 -51 -170 -65.5t-191 -28.5q-31 -4 -49 -5.5t-31.5 1t-24.5 7.5t-30 11q-31 12 -45 43t-14 66z" />
<glyph unicode="6" horiz-adv-x="1067" d="M76 479q0 174 48 324.5t134 262.5t204 175.5t257 63.5q27 0 59.5 -10.5t66.5 -28t68.5 -38t63.5 -38.5q16 -10 29.5 -21.5t17.5 -27.5q4 -14 7 -40t3 -42q0 -23 -18.5 -43.5t-26.5 -36.5q-18 -35 -40.5 -43t-35.5 -8q-49 0 -72.5 11t-39.5 28q-23 16 -50.5 31.5 t-84.5 15.5q-16 0 -50 -12.5t-69 -34t-60.5 -51t-25.5 -66.5q0 -14 8 -19.5t20 -9.5q16 -6 42 -6h49q63 0 119.5 -21.5t99.5 -64.5t68.5 -106.5t25.5 -147.5q0 -92 -34 -183t-95.5 -164t-144.5 -119t-181 -46q-362 0 -362 516zM367 492q0 -143 26.5 -204t69.5 -61 q33 0 65.5 20.5t58 54.5t42 75t16.5 82q0 39 -10 61.5t-26.5 34.5t-36 16t-37.5 4q-6 0 -29 8.5t-27 12.5q-4 2 -13 7t-19.5 11.5t-19.5 10.5t-11 4q-16 0 -18.5 -1t-14.5 -24q-8 -14 -12 -49t-4 -63z" />
<glyph unicode="7" horiz-adv-x="1054" d="M112.5 29.5q0.5 15.5 0.5 52.5q0 16 6 38.5t15 47.5t20.5 47.5t23.5 38.5q23 27 70 95.5t102 150.5q37 53 73 106t65.5 96t52 73t30.5 36q23 20 32 40.5t9 39.5q0 35 -20.5 56.5t-52.5 21.5q-12 0 -41 -1t-62 -2t-62.5 -2t-43.5 -1q-29 -2 -35 3t-31 5q-23 0 -41 -3 t-30 1q-39 8 -49.5 26.5t-10.5 51.5q0 37 19 83q6 16 17 32t19 34t13.5 29.5t15.5 17.5t28.5 7t53.5 1q16 0 29.5 -5t27.5 -9h19.5h35h38h28.5q6 0 41 -2t83 -5t100.5 -7t93.5 -6q35 -2 56 -3.5t23 -1.5q51 0 76 -11t39 -40q6 -14 13.5 -35.5t7.5 -38.5q0 -41 -20.5 -85 t-45.5 -78q-12 -16 -28.5 -41t-32 -49.5t-27.5 -45t-18 -30.5t-34 -46t-59.5 -79t-61.5 -84.5t-42 -61.5q-6 -6 -26.5 -35.5t-50 -72.5t-64.5 -94.5t-67 -101.5t-58.5 -92t-40.5 -68q-23 -41 -57.5 -49.5t-57.5 -8.5q-25 0 -43 11.5t-35 21.5q-29 16 -28.5 31.5z" />
<glyph unicode="8" horiz-adv-x="954" d="M33 342q0 135 51 225t137 150q25 16 18.5 26.5t-14.5 18.5q-51 55 -66.5 121.5t-15.5 138.5q0 51 44 125t112 141.5t149.5 115.5t155.5 48q25 0 76 -22q16 -6 33.5 -12.5t27.5 -20.5q6 -10 12.5 -23.5t6.5 -27.5q0 -12 6 -27.5t14 -15.5q14 0 30.5 2t39.5 2 q20 0 33.5 -7.5t25.5 -17.5q29 -23 30 -46.5t1 -55.5q0 -51 -13.5 -107.5t-40 -112t-63.5 -105.5t-84 -89q-12 -10 -14 -25.5t16 -27.5q16 -12 36 -35t37 -52.5t29.5 -66.5t12.5 -76q0 -102 -42 -183t-111.5 -137.5t-156.5 -86t-177 -29.5q-74 0 -136.5 28.5t-106.5 73 t-68.5 96.5t-24.5 97zM297 434q0 -18 7 -43.5t20.5 -49.5t32 -40t42.5 -16q29 0 63 8t62.5 25.5t48 46t19.5 71.5q0 55 -19.5 95t-33.5 77q-6 18 -22.5 28.5t-33.5 6.5q-31 -6 -63.5 -27.5t-60 -52.5t-45 -64.5t-17.5 -64.5zM397 1012q0 -66 18.5 -95.5t55.5 -60.5 q12 -10 28.5 -11t41.5 17q59 43 96 99.5t37 103.5q0 12 -1 18.5t-3 10.5t-7.5 12t-11.5 27q-6 18 -13 27t-24 9q-41 0 -79.5 -20.5t-69.5 -47t-49.5 -52t-18.5 -37.5z" />
<glyph unicode="9" horiz-adv-x="1067" d="M133 82q2 22 2 45q0 14 16.5 23.5t26.5 19.5q18 23 32.5 25t29.5 2h28.5t19.5 1t19 1h27q8 0 25.5 2t38 6t40 9t33.5 11q12 4 30.5 9.5t38 13.5t39 23.5t31.5 39.5q6 10 21.5 38t15.5 40q0 23 -8 19t-25 -13q-23 -10 -44 -8t-35 2q-63 0 -128 27.5t-117 77t-86 119 t-34 153.5q0 92 38 180t99.5 159t137 114t153.5 43q84 0 161 -37t136 -115q20 -29 41.5 -73t37 -96t26 -110.5t10.5 -113.5q0 -215 -82 -378t-217 -269q-35 -27 -60.5 -41.5t-47 -22.5t-43 -12t-46.5 -12q-12 -4 -38.5 -9.5t-57.5 -10.5t-58.5 -9t-44.5 -4q-31 0 -53 -4 t-45 12q-20 16 -42.5 35.5t-33.5 42.5q-10 23 -8 45zM449 768q0 -39 13 -69.5t29.5 -52t34 -34t27.5 -14.5q20 -4 44 -6t34 -8q8 -6 22.5 -6h24.5q12 0 14 7t13 21q10 16 16 44t6 77q0 45 -7 90t-24.5 81t-48.5 58.5t-76 22.5q-23 0 -44 -17.5t-38.5 -47t-28.5 -67.5 t-11 -79z" />
<glyph unicode=":" horiz-adv-x="489" d="M86 174q0 43 16.5 72.5t42 48t56 27t59.5 8.5q31 0 48.5 -18.5t39.5 -47.5q18 -25 40 -51.5t22 -52.5q0 -45 -21.5 -67t-50.5 -42q-23 -16 -43.5 -32.5t-48.5 -16.5q-37 0 -59.5 26.5t-45.5 55.5q-16 20 -35.5 35.5t-19.5 54.5zM176 768q0 35 25.5 53.5t54.5 40.5 q23 16 40 36t50 20q78 0 118 -50.5t40 -113.5q0 -35 -19.5 -45.5t-48.5 -26.5q-25 -14 -52.5 -35.5t-51.5 -21.5q-29 0 -56.5 12t-50 31.5t-36 45t-13.5 54.5z" />
<glyph unicode=";" horiz-adv-x="489" d="M-29 -264q0 10 8.5 31.5t20.5 52.5q23 55 50.5 130t33.5 161q8 96 27.5 140t66.5 44q14 0 33.5 -3l39 -6t36 -6.5t26.5 -3.5q49 0 74 -18t25 -31q0 -70 -19 -139q-10 -39 -34.5 -86t-55.5 -94t-62 -89t-51 -73q-23 -35 -36 -53.5t-22 -27.5t-19.5 -11t-28.5 -2 q-59 0 -86 27.5t-27 56.5zM176 770q0 18 10.5 38.5t25.5 38t30.5 32t25.5 24.5q12 12 21.5 16.5t16.5 6.5t17.5 1t26.5 -1q27 0 55.5 -32t49.5 -54q23 -25 34 -40.5t11 -43.5q0 -35 -15.5 -56t-31.5 -41q-20 -25 -44 -43t-59 -18q-33 0 -63.5 18.5t-55 45t-40 56.5t-15.5 52 z" />
<glyph unicode="&#x3c;" horiz-adv-x="931" d="M197 599q2 26 8 48.5t12 32.5q41 53 87 82t89 59q23 16 72 42t88 55q8 6 25.5 16t39 20.5t43 17.5t37.5 7q100 0 101 -92q0 -20 -7.5 -42t-23.5 -38t-36.5 -34.5t-41 -36t-37 -32t-22.5 -20.5q-8 -6 -24.5 -16.5t-34 -20.5t-30 -20.5t-12.5 -18.5q0 -12 25 -38.5 t90 -67.5q14 -10 34.5 -23.5t38 -32t30 -43t12.5 -55.5q0 -49 -21.5 -88t-62.5 -39q-14 0 -36 4t-43.5 11.5t-40.5 18.5t-28 24q-14 20 -38.5 34.5t-43.5 28.5q-61 39 -95 61.5t-51 34t-24.5 16.5t-13.5 11t-16 17.5t-35 35.5q-10 10 -13 32.5t-1 48.5z" />
<glyph unicode="=" horiz-adv-x="901" d="M47 426q0 12 9.5 36.5t28.5 51.5t50 46.5t74 19.5q12 0 28.5 -1t34.5 -4q16 -2 35 -3t31 -1h69.5t57.5 -2q23 0 38 -8t46 -8q2 0 16.5 -1t31.5 -2t31.5 -2t18.5 -1q10 -2 26.5 -5t37.5 -3q49 0 67.5 -29t18.5 -72q0 -14 -19.5 -37.5t-46 -47t-54.5 -40t-44 -16.5 q-47 0 -98.5 5t-71.5 9q-6 2 -17.5 2h-25.5t-26.5 -1t-20.5 -1q-10 0 -37 -2t-43 -2q-23 -2 -35 -2h-35q-8 0 -23.5 1t-32.5 2t-31.5 3t-20.5 4q-37 8 -52.5 27.5t-15.5 83.5zM113 750q0 12 6 37.5t18.5 53t30.5 48t43 20.5q6 0 22.5 2t36 5.5t37 4.5t27.5 1q16 -2 34.5 -3 t30.5 -1h70t57 -3q23 0 48.5 -1t56.5 -1h13t15 -2h20.5t32 2t34 3.5t26.5 1.5q8 0 20.5 -14.5t22.5 -36t17.5 -48t7.5 -51.5q0 -14 -6.5 -31.5t-23.5 -33t-47 -25.5t-77 -10q-74 0 -126 -8.5t-101 -8.5q-10 0 -38 -1t-44 -1q-23 -2 -46.5 -2h-45.5q-8 0 -26.5 2t-39 4t-38 4 t-23.5 5q-37 8 -41 31.5t-4 56.5z" />
<glyph unicode="&#x3e;" horiz-adv-x="931" d="M162 889q0 45 42 67.5t91 22.5q16 0 37.5 -7t43 -17.5t39 -20.5t25.5 -16q39 -29 88.5 -54.5t71.5 -42.5q43 -31 99.5 -58.5t97.5 -78.5q6 -10 13 -30.5t5 -46t-16 -53t-49 -52.5q-55 -39 -105.5 -85t-97.5 -75q-10 -6 -28.5 -17.5t-39 -24.5t-40 -24.5t-29.5 -17.5 q-16 -10 -37 -24.5t-42.5 -26.5t-40 -21.5t-32.5 -9.5q-41 0 -62.5 39t-21.5 88q0 31 12.5 55.5t29.5 43t36.5 31.5t36.5 24q33 20 64.5 43.5t56 45t39 39t14.5 23.5q0 8 -13.5 18.5t-30 20.5t-32.5 20.5t-25 16.5q-6 6 -26.5 14.5t-45 19.5t-49 23.5t-40.5 28.5 q-8 8 -15.5 24.5t-12.5 34t-8 34t-3 26.5z" />
<glyph unicode="?" horiz-adv-x="944" d="M47 1206q0 16 5 30.5t14 31.5q6 12 15 24.5t34 28.5q10 6 32.5 17.5t48 23.5t50 23.5t37.5 17.5q61 31 119.5 50.5t134.5 19.5q31 0 71.5 -4.5t87.5 -16.5q23 -6 43.5 -21.5t42.5 -31.5l37 -27q49 -35 63.5 -88t14.5 -133q0 -70 -24.5 -126t-61.5 -110q-18 -27 -50 -57.5 t-54 -52.5q-35 -35 -80 -69t-78 -60q-53 -41 -72.5 -69.5t-38.5 -65.5q-10 -20 -31.5 -34.5t-31.5 -25.5q-16 -14 -26.5 -19t-33.5 -5q-29 0 -47 24q-10 16 -13 38t-3 38q0 41 27 90q10 23 25 43.5t32 42.5q29 37 62.5 74t66.5 72q29 31 57.5 65.5t50.5 67.5q8 10 20.5 23.5 t16.5 23.5q10 18 9 30.5t-1 22.5q0 51 -36.5 64.5t-81.5 13.5q-51 0 -107.5 -23.5t-109.5 -48.5q-39 -16 -68 -22t-49 -6q-10 0 -26.5 4t-39.5 24q-16 16 -23 24.5t-16 16.5q-8 8 -11 22.5t-3 24.5zM59 158q0 29 16.5 52t41 39.5t50.5 26t44 9.5t41.5 -5.5t52.5 -33.5 q18 -18 25.5 -32.5t8.5 -26t-1 -22t-2 -18.5q0 -31 -15.5 -55t-38 -40.5t-51 -25t-53.5 -8.5q-16 0 -36.5 11.5t-39 31t-31 44t-12.5 53.5z" />
<glyph unicode="@" horiz-adv-x="1755" d="M43 406q0 66 8 144.5t31.5 165.5t67 179t110.5 184q61 82 139 154t175.5 125t215 84t259.5 31q57 0 99 -5.5t79 -14.5t70.5 -25.5t74.5 -36.5q35 -18 71 -47t64 -58q27 -27 61 -72t52 -79q18 -35 32.5 -65t24 -61.5t14.5 -70.5t5 -88v-61.5t-2 -69.5t-4 -68t-7 -57 q-4 -25 -10 -57.5t-12 -65.5t-14.5 -63.5t-14.5 -51.5q-10 -29 -23.5 -66.5t-35 -78.5t-53 -85t-74.5 -85q-4 -6 -16.5 -12t-28 -12.5t-31.5 -11.5t-29 -7q-45 -10 -75.5 -20.5t-67.5 -10.5q-27 0 -44 4t-31.5 12.5t-28 19.5t-29.5 24q-49 41 -72.5 100t-23.5 127 q0 18 -3 25.5t-7.5 6.5t-8.5 -7.5t-8 -12.5q-27 -47 -62.5 -87t-76.5 -68.5t-84 -45t-82 -16.5q-59 0 -104.5 21.5t-77 56.5t-48 82t-16.5 100t11.5 103.5t27.5 97.5q12 37 30.5 70.5t39.5 66.5q29 45 58.5 85t72.5 73q35 25 76 52.5t87 50t96 36.5t103 14q23 0 63 -14 t70 -26q12 -4 19.5 5t11.5 21q2 6 12.5 8t23.5 3t26.5 0t19.5 -1q10 0 20.5 -10t19.5 -23.5t17.5 -24.5t14.5 -13q10 -4 15 -16.5t6 -27t1 -28.5v-27q0 -14 -9 -41.5t-20.5 -58.5t-22.5 -60.5t-15 -48.5q-4 -10 -12.5 -42.5t-17.5 -74.5t-16.5 -82t-7.5 -61q0 -35 -1 -63.5 t2.5 -50t14.5 -33.5t36 -12q47 0 93 74.5t75 197.5q14 61 19 139t5 131q0 49 -5 104.5t-17 106.5q-12 49 -38 91t-61 81q-23 29 -60.5 58.5t-74.5 46.5q-43 20 -86 28.5t-110 8.5q-143 0 -281.5 -70t-237.5 -195q-14 -18 -30.5 -44.5t-32.5 -56.5t-31.5 -57.5t-25.5 -47.5 q-53 -98 -62.5 -187.5t-9.5 -185.5q0 -59 2 -129t20 -129q14 -45 44 -102.5t55 -94.5q47 -72 109.5 -108.5t154.5 -36.5q35 0 63.5 6t61.5 18q10 4 35.5 9.5t46.5 15.5q20 10 31.5 25.5t21.5 15.5h23.5t21.5 -10t7 -26.5t-1 -22.5q0 -10 -10 -28t-21 -34q-6 -10 -20 -21.5 t-18 -19.5q-10 -16 -13.5 -23.5t-21.5 -23.5q-20 -16 -35.5 -25.5t-48.5 -21.5q-23 -10 -40.5 -17.5t-35.5 -13.5t-42 -9t-60 -3q-141 0 -251 80t-196 227q-12 20 -27.5 51t-30 64t-25.5 63.5t-17 53.5q-23 92 -28 167.5t-5 129.5zM637 369q0 -35 11 -47.5t46 -12.5 q23 0 56.5 20.5t69.5 51.5t69 65.5t51 65.5q16 25 34.5 60.5t35.5 74.5q4 10 2 23.5t-11 15.5q-16 2 -24 7t-14.5 10.5t-14.5 9.5t-26 4q-39 0 -88.5 -30t-93.5 -79t-73.5 -111.5t-29.5 -127.5z" />
<glyph unicode="A" horiz-adv-x="1112" d="M33 35q0 12 4 30.5t10 38t11 36t8 26.5q6 35 15 64.5t13 56.5q4 14 4 42.5t-16 45.5q-14 14 -18.5 40.5t-4.5 49.5q0 37 13.5 69.5t46.5 61.5q16 14 34.5 9t22.5 7q10 23 22.5 56.5t16.5 50.5q16 57 44 118.5t69 137.5t96 173t129 226q12 23 27.5 41.5t52.5 18.5 q23 0 52.5 -4.5t51.5 -10.5q16 -4 24.5 -9t29.5 -7q14 -2 28.5 -20.5t26.5 -28.5q14 -14 16 -17.5t10 -13.5q12 -16 27.5 -54t24.5 -116q4 -47 10 -101.5t11 -103.5t9 -87t7 -54q6 -47 10 -78t7 -58.5t7 -61.5t10 -87q2 -12 6.5 -46t10.5 -71.5t10 -71.5t6 -42 q6 -43 12.5 -64.5t11.5 -36t7 -26.5t2 -39q0 -8 -8.5 -32t-18.5 -42q-4 -8 -12 -20.5t-20.5 -26.5t-29 -25.5t-36.5 -17.5q-23 -6 -51.5 -3t-53.5 19q-16 10 -19 24.5t-17 37.5q-12 20 -20.5 38.5t-16.5 47.5q-4 16 -9.5 40.5t-10.5 50.5t-8 49.5t-5 35.5q0 8 1 14.5t0 10.5 t-7 6t-23 2q-20 0 -41.5 -18.5t-44.5 -20.5q-35 -3 -82 -17q-27 -8 -59 -8q-23 0 -49 4q-16 4 -23.5 -7t-11.5 -21q-4 -29 -10 -56.5t-10 -50.5q-6 -33 -11.5 -55.5t-9.5 -38.5t-10 -28.5t-12 -24.5q-23 -41 -57 -79t-66 -38q-35 0 -71 11.5t-56 41.5q-23 33 -31 55.5 t-8 51.5zM469 590q-4 -23 2 -33t25 -16q18 -5 68 -13q39 -6 76 -6h19q20 2 23.5 15.5t3.5 40.5q0 51 2 94t2 78q-2 63 -7 120.5t-7 94.5q-2 33 -12.5 33.5t-20.5 -15.5q-25 -35 -52.5 -91t-53 -115.5t-44 -111t-24.5 -75.5z" />
<glyph unicode="B" horiz-adv-x="1064" d="M125 242q0 59 9 118.5t13 102.5q2 18 5.5 52t7.5 71t7 70.5t7 52.5q6 45 14.5 97t15.5 98t13 80t8 44q2 12 10.5 39t14.5 54.5t10 52t-2 34.5q-6 12 -13 27.5t-8 34t4 40t21 46.5q16 20 34.5 38.5t35.5 22.5q8 2 24.5 3t35 1h35.5t30 -2q18 -2 71.5 -14t113.5 -28.5 t114.5 -34t77.5 -29.5q86 -47 139 -123q51 -70 51 -156q0 -49 -23.5 -104.5t-60.5 -105.5t-83 -90t-89 -60q-20 -10 -26.5 -15.5t24.5 -15.5q37 -12 75 -35.5t67.5 -57.5t48 -77t18.5 -94q0 -72 -18.5 -122t-55.5 -103q-8 -12 -21.5 -30t-28.5 -34t-30.5 -32.5t-25.5 -24.5 q-45 -39 -119 -60.5t-141 -31.5q-16 -2 -37 -2t-41.5 2t-38 3t-25.5 1q-16 0 -36.5 -7.5t-39.5 -11.5q-20 -4 -42.5 -7t-26.5 -3q-18 0 -42 11.5t-42 29.5q-33 29 -33 66q0 66 -1 109.5t-3 68.5q0 12 -1 21t-1 20zM393 244q0 -33 13.5 -59.5t50.5 -26.5q27 0 68.5 11 t72.5 50q27 33 53.5 85t26.5 99q0 20 -15.5 42t-38 39.5t-49 28.5t-49.5 11q-27 0 -45 -11t-49 -32q-12 -10 -10 -18t-4 -25q-8 -18 -8 -45q0 -20 1 -50t-1 -44q-2 -8 -9.5 -28.5t-7.5 -26.5zM475 791q4 -14 13.5 -16.5t21.5 -2.5q29 0 72 18.5t81.5 51t66.5 76t28 92.5 q0 20 -7.5 32.5t-19.5 21.5t-29.5 16t-37.5 18q-23 12 -49.5 19t-49.5 11q-37 6 -41 -7t-12 -38q-6 -18 -10 -47.5t-8.5 -60.5t-7.5 -56.5t-5 -31.5q-2 -10 -3 -17.5t-1 -17.5q0 -14 -2 -32.5t0 -28.5z" />
<glyph unicode="C" horiz-adv-x="983" d="M96 596q0 125 35 265t111.5 260t201.5 199t304 79q31 0 64.5 -9.5t64.5 -21.5q29 -10 50 -12t42 -19q23 -20 38 -50t15 -50q0 -55 -17.5 -106.5t-37.5 -73.5q-12 -14 -29.5 -14.5t-30.5 -0.5q-8 0 -24.5 3.5t-34 6.5t-31.5 7t-20 8q-18 14 -44 21.5t-77 7.5 q-37 0 -83 -22.5t-86 -76t-67.5 -142.5t-27.5 -222q0 -74 6 -133.5t26 -100.5q18 -35 49 -54t80 -19q35 0 67 3t65 15q23 10 61.5 27.5t58.5 17.5t36 -23.5t16 -35.5q0 -16 -10.5 -42t-24.5 -48q-10 -16 -23 -32t-31 -32q-20 -16 -43.5 -23.5t-56.5 -19.5 q-45 -18 -105.5 -37.5t-131.5 -19.5q-72 0 -136.5 34.5t-111.5 100.5q-49 68 -78 165t-29 220z" />
<glyph unicode="D" horiz-adv-x="1099" d="M57 115q0 27 8.5 43t18.5 28q8 12 12 19.5t6 19t6.5 29.5t12.5 49q6 23 11 47.5t5 52.5q0 23 4 60t8.5 80t9.5 87t9 81q2 16 9 54t15.5 84t15.5 92t11 81q0 12 1 35.5t1 46.5q0 27 2 59q4 29 5 49.5t16 73.5q4 16 27.5 34.5t50.5 22.5q10 2 23 3.5t28 1.5q18 0 27.5 -3.5 t25.5 -13.5q14 -10 31.5 -13t34.5 -3q29 0 59.5 7t77.5 7q80 0 155.5 -31.5t135 -96t96.5 -163t37 -229.5q0 -176 -55.5 -320.5t-144.5 -253t-201.5 -178t-225.5 -96.5q-53 -12 -104 -12q-23 0 -43.5 -9.5t-42.5 -9.5q-12 0 -27.5 6.5t-31 14.5t-28 18.5t-16.5 16.5 q-8 12 -31.5 27.5t-31.5 31.5q-12 25 -13 70zM420 353.5q2 -31.5 4 -52.5q2 -12 4 -23.5t18 -11.5q55 0 111.5 37t102 104.5t74 162t28.5 210.5q0 63 -19.5 117.5t-52.5 93.5q-10 14 -27.5 31.5t-31.5 28.5q-23 16 -39.5 17t-38.5 1q-6 0 -20.5 -5t-14.5 -15l-8 -131 q-6 -78 -14.5 -132.5t-18.5 -99.5t-19 -88t-18 -100q-4 -20 -9 -41t-9 -45q-4 -27 -2 -58.5z" />
<glyph unicode="E" horiz-adv-x="1015" d="M98 711q0 16 10.5 38.5t26.5 22.5q20 0 29.5 7t17.5 28q4 12 8.5 27.5t8.5 31.5q10 35 16 69t6 46q0 47 8.5 73.5t12.5 43.5q6 25 -5.5 43t-31.5 28t-29.5 43t-9.5 64v51.5t18 32.5q16 10 49 24.5t62 14.5q14 0 33.5 -1t36.5 -3q20 -2 41 -2q47 -14 100 -30.5t102 -16.5 h55.5t40 1t33 2t37.5 1q31 2 58.5 3t52.5 1q16 0 36.5 -24.5t39.5 -53.5q12 -20 28.5 -37.5t24.5 -34.5q10 -20 15 -29.5t5 -27.5q0 -10 -3 -23.5t-13 -31.5q-6 -10 -33 -15.5t-47 -5.5q-25 0 -68 1t-90 3q-25 0 -58.5 5t-67 10.5t-62.5 9.5t-43 4q-25 0 -30 -12.5t-1 -26.5 q4 -12 0 -28.5t-11 -33t-15.5 -32t-10.5 -27.5q-11 -43 -23 -87q-7 -23 -6 -41q0 -15 5 -25q10 -23 27.5 -26t52.5 -3q41 0 68.5 5t86.5 5q14 0 37 -7t42.5 -18.5t33.5 -26.5t14 -34q0 -23 -17.5 -44t-35.5 -50q-16 -29 -34.5 -59.5t-55.5 -30.5q-51 0 -88 1t-62 3 q-29 2 -49 4q-29 0 -39 -6t-10 -37q0 -33 3 -87t21.5 -108.5t57.5 -95.5t111 -47q14 0 41.5 -3t58.5 -7t61.5 -9.5t48.5 -7.5q8 0 30 -18t28 -41t6 -32v-17q0 -14 -15.5 -25.5t-39.5 -27.5q-23 -14 -57.5 -33t-51.5 -19q-31 0 -50 1t-34.5 2.5t-30 3.5t-34.5 4q-33 4 -64 6 t-67 2q-33 0 -73 14.5t-80 45t-76 76.5t-58 110q-10 29 -22.5 60.5t-14.5 66.5q-4 76 -4 141v139q0 23 -3 35t-7 27q-2 6 -4.5 19t-4.5 26.5t-4 26t-2 16.5z" />
<glyph unicode="F" horiz-adv-x="995" d="M84 78q0 49 3 82t7 55q2 14 3 23.5t1 23.5q0 16 6.5 57t16.5 91q10 55 19.5 108t9.5 86q0 6 1 15.5t3 19.5q2 16 4 32.5t2 39.5t6 65.5t16 93.5q10 59 20.5 129t14.5 138q2 18 -4 43.5t-6 42.5q0 20 -21.5 40.5t-23.5 47.5q-2 14 0 46t8 48q8 20 15.5 32.5t19.5 18.5 t35.5 7t66.5 1q18 0 48 1t62 3t61.5 3.5t49.5 1.5q66 0 118 -6.5t95 -10.5q31 -4 58.5 -6t54.5 -2t47.5 -24.5t42.5 -51.5q23 -29 44.5 -51.5t21.5 -44.5q0 -90 -103 -90q-25 0 -67.5 1t-89.5 3q-49 2 -85 4t-65 2q-37 0 -53.5 -7t-26.5 -44q-4 -14 -13 -32.5t-11 -22.5 q-6 -20 -8.5 -28.5t-2.5 -14t1 -11.5t1 -24q0 -10 8.5 -13.5t19.5 -2.5t25.5 3t30.5 2q23 0 51.5 -3t57.5 -7t50.5 -7t53.5 -3q35 0 52.5 -33t31.5 -67q10 -29 16.5 -58.5t6.5 -46.5q0 -8 1 -17t-9.5 -16.5t-39 -11.5t-87.5 -4q-27 0 -53.5 -2t-43.5 2q-18 4 -40.5 7 t-61.5 3q-29 0 -56.5 -18.5t-35.5 -46.5q-6 -25 -16.5 -76t-19.5 -110.5t-17.5 -117t-14.5 -96.5q-6 -45 -17 -93t-11 -95q0 -35 -8.5 -49.5t-18.5 -26.5q-4 -6 -16.5 -18.5t-27.5 -24.5t-33.5 -21.5t-35.5 -9.5q-18 0 -47.5 10.5t-56.5 28.5q-35 25 -38 46.5t-3 58.5z" />
<glyph unicode="G" horiz-adv-x="1058" d="M76 616q0 109 28.5 221.5t90 212t158 176.5t231.5 111q39 10 63.5 15.5t67.5 5.5q29 0 59.5 -7.5t56.5 -13.5q27 -8 39.5 -14t28.5 -23q35 -27 63.5 -57.5t49.5 -71.5q8 -16 10 -52v-6q0 -33 -21 -62q-12 -18 -31.5 -28.5t-41 -17t-42 -7.5t-32.5 -1q-16 0 -28.5 6.5 t-22.5 12.5q-18 14 -47 26.5t-80 12.5q-37 0 -86 -12.5t-93 -54.5t-75 -122t-31 -213q0 -41 2 -95t10 -85q10 -43 32 -58.5t44 -35.5q39 -33 84 -33q49 0 72.5 39t38.5 88q16 59 22 105.5t4 62.5q4 41 13.5 59.5t17.5 53.5q18 67 54 67h1q18 0 41 -1t45 -5q16 -4 25.5 -6 t17 -6t13.5 -11.5t18 -19.5q10 -10 20.5 -32.5t14.5 -32.5q6 -16 10 -34t4 -42q0 -14 -5 -33.5t-9 -42.5l-12 -61q-14 -72 -24.5 -133.5t-16.5 -117t-8 -108.5t-2 -108q0 -29 -13.5 -61t-32.5 -48q-10 -10 -26.5 -24.5t-42.5 -22.5q-16 -4 -25.5 -7t-17.5 -5t-18.5 -3 t-26.5 -1q-31 0 -33 10t-18 26q-10 10 -22.5 18.5t-16.5 24.5q-8 23 -9 58q0 29 5.5 48t7.5 64q0 12 -4 20.5t-21 0.5q-12 -6 -37.5 -18.5t-53.5 -23.5t-50.5 -19.5t-26.5 -8.5q-61 0 -97 17.5t-81 72.5q-31 37 -63.5 89.5t-59 114t-43 130t-16.5 137.5z" />
<glyph unicode="H" horiz-adv-x="1167" d="M87 133q-3 29 1 62q6 33 15.5 74.5t18.5 86.5t16 89t9 79q0 12 3.5 42t8.5 66t9 68.5t8 51.5q18 86 31.5 161.5t17.5 135.5q2 20 2 41.5v42.5v34.5t2 30.5q4 23 8.5 38t10.5 32l16 47q10 27 32.5 44t51.5 27q31 10 63.5 11.5t53.5 1.5q39 0 53 -23.5t14 -105.5 q0 -129 -11 -260t-42 -267q-2 -8 3 -28.5t24 -24.5q70 -10 109.5 -14t82.5 -4q10 0 27.5 5t22.5 28q4 16 9 40.5t10 52t10 54.5t9 49q16 96 29.5 176t24.5 152q10 63 35.5 79.5t54.5 16.5q18 0 44.5 -2t55.5 -12q39 -14 66.5 -37t27.5 -39q0 -27 -4 -68t-10 -88t-14.5 -95 t-14.5 -89q-8 -47 -11 -82t-5 -45q-10 -72 -14 -113q-1 -5 -1 -11q0 -33 23 -52q23 -18 30 -43t7 -51q0 -16 -14.5 -32.5t-30.5 -31.5q-16 -16 -27.5 -25.5t-21.5 -9.5q-6 0 -10.5 -9t-5.5 -23.5t-3 -29.5t-4 -28q-10 -41 -18 -75.5t-8 -59.5q0 -4 -2 -16.5t-3 -27.5 t-3.5 -27.5t-2.5 -16.5q-2 -10 3.5 -23.5t-5.5 -37.5q-4 -8 -22.5 -21.5t-41 -26t-45 -21.5t-32.5 -9q-66 0 -106 47q-29 33 -41.5 81t-12.5 99q0 4 4.5 18.5t8.5 30.5q6 20 15 60.5t17 103.5q0 4 -7 19.5t-21 15.5q-27 0 -58.5 4t-61.5 13.5t-53.5 22.5t-31.5 34 q-10 25 -17.5 25.5t-25.5 -21.5q-12 -14 -19.5 -44t-11.5 -53q-6 -43 -9 -106.5t-3 -108.5q0 -59 3 -89.5t7 -51.5q0 -4 1 -16.5t1 -25.5v-23.5v-12.5q0 -31 -10 -48t-24.5 -26.5t-31 -12.5t-26.5 -3q-70 0 -100.5 12.5t-48.5 38.5q-14 18 -26.5 28.5t-19.5 25.5 q-14 31 -14 58.5v45.5q0 16 -3 45z" />
<glyph unicode="I" horiz-adv-x="591" d="M98 221q0 23 1 47.5t5 42.5q12 45 19.5 86t11.5 88q6 61 7 107.5t8 77.5q4 23 12 83t12 119q2 33 8 80t12.5 93.5t11.5 84t5 52.5q0 12 1 25.5t3 25.5q2 14 6 29q4 20 4 34q2 16 4 33t15 51q12 43 106 43q33 0 45.5 -6t36.5 -24q18 -14 28.5 -34t28.5 -40 q16 -18 21.5 -45t5.5 -55q0 -16 -5 -57.5t-13 -90.5q-4 -35 -9.5 -67.5t-9.5 -63.5q-4 -35 -9 -58.5t-9 -44t-9.5 -42t-11.5 -52.5q-18 -88 -33.5 -176t-15.5 -178q0 -41 -1 -64.5t-3 -54.5q-2 -18 -3 -49.5t-9 -70.5q-4 -23 -24.5 -45.5t-45 -40t-50.5 -27.5t-40 -10 q-31 0 -46 8t-34 35q-20 27 -28.5 71.5t-8.5 79.5z" />
<glyph unicode="J" horiz-adv-x="1024" d="M18 279v60t7.5 38.5t22.5 26t46 22.5q12 6 23.5 10t24 8.5t28.5 6.5t43 2q10 0 29.5 -16.5t21.5 -41.5q4 -51 21.5 -85t42 -54t53.5 -29.5t53 -9.5q53 0 86 69.5t47 241.5q2 37 8.5 105.5t11.5 150.5t9 169t4 161q0 49 14.5 91t35 74t42 50.5t35.5 18.5q4 0 26.5 -6.5 t49 -14.5t49 -17.5t29.5 -15.5q4 -6 10 -20t12 -32.5t10.5 -37t4.5 -28.5q0 -23 2 -60v-13q0 -30 -7 -56q-4 -18 -8 -40t-6 -44.5t-3 -43t-1 -32.5q0 -31 -4 -49.5t-8 -43t-9.5 -63.5t-11.5 -113q0 -14 -3 -35.5t-6 -45t-6 -46t-5 -36.5l-21 -123q-6 -41 -12 -70 t-15.5 -52.5t-21.5 -45t-31 -47.5q-31 -41 -75.5 -76t-79.5 -47q-25 -10 -57.5 -28.5t-49.5 -24.5q-29 -10 -61.5 -13.5t-75.5 -3.5q-96 0 -158.5 39t-99.5 94.5t-51.5 115.5t-14.5 106z" />
<glyph unicode="K" horiz-adv-x="1204" d="M92 156.5v24t4 34.5q4 29 12.5 68t10.5 55q0 6 4 26.5t9 43t9 43t4 26.5q8 49 17.5 86t16.5 69t12.5 60.5t9.5 61.5q2 25 5 54.5t7 62t9 63.5t11 57q4 20 11 43q4 18 10 41t10 45q10 45 17.5 77t17.5 85q6 39 14.5 65.5t14.5 61.5q2 18 9 39.5t20.5 40t36 31t57.5 12.5 t81 -21q23 -10 41.5 -23t44.5 -42q18 -20 22.5 -35.5t4.5 -38.5q0 -16 -3 -44t-11 -56q-4 -12 -18.5 -51t-31 -84t-29.5 -89t-13 -65q0 -10 2 -19.5t20 -9.5q6 0 29.5 22.5t52.5 51.5t57.5 58.5t49.5 46.5q18 14 39.5 37.5t44 48t46 48t44.5 36.5q35 23 64.5 45t47.5 22 q25 2 35 -2t45 -25q16 -10 39 -43.5t35 -48.5q27 -29 23.5 -49t-3.5 -31q0 -12 -28.5 -49t-71.5 -71q-35 -31 -79 -64t-107 -67q-113 -66 -181.5 -131.5t-68.5 -124.5t17.5 -117t84.5 -107q27 -18 57.5 -45.5t59.5 -44.5q45 -25 78 -48t65 -38q29 -12 47.5 -31.5t18.5 -42.5 t-27.5 -39t-75.5 -16q-47 0 -102 12q-41 10 -81 31t-81 37q-37 14 -82 32.5t-86 36t-72.5 34t-43.5 28.5q-20 20 -31.5 18t-18.5 -49q0 -6 -5 -22.5t-9 -35.5t-9 -37.5t-5 -31.5q0 -6 -4 -20t-8.5 -30.5t-8.5 -32t-4 -21.5q-2 -10 -18.5 -40t-34.5 -48q-16 -18 -22.5 -21.5 t-16.5 -3.5q-23 0 -62.5 7.5t-62.5 29.5q-37 37 -37 82q0 27 -1 41t-1 25.5z" />
<glyph unicode="L" horiz-adv-x="788" d="M109 193q0 10 1 30.5t2 42t2 40t1 28.5q4 23 7 43t7 49q2 18 5 49t6 63.5t6.5 62.5t5.5 42q8 51 19 107.5t15 87.5q16 117 26.5 236.5t16.5 207.5q4 20 4 35q2 16 4.5 32.5t14.5 51.5q6 20 34.5 40.5t75.5 20.5q35 0 59.5 -7t49.5 -25q18 -14 28.5 -34t24.5 -48 q6 -10 5 -29t-4 -40.5t-7 -40.5t-4 -34q0 -16 -1 -39.5t-9 -72.5q-2 -16 -9.5 -50t-15.5 -71t-14 -70t-8 -47q-4 -35 -9.5 -75t-10.5 -78.5t-10 -71.5t-7 -51q-8 -43 -13.5 -74t-8.5 -58.5t-5 -57.5t-2 -75q0 -41 11.5 -48t19.5 -7h48t55.5 1t50 5t34.5 12t33 16.5 t43.5 14.5t42 9t27.5 3q4 0 15 -4t23.5 -12t20.5 -20.5t6 -26.5q-4 -43 -18.5 -62.5t-14.5 -25.5q0 -27 -8 -41t-23.5 -25.5t-35 -21t-39.5 -23.5q-25 -16 -39 -24t-24.5 -12.5t-20.5 -6.5t-29 -6q-23 -6 -57.5 -12t-70 -11t-68.5 -8.5t-51 -3.5q-25 0 -53.5 2t-56.5 12.5 t-50.5 29t-32.5 53.5q-8 29 -14 58.5t-6 64.5z" />
<glyph unicode="M" horiz-adv-x="1415" d="M52.5 102.5q2.5 20.5 2.5 47.5q0 20 5.5 46.5t11.5 53.5q4 18 8 37.5t8 38.5q14 92 22.5 175t24.5 185q8 55 14.5 86t11.5 54.5t10 45t11 58.5q10 61 27.5 122.5t35 116t31 94.5t15.5 58q4 23 8 38t10 32l17 47q8 25 18 39t20.5 23t19.5 15.5t15 14.5q10 12 27.5 17t35 6 t34 -1t22.5 -4q14 -4 27.5 -15t23 -26.5t15.5 -29t8 -19.5q10 -47 19.5 -85t19.5 -70q18 -66 31.5 -113t23.5 -88q6 -25 14.5 -52.5t17.5 -55t16 -51t11 -40.5q10 -37 23.5 -31.5t28.5 33.5q6 10 10 15.5t10 13.5t16.5 25.5t26.5 54.5q8 18 21.5 53t28 73t27.5 73.5t24 54.5 q20 39 39.5 74.5t41.5 70.5q14 23 23.5 35t17 20.5t16.5 15.5t21 19q14 14 43 23.5t88 9.5q18 0 35 -17.5t28 -39t18 -42t7 -26.5q6 -41 8.5 -125t4.5 -182q0 -111 -7.5 -200t-7.5 -197q0 -57 -1 -102.5t-3 -86.5t-5 -80t-9 -82q-6 -47 -10 -83.5t-4 -57.5 q0 -29 -12.5 -59.5t-35.5 -53.5q-27 -27 -58.5 -37t-51.5 -10q-84 0 -109.5 15.5t-25.5 44.5q0 66 2 94.5t2 48.5q0 14 2 39t6 41t5 36.5t1 47.5q0 29 4 73t8 93q2 27 7.5 64.5t10.5 76.5t8 74t3 55q0 49 -18.5 44t-34.5 -38q-20 -43 -38.5 -76.5t-35 -63.5t-32 -60.5 t-27.5 -67.5q-10 -27 -27.5 -59.5t-39 -61.5t-45 -48t-42.5 -19q-47 0 -86 24q-16 10 -29.5 24.5t-19.5 35.5q-6 18 -15.5 56l-19.5 78t-18 75.5t-11 48.5q0 6 -6 22t-14 34.5t-14 36t-6 23.5q-4 25 -18.5 37t-24.5 -26q-6 -23 -12.5 -67t-10.5 -67q-4 -12 -7 -38.5 t-6 -57.5t-6.5 -59.5t-5.5 -46.5q-2 -33 -12 -74q-2 -12 -6 -30.5t-9 -39t-9.5 -40t-8.5 -33.5q-10 -37 -13 -81t-7 -73v-20.5t2 -35t3 -35t1 -18.5q0 -29 -47 -57q-16 -10 -40 -21.5t-36 -11.5q-10 0 -31.5 8.5t-44 20.5t-44 26.5t-29.5 26.5q-20 29 -17.5 49.5z" />
<glyph unicode="N" horiz-adv-x="1239" d="M70 49v56t8 61q6 23 15 60.5t13 60.5l11 41q10 45 23.5 101t13.5 106v31.5v20.5t1 21.5t3 32.5q2 29 5 58.5t5 58.5t11 83t22 113q2 10 8 43t12 70t10.5 68.5t1.5 40.5q2 8 3.5 36.5t1.5 40.5q0 8 13 36t31.5 58.5t38 55t33.5 24.5q82 0 138 -26q27 -12 42 -31.5 t25 -46.5q35 -86 56.5 -164t39.5 -143q8 -29 16.5 -74t17.5 -94t20.5 -94t25.5 -74q14 -33 23.5 -23.5t15.5 35.5q6 25 13.5 63t15.5 80t14 84t12 76q6 39 9.5 70t7.5 57q4 27 9 49.5t5 49.5q0 20 23.5 43.5t58.5 45t74 36t69 14.5q41 0 74 -32t33 -62q0 -25 -7 -65 t-18.5 -84t-24 -90t-22.5 -85q-35 -121 -57 -262q-12 -84 -26.5 -149.5t-18.5 -147.5q-2 -20 -4 -45t-4 -49.5t-5.5 -47t-5.5 -36.5q-8 -53 -18 -86t-20 -62q-4 -14 -21.5 -31.5t-38 -31.5t-42 -24.5t-36.5 -10.5q-18 0 -39.5 11.5t-41 30.5t-35 44t-23.5 51q-27 84 -38 130 t-15 75q-8 45 -23.5 72.5t-27.5 58.5q-16 39 -32 80t-29 78t-22.5 64.5t-13.5 37.5q-16 37 -23 35t-16 -31q-16 -53 -21 -99t-8 -96t-6 -108.5t-12 -138.5q-2 -12 -9 -47t-15 -74t-15.5 -71.5t-7.5 -45.5q0 -35 -27.5 -56t-50.5 -21q-37 0 -72.5 9t-65.5 24.5t-47 35 t-17 41.5z" />
<glyph unicode="O" horiz-adv-x="1038" d="M68 414q0 262 67.5 485t179.5 367q70 88 131.5 137t151.5 49q33 0 56.5 -16.5t43.5 -26.5q27 -14 54.5 -35.5t27.5 -44.5q0 -25 10.5 -27t28.5 -2q20 0 40 -3t42 -25q37 -37 62 -125q10 -35 22 -84t12 -102q0 -82 -18 -165t-31 -145q-10 -47 -17 -84t-16.5 -70.5 t-23 -66.5t-33.5 -70q-45 -82 -92 -149.5t-101.5 -115.5t-117 -74.5t-137.5 -26.5q-92 0 -157 29.5t-106 85t-60 133t-19 172.5zM348 410q0 -68 33 -114t76 -46q20 0 37.5 8t34 30.5t33 59.5t38.5 96q12 35 31.5 76t25.5 64q12 41 23.5 68.5t20 63.5t13.5 87t5 137 q0 41 -11.5 58.5t-23.5 33.5q-6 6 -12 19.5t-12.5 30t-11.5 31.5t-9 26q-4 12 -6 16t-5 4t-9.5 -2t-18.5 -2q-35 0 -71.5 -56.5t-68.5 -133t-55.5 -158.5t-31.5 -131q-10 -57 -17.5 -129t-7.5 -137z" />
<glyph unicode="P" horiz-adv-x="1015" d="M80 37q0 72 11 109.5t15 64.5q0 10 8.5 54t17.5 101.5t18.5 120t13.5 111.5q2 45 8 89t12 82t11.5 65.5t5.5 37.5q0 113 45 219.5t110.5 190.5t140 135t134.5 51q72 0 116 -9t72.5 -26.5t50 -41t50.5 -52.5q29 -31 45 -62.5t24 -66t10 -76.5t2 -96q0 -59 -18 -127.5 t-50 -137t-75 -133.5t-92 -116q-35 -37 -68.5 -70.5t-64.5 -50.5q-20 -10 -39 -10h-35q-14 0 -31.5 1t-46.5 18q-10 6 -21 1t-14 -18q0 -4 -4 -24.5t-9 -44t-9 -46t-6 -28.5q-4 -14 -5 -28.5t-3 -39t-5.5 -64.5t-9.5 -106q-4 -47 -20 -72.5t-45 -37.5q-31 -14 -56.5 -25.5 t-50.5 -5.5q-29 8 -59.5 28.5t-46.5 37.5q-16 14 -26.5 44.5t-10.5 53.5zM473 678q0 -18 3 -26.5t20 -8.5q24 0 57 27q31 23 53 55q23 29 45.5 74t40 92t28.5 87t11 60q0 125 -74 125q-35 0 -63.5 -25.5t-49 -67.5t-34.5 -98.5t-23 -117.5q-8 -59 -11 -106.5t-3 -69.5z" />
<glyph unicode="Q" horiz-adv-x="1050" d="M68 455q0 211 34.5 393t108.5 316t187.5 211t271.5 77q16 0 41.5 -7t42.5 -24q8 -8 19 -22.5t11 -34.5q0 -14 -1 -23.5t3 -37.5q4 -14 13.5 -18.5t13.5 -4.5q29 0 49.5 -1t42.5 -5q10 -2 24.5 -11.5t16.5 -23.5q4 -20 12.5 -27.5t14.5 -23.5q12 -35 23.5 -101.5 t11.5 -125.5q0 -74 -17.5 -147t-44 -141.5t-61.5 -134t-68 -126.5q-14 -23 -26.5 -52.5t-26.5 -60.5q-10 -16 -13 -35.5t-3 -36.5q0 -47 23.5 -92t59 -87t75.5 -80t73 -70q31 -31 44 -55t13 -44q0 -12 -18.5 -20t-40.5 -8q-23 0 -48.5 6t-45.5 12q-23 8 -45.5 7t-42.5 9 q-29 16 -42.5 35t-35.5 37q-43 35 -88 75t-74 99q-10 16 -15 18.5t-22 2.5q-10 0 -26.5 -6.5t-34 -12.5t-36 -12t-32.5 -6q-92 0 -153.5 29.5t-98.5 85t-53 133t-16 172.5zM338 469q0 -35 1 -71t7 -66.5t19.5 -50t37.5 -19.5q4 0 15.5 2t11.5 8t-6 20.5t-6 24.5 q2 23 15 39.5t31.5 28.5t38 23.5t32.5 23.5q23 23 43 56.5t32 60.5q8 16 15.5 48t15.5 48q16 35 29.5 66.5t21.5 66.5t12.5 74t4.5 88q0 18 -5.5 29.5t-13.5 21.5t-15 23.5t-7 36.5v21t4 28l9 22.5t5 20.5q0 25 -5 26.5t-28 1.5q-49 0 -104 -50t-102.5 -141t-78 -221 t-30.5 -290z" />
<glyph unicode="R" horiz-adv-x="1112" d="M80 129q0 72 4 104.5t12 57.5q6 20 10.5 43.5t8.5 46.5q14 68 26.5 139.5t12.5 141.5q0 31 7 78.5t15 96t16.5 88.5t12.5 52q29 104 68.5 184t93.5 139q43 49 80.5 86t91.5 62q31 16 63.5 25.5t67.5 17.5q39 8 76.5 12t78.5 4t81 -15t72 -49t51.5 -88.5t19.5 -129.5 q0 -94 -29 -185q-25 -80 -72 -138t-106 -107q-27 -23 -55.5 -63t-61.5 -62q-16 -12 -33.5 -25.5t-23.5 -23.5q-8 -16 -6 -23.5t8 -19.5q33 -59 95 -120t136 -110q16 -10 41 -25.5t50.5 -31t50 -29.5t40.5 -20q45 -18 59.5 -29.5t14.5 -34.5q0 -18 -21.5 -23t-39.5 -5 q-12 0 -41 -9.5t-51 -7.5q-31 4 -66 15.5t-57 21.5q-18 6 -35 9t-34 5t-34.5 7.5t-36.5 15.5q-88 49 -151.5 103.5t-104.5 95.5q-10 10 -24.5 18t-14.5 -14q0 -4 -7 -32t-15 -60.5t-15.5 -63.5t-9.5 -39q-4 -29 -11 -53.5t-23 -65.5q-20 -49 -43 -74.5t-44.5 -38t-40 -14.5 t-30.5 -2q-18 4 -37 13q-16 6 -33.5 15t-27.5 19q-10 8 -15.5 24.5t-8.5 34t-4 34t-1 22.5zM471 913q0 -33 13.5 -59.5t50.5 -26.5q23 0 29.5 5.5t10.5 19.5q6 20 28 31.5t38 31.5q14 18 35.5 43t41 55.5t34 66.5t14.5 77t-16.5 65.5t-63.5 24.5q-25 0 -61.5 -36.5 t-70.5 -89t-58.5 -110t-24.5 -98.5z" />
<glyph unicode="S" horiz-adv-x="940" d="M63 109q0 8 1.5 13t4.5 10t7 12.5t10 21.5q8 18 24.5 21t36.5 3q23 0 39.5 8.5t63.5 8.5q27 0 61.5 2t57.5 2q41 0 70.5 35t29.5 78q0 29 -12.5 54t-48.5 79q-16 23 -39 54.5t-52 76.5q-27 39 -48 90t-35.5 103.5t-21.5 102.5t-7 91q0 66 3 119t32 102q78 141 184 220 t225 79h64t67.5 -3t61 -8t47.5 -14q39 -20 55.5 -52t16.5 -64q0 -12 -6.5 -44t-30.5 -57q-29 -29 -44.5 -45t-33.5 -16q-10 0 -26.5 2l-33 4t-32 5t-23.5 3q-23 2 -42 8.5t-66 6.5q-12 0 -30 -13.5t-33 -33t-26.5 -44t-11.5 -47.5q0 -53 -2 -93q-1 -27 -1 -50v-24 q1 -34 9.5 -67.5t28.5 -72.5q20 -41 59 -93t70 -101q59 -94 76.5 -154.5t17.5 -122.5q0 -41 -25.5 -92t-65.5 -95t-90 -74t-99 -30t-84 3t-64 10q-16 4 -33.5 8t-31.5 8q-16 4 -28.5 4t-29.5 4q-31 4 -58.5 9.5t-45.5 9.5q-35 6 -48.5 13t-13.5 26z" />
<glyph unicode="T" horiz-adv-x="1079" d="M104 1212q0 25 7.5 64t25 76t47 63.5t74.5 26.5q47 0 87 3t99 3q104 0 207 -8t193 -13q35 -2 59.5 -2h32.5q35 0 49 -11t37 -40q25 -33 41 -72.5t16 -54.5q0 -8 -6 -18t-13 -19.5t-15.5 -16.5t-14.5 -7q-41 0 -74.5 -8.5t-76.5 -12.5q-18 -2 -26.5 -3t-12.5 -2t-11.5 -2 t-21.5 -1q-20 0 -33.5 -11t-17.5 -28q-8 -35 -15.5 -76t-11.5 -81q-10 -72 -23.5 -140.5t-23.5 -136.5q-16 -104 -32.5 -215t-39.5 -217q-6 -29 -10 -58.5t-20 -82.5q-6 -23 -19.5 -40.5t-25.5 -23.5q-16 -8 -39 -24.5t-52 -10.5q-23 4 -58.5 8.5t-53.5 18.5 q-31 23 -43.5 46.5t-12.5 57.5q0 29 -1 51.5t10 43.5q4 10 10 35.5t8 35.5q10 74 18.5 125t20.5 111q12 61 20.5 104t14.5 80t12 76t14 94q8 47 16.5 105.5t8.5 117.5q0 6 -5 15.5t-15 9.5h-51.5t-19.5 -1l-10 -2t-26 -1q-35 -2 -64.5 -2h-58.5q-45 0 -59.5 18.5t-14.5 52.5 z" />
<glyph unicode="U" horiz-adv-x="1196" d="M98 516q0 49 1 91t3 81q2 31 2 59.5v57.5q0 33 8.5 82t16.5 103t12 112q1 19 1 37q0 36 -5 69q-1 12 -1 23q0 36 14 69q20 43 57 72q16 12 29.5 20.5t17.5 18.5q10 18 28.5 24.5t63.5 6.5q31 0 39 -9.5t23 -41.5q10 -23 27.5 -62t17.5 -82v-26.5t-2 -32.5 q-2 -23 -4.5 -59.5t-2.5 -63.5q0 -6 -1 -20.5t-2 -31t-3 -30.5t-2 -18q-6 -25 -8 -38.5t-3 -25.5t-2 -27.5t-3 -44.5q-4 -31 -8 -73.5t-7.5 -88.5t-6.5 -89t-3 -70q0 -39 -5 -57.5t1 -47.5q4 -16 4 -35.5t11 -48.5q6 -18 9 -33.5t13 -27.5t30.5 -19.5t63.5 -7.5 q37 0 69 19.5t56.5 47.5t42 56.5t25.5 48.5q14 35 25.5 81t21.5 96.5t19.5 100.5t19.5 93q4 18 11 51t13 68t13.5 65.5t11.5 49.5q10 35 11 69.5t7 79.5q12 88 47 131q16 23 36 23h46q16 0 37 -1t27 -10q23 -23 37 -42t35 -41q16 -16 23 -43t7 -46q0 -51 -7 -108 t-16.5 -108.5t-20.5 -92.5t-17 -59q-14 -39 -22.5 -93.5t-28.5 -111.5q-18 -55 -40 -122.5t-50.5 -135.5t-66.5 -133.5t-92 -114.5t-126 -79.5t-166 -30.5q-115 0 -192.5 27.5t-127 94t-71 178t-21.5 277.5z" />
<glyph unicode="V" horiz-adv-x="1085" d="M47 1241q0 18 5 42t7 38q4 35 11.5 48t44.5 13q53 0 84.5 -1t60.5 -15t52.5 -36.5t29.5 -39.5q2 -6 5 -26.5t6 -45t5 -49t2 -36.5q0 -45 4.5 -97.5t10.5 -99.5q6 -53 10 -94t7 -78t6 -71t8 -68q6 -41 9 -84t6 -81t8 -66.5t11 -41.5q10 -16 25.5 -29.5t32.5 17.5 q31 61 71.5 123.5t57.5 122.5q10 41 23.5 78.5t23.5 76.5q25 106 50.5 215t43.5 250q4 41 13.5 67.5t15.5 45.5q10 25 35.5 37t54.5 16q17 3 32 3q19 0 37 -5q30 -8 68 -43q16 -14 27.5 -36.5t19.5 -59.5q4 -14 7 -26.5t3 -28.5q0 -33 -13 -79t-19 -77q-6 -41 -16.5 -81 t-21 -76t-19.5 -65.5t-13 -45.5q-35 -115 -86 -246t-112.5 -246t-130 -195.5t-134.5 -95.5q-20 -4 -43.5 -15t-52.5 -20q-29 -10 -57.5 -14t-43.5 -4q-45 0 -71.5 59.5t-44 142.5t-26.5 173t-21 151q-18 98 -27.5 180.5t-13.5 153.5q-6 72 -16.5 140.5t-26.5 164.5l-15 90 q-4 16 -7 31t-3 39z" />
<glyph unicode="W" horiz-adv-x="1386" d="M61 479v148v65q0 115 11.5 232.5t21.5 205.5q6 47 10.5 84t4.5 58q0 59 23.5 106t60.5 47q41 0 65.5 -1t39.5 -4t27.5 -10t28.5 -17q25 -16 43.5 -48t16.5 -45q0 -6 3 -36.5t-5 -59.5q-10 -35 -19.5 -69.5t-9.5 -69.5q0 -29 -4 -73t-8 -93q-4 -27 -6.5 -58.5t-3.5 -63.5 t-2 -60.5t-1 -48.5q0 -49 9.5 -50.5t29.5 41.5q25 39 47 76q18 31 37 63.5t27 55.5q14 41 33.5 78t39 67.5t36 54t22.5 36.5q12 23 27.5 28.5t25.5 5.5q20 0 42 -12t41.5 -30.5t34.5 -41t21 -43.5q10 -33 24.5 -69.5t27.5 -67.5q4 -12 12 -33.5t16.5 -44t14.5 -42t6 -27.5 q4 -58 20 -58q15 0 31 66q2 12 7 32.5t11.5 43t12.5 43t8 32.5q0 4 7 40t14.5 82t13.5 90t6 65q0 53 2 95t4 83q2 35 16.5 72t49.5 53q18 10 57 12q13 1 25 1q25 0 47 -3q27 -4 45 -20.5t30.5 -37t18.5 -42t6 -33.5v-34.5v-52.5t-2 -53.5t-4 -37.5q-10 -41 -17 -78 q-10 -70 -17 -110.5t-14 -67.5t-14.5 -49.5t-15.5 -54.5q-10 -37 -23.5 -107t-33.5 -166q-18 -92 -38 -159.5t-38.5 -115.5t-33.5 -83t-28 -62q-8 -16 -19 -35.5t-15 -23.5q-12 -20 -21.5 -45t-40.5 -29q-27 -2 -54.5 6.5t-52 25.5t-42 43t-23.5 60q-12 78 -44 155t-46 140 q-10 53 -25.5 104.5t-19.5 86.5q-4 27 -14.5 31t-28.5 -37q-4 -6 -19.5 -28t-35 -45.5t-36 -46t-22.5 -32.5q-29 -53 -50 -92t-38.5 -73t-36 -70.5t-41.5 -86.5q-12 -25 -28.5 -47t-34.5 -39.5t-33.5 -27.5t-23.5 -10q-51 0 -83 17t-50.5 40.5t-24.5 47.5t-8 34 q-4 33 -7.5 89t-4.5 124.5t-1 144.5z" />
<glyph unicode="X" horiz-adv-x="1030" d="M12 90q0 29 7.5 52.5t25.5 58.5q4 8 35 45t65.5 80t66.5 79.5t40 45.5q23 31 40 51t30.5 37.5t24.5 32t24 32.5q16 27 14 37t-20 39q-10 14 -22.5 35.5t-23.5 44.5l-26 53q-14 29 -43 88.5t-72 138.5q-10 20 -25.5 57.5t-31 77t-26.5 76.5t-11 56q0 14 2 32.5t8 34 t17.5 26.5t29.5 11q20 0 46 1t61 -9t71.5 -28.5t49.5 -45.5q4 -10 16 -31.5t25.5 -46t26 -47t18.5 -35.5l20 -46t14 -44q6 -37 11.5 -59.5t9.5 -36.5t8 -23.5t10 -19.5q0 -2 6.5 -15.5t8.5 -15.5q10 -14 18 -19t31 11q10 8 21.5 24.5t27.5 32.5q16 20 28.5 33t24.5 53 q4 14 15.5 36t23.5 46q20 41 39 76t23 76q2 18 12 47t24.5 57.5t28.5 49t25 20.5q25 0 35 -2t17 -5t15.5 -5t24.5 -2t34.5 -8.5t37.5 -32.5q10 -14 23 -37t13 -45q0 -51 -28.5 -135t-79.5 -182.5t-121 -203t-151 -196.5q-2 -2 -8.5 -17.5t3.5 -31.5q27 -41 38.5 -65.5 t21.5 -49.5q16 -41 27.5 -71.5t22.5 -56t21.5 -49.5t22.5 -50q23 -47 37 -71.5t14 -69.5q0 -20 -14 -48t-37 -38q-27 -14 -55.5 -8.5t-48.5 5.5q-29 0 -63 41t-71 144q-10 29 -35.5 81t-45.5 105q-14 37 -22.5 41t-29.5 -29q-12 -20 -33.5 -44.5t-44 -48t-41 -44 t-24.5 -33.5q-14 -29 -32.5 -49t-24.5 -26q-18 -18 -29.5 -32.5t-21 -27t-21.5 -25t-33 -26.5q-12 -10 -44 -17t-48 -7q-6 0 -18.5 12t-24.5 28.5t-21.5 36t-9.5 33.5z" />
<glyph unicode="Y" horiz-adv-x="1005" d="M59 1316.5q-4 22.5 0 39.5q4 16 14.5 19t32.5 3q4 0 29 5.5t49 2.5q18 -2 31.5 -9t36.5 -11q12 -2 28.5 -9t24.5 -11q18 -10 28.5 -21.5t14.5 -32.5q8 -35 15.5 -48t11.5 -48q2 -20 7 -66.5t11 -97.5t13.5 -96t13.5 -66q16 -45 33.5 -73.5t42.5 -69.5q14 -23 23 -15.5 t16 17.5q10 16 24 45t29.5 64.5t29 76.5t21.5 82q4 20 14.5 44t20.5 46q12 25 22.5 48.5t14.5 40.5q8 39 26.5 69.5t32.5 59.5q10 20 29.5 28t36.5 8q37 0 58 1t44 -7q18 -6 31.5 -20.5t31.5 -40.5q10 -16 14.5 -29.5t4.5 -36.5q0 -18 -11.5 -52t-26.5 -70.5t-31.5 -71.5 t-26.5 -56q-41 -78 -67 -129t-48 -92q-10 -18 -26.5 -51l-26.5 -53q-35 -66 -72 -133.5t-72 -139.5q-20 -41 -38.5 -73.5t-34.5 -69.5q-20 -47 -47 -96t-39 -88q-8 -23 -13.5 -38t-10.5 -26.5t-11 -21t-12 -21.5q-18 -33 -50 -41t-41 -10q-16 -4 -36.5 -4t-39 2t-32.5 5 t-21 7q-25 18 -35 39t-10 43q0 23 3 45.5t12.5 51t26 66.5t42.5 91q12 25 20.5 44.5t15.5 34.5t14.5 27.5t17.5 26.5q16 20 44 58.5t44 66.5q14 23 10 29t-26 6q-37 0 -72 32t-62 68q-63 90 -98 188.5t-50 189.5t-17.5 167t-2.5 123q0 12 -4 34.5z" />
<glyph unicode="Z" horiz-adv-x="1097" d="M29 162q0 16 5 38.5t14 47t21.5 47t24.5 39.5q25 31 72 89t105.5 126.5t120 140.5t114.5 132.5t90 102.5t47 50q23 20 46.5 48t23.5 42q0 18 -16.5 14t-41.5 -4h-30.5h-39h-40h-33.5q-29 -2 -58.5 8.5t-54.5 10.5h-42t-31 4q-18 4 -42 4t-43.5 3t-33.5 12t-14 28 q0 12 3 18t8 17.5t13 34t19 65.5q10 45 50 72.5t85 27.5q53 0 122.5 -6t139.5 -12q39 -4 67.5 -9t53 -8.5t47 -4.5t45.5 3q6 2 28.5 3.5t32.5 -0.5t24.5 -3.5t31.5 -1.5q20 0 40.5 -14t38 -32.5t27.5 -36t10 -25.5q0 -39 -13 -76t-31.5 -68.5t-39 -57t-34.5 -44.5 q-4 -4 -7.5 -9t-7.5 -9q-8 -10 -30.5 -42t-51 -74t-60.5 -87t-59 -82l-16 -22q-20 -27 -61 -69t-90 -93q-41 -41 -83 -89.5t-77 -99.5q-6 -8 3 -18t32 -17q43 -12 98 -25t105.5 -25.5t89 -21.5t49.5 -9q76 -6 102.5 -28t26.5 -44q0 -23 -22.5 -32t-55.5 -34 q-23 -16 -46.5 -33.5t-68.5 -17.5q-27 0 -64.5 6t-97.5 11q-61 4 -131.5 8t-133 8t-111 8t-64.5 8q-68 16 -84 44t-16 63z" />
<glyph unicode="[" horiz-adv-x="788" d="M74 55q0 10 1 30.5t2 42.5t2 40t1 29q4 23 7 43t7 49q2 18 5 49t6.5 63.5t6.5 62.5t5 42q2 16 10 72.5t19.5 130t23.5 157.5t22.5 156t17.5 123t9 61q2 18 -4 44t-6 42q0 10 -11.5 26.5t-25.5 35t-25.5 37t-11.5 30.5q0 47 38 80t136 33q18 0 48 1t62 3t61.5 3t49.5 1 h164q27 0 47.5 -24.5t42.5 -51.5q23 -29 44.5 -51t21.5 -45q0 -90 -102 -90q-23 0 -40.5 -2t-33 -5t-31.5 -5t-41 -2q-37 0 -68.5 -7.5t-39.5 -44.5q-4 -16 -9.5 -61t-10.5 -95t-9 -95t-6 -60q-4 -23 -9.5 -62.5t-13.5 -86.5t-16 -97.5t-15.5 -94.5t-12.5 -76.5l-7 -45.5 q-8 -43 -13 -73.5t-8.5 -58t-5.5 -57.5t-2 -75q0 -41 11.5 -48t19.5 -7q18 0 48 3t60.5 8t61.5 8t53 3q4 0 15.5 -4t24 -12t20.5 -20.5t6 -26.5q-4 -43 -18.5 -62.5t-14.5 -25.5q0 -27 -8 -43.5t-22.5 -27.5t-33.5 -19.5t-42 -20.5q-51 -25 -109.5 -35t-140.5 -10 q-25 0 -53.5 2t-56 12.5t-50.5 29t-33 52.5q-8 29 -14 58.5t-6 64.5z" />
<glyph unicode="\" horiz-adv-x="718" d="M6.5 1235q-6.5 45 3.5 76t14.5 43t32.5 22q14 6 39 4t49.5 -9t45 -18.5t24.5 -23.5q6 -18 17.5 -34.5t22.5 -32t19.5 -27.5t8.5 -21q2 -16 15 -44.5t26 -67.5q29 -86 70.5 -165t86.5 -157q31 -53 64 -110.5t61 -118.5l60 -119q12 -23 24 -49.5t23.5 -52t19.5 -45 t10 -27.5q10 -27 15.5 -70t11.5 -67q10 -35 5 -50.5t-19 -35.5q-16 -25 -26.5 -42.5t-45.5 -17.5q-45 0 -65.5 5.5t-32.5 21.5q-23 29 -30 44t-13 30q-4 8 -7.5 16t-7.5 14q-6 12 -12 25q-4 10 -11 23.5t-11 25.5q-2 8 -16.5 39t-37 72t-48 89t-49.5 94t-43 84t-26 58 q-23 53 -30.5 78t-18.5 43q-8 14 -17 28.5t-19.5 35t-22.5 48.5t-27 69q-8 25 -19 41t-22 30q-8 12 -16 24.5t-12 26.5q-2 4 -5.5 13.5t-7.5 19.5q-8 16 -18 39t-16 45q-10 33 -16.5 78z" />
<glyph unicode="]" horiz-adv-x="788" d="M12 8q0 90 103 90q45 0 71.5 7.5t73.5 7.5q37 0 68.5 7t40.5 44q4 16 9 61t10 95.5t9 94.5t6 60q2 23 8.5 63t14.5 87t16.5 97t15.5 94t12 77t7 45q8 43 13.5 73.5t8.5 58.5t5 57.5t2 74.5q0 41 -11.5 48t-19.5 7q-18 0 -48 -3t-60.5 -8t-61.5 -8t-53 -3 q-35 0 -51.5 12.5t-21.5 31.5t-4 41.5t1 43.5q0 27 15.5 49.5t38 41t49 32.5t49.5 26q51 25 108.5 27t138.5 2q25 0 53.5 -2t56.5 -12t50.5 -29.5t32.5 -52.5q8 -29 14 -58.5t6 -64.5q0 -10 -1 -30.5t-2 -42t-2 -41t-1 -27.5q-4 -23 -7 -43.5t-7 -48.5q-4 -18 -6 -49t-5 -64 t-6 -62.5t-6 -42.5q-2 -16 -10 -72.5t-19 -130t-23.5 -157.5t-23 -155.5t-17.5 -123t-9 -61.5q0 -10 -7 -33.5t-15.5 -50.5t-16.5 -49.5t-10 -30.5q-8 -25 -30.5 -54.5t-56.5 -56t-78 -44t-97 -17.5h-164q-27 0 -47.5 24.5t-42.5 51.5q-23 29 -44.5 51.5t-21.5 44.5z" />
<glyph unicode="^" horiz-adv-x="931" d="M113 426q0 29 20.5 74t36.5 73q18 35 33.5 65t29.5 48q18 25 47 59.5t57 71.5t51.5 70t33.5 53q6 12 32.5 22.5t58.5 11.5t61.5 -11.5t41.5 -42.5q16 -41 27.5 -71t22 -54.5t20.5 -45t27 -40.5q16 -23 41.5 -72t54.5 -88q6 -8 16.5 -25.5t20.5 -39t17 -43t7 -38.5 q0 -100 -92 -100q-20 0 -41.5 7t-38.5 24q-16 16 -34.5 36.5t-36 41t-31.5 37t-21 22.5q-6 8 -18 21.5t-26.5 25.5t-26.5 21.5t-21 9.5q-12 0 -30.5 -13.5t-59.5 -78.5q-10 -16 -23.5 -36t-32 -37t-43 -29.5t-54.5 -12.5q-49 0 -88 21.5t-39 62.5z" />
<glyph unicode="_" horiz-adv-x="512" d="M0 -145q10 0 23 2q10 2 25 3t32 1q16 0 33.5 -4t36.5 -4h108q18 0 48 -3.5t65 -3.5q27 0 51 1t45 3q23 2 45 5v-162q-6 -2 -14 -2q-8 -2 -35 -2q-23 0 -49.5 2t-53.5 2h-108q-10 0 -36 1t-56.5 1t-62 1t-56.5 1q-10 0 -18.5 -1t-12.5 -1q-8 -2 -10 -2v162z" />
<glyph unicode="`" horiz-adv-x="704" d="M172 1389q0 6 7 23.5t24.5 35.5t44 32.5t63.5 14.5q20 0 39 1t35 -5t29.5 -23.5t25.5 -52.5q4 -12 15.5 -33.5t25 -46t27.5 -49t27 -43.5q23 -35 39 -53.5t26 -28.5t15.5 -16t5.5 -17q0 -29 -20.5 -56.5t-51.5 -27.5q-18 0 -77.5 30t-125.5 81q-37 29 -69.5 62.5 t-55 65.5t-36 59.5t-13.5 46.5z" />
<glyph unicode="a" horiz-adv-x="1069" d="M43 268q0 72 24.5 156t66.5 167t98.5 159.5t122 136t136 94.5t140.5 35q27 0 69 7q14 2 27 2q27 0 53 -9q49 -18 64.5 -34.5t19.5 -43.5q4 -35 20.5 -39t47.5 -4q23 0 36 -7t27 -14q23 -10 24 -28.5t1 -46.5q0 -37 -7 -67t-16.5 -55.5t-16.5 -47t-9 -43.5 q-2 -35 -12.5 -72t-22.5 -74t-21.5 -70.5t-9.5 -62.5q0 -35 5 -64.5t12 -56.5q2 -10 4 -28.5t3 -38t2 -35.5t1 -23q0 -37 -21.5 -65.5t-68.5 -38.5q-35 -8 -51.5 -9t-42.5 -5q-7 -1 -13 -1q-27 0 -47 20q-24 26 -24 99q0 16 -7.5 32t-5.5 28q2 10 0 34.5t-2 34.5q0 23 -3 31 t-7 8t-9 -7t-9 -15q-31 -61 -74 -108.5t-91 -79t-97.5 -47t-92.5 -15.5q-63 0 -106 24.5t-68.5 67.5t-37 99.5t-11.5 119.5zM281 279q0 -43 12 -57.5t49 -14.5q25 0 58.5 26.5t69.5 66.5t67.5 84t52.5 81q8 14 24.5 47t35 67.5t34.5 64.5t25 38q10 10 9 18.5t-11 10.5 q-35 6 -35 43q0 35 -35 34q-41 0 -102.5 -50t-118 -125.5t-96 -165t-39.5 -168.5z" />
<glyph unicode="b" horiz-adv-x="1060" d="M104 307q0 29 9.5 103.5t24 172t31.5 205t32.5 202.5t27 168t15.5 99q4 35 12 88.5t39 88.5q17 22 90 22h6q25 0 38 4t42 4q51 0 57.5 -25.5t6.5 -64.5q0 -23 -8.5 -72t-20.5 -111.5t-27.5 -131t-28 -129t-20.5 -106.5t-8 -62q0 -29 6 -39t23 12q16 25 50 52.5t62 43.5 q53 35 102.5 46.5t98.5 11.5q70 0 117 -24.5t75.5 -67.5t40 -99.5t11.5 -119.5q0 -55 -13.5 -112.5t-36.5 -117.5q-6 -16 -25.5 -41.5t-43 -53.5t-46 -52.5t-34.5 -36.5q-41 -41 -95.5 -74t-114.5 -54.5t-124.5 -32.5t-124.5 -11q-55 0 -100 24.5t-77 67.5t-50.5 100.5 t-18.5 122.5zM371 322q0 -6 3 -21.5t14 -31t31.5 -28t55.5 -12.5q6 0 22.5 5.5t37 12.5t40 17.5t33.5 22.5q31 25 55.5 49t42 55t26.5 70t9 92q0 43 -12 57.5t-49 14.5q-33 0 -90.5 -45t-110.5 -111q-14 -18 -25.5 -28.5t-21.5 -18.5t-19.5 -17.5t-17.5 -23.5 q-10 -16 -17 -29.5t-7 -29.5z" />
<glyph unicode="c" horiz-adv-x="882" d="M49 295q0 123 38 232.5t106.5 190.5t168 128t222.5 47q53 0 97 -13.5t79 -33.5q47 -27 72.5 -56.5t25.5 -48.5q0 -33 -2 -50t-6 -25.5t-10 -12.5t-17 -12q-23 -18 -53.5 -36.5t-54.5 -18.5q-16 0 -32.5 3t-18.5 15q-2 16 -39 27.5t-88 11.5q-39 0 -76 -25.5t-66.5 -68.5 t-48 -99.5t-18.5 -117.5q0 -66 24.5 -102.5t77.5 -36.5q35 0 72 9t69 21q23 10 52.5 11.5t58.5 1.5q25 0 36 -7.5t11 -29.5q0 -20 -7 -33.5t-32 -42.5q-12 -14 -31.5 -32.5t-42.5 -33.5q-23 -14 -53.5 -22t-64.5 -21q-41 -14 -89.5 -35.5t-101.5 -21.5q-72 0 -121 26.5 t-79.5 72.5t-44 107.5t-13.5 131.5z" />
<glyph unicode="d" horiz-adv-x="1122" d="M82 338q0 109 44 227.5t116.5 217t164 162t185.5 63.5q16 0 38.5 -6.5t46 -16.5t44 -24.5t33.5 -30.5q16 -20 31.5 -15t19.5 31q4 23 7 36t6 28.5t6 39t7 66.5q6 82 15.5 140.5t15.5 93.5q4 16 15.5 31.5t15.5 27.5q6 20 13 35.5t22.5 24t42 12.5t73.5 4q23 0 50.5 -29 t27.5 -70q0 -35 -6 -93t-14 -125.5t-19.5 -134t-19.5 -118.5q-8 -47 -12 -102t-9 -80q-4 -35 -10 -58.5t-12 -41t-12.5 -32.5t-10.5 -32q-6 -20 -7 -36.5t1 -38t4 -49t2 -70.5q0 -55 -2 -91t-2 -65t4 -43t8.5 -24.5t8.5 -21.5t4 -34q0 -20 -24 -40t-40 -36q-8 -8 -12 -15 t-10 -12t-15.5 -8t-27.5 -3q-31 0 -51.5 17t-36.5 28q-39 20 -60 45q-12 16 -15 38.5t-3 47t3 48t3 44.5q0 35 -10 35t-35 -27q-18 -20 -38.5 -42.5t-51.5 -51.5q-66 -57 -140.5 -97t-148.5 -40q-63 0 -106 24.5t-69 67.5t-37 99t-11 120zM340 369q0 -29 12.5 -43.5 t48.5 -14.5q18 0 46 18.5t58 47.5t57.5 65.5t45.5 73.5q20 41 58 72q16 12 15 22.5t-1 42.5q0 10 -5 25.5t-15.5 29t-26 22.5t-37.5 9q-23 0 -65 -28.5t-85 -77.5t-74.5 -116.5t-31.5 -147.5z" />
<glyph unicode="e" horiz-adv-x="897" d="M47 360q0 41 9.5 93.5t21.5 95.5q16 57 37.5 100t56.5 94q37 51 79 95.5t94 77t114.5 51t140.5 18.5q47 0 81 -12t64 -31q20 -12 39 -33.5t33 -42.5q20 -29 32.5 -56.5t12.5 -66.5q0 -49 -19.5 -109.5t-54.5 -101.5q-14 -18 -40.5 -37.5t-56 -38t-58.5 -34.5t-49 -29 q-55 -35 -106.5 -53t-80.5 -33q-23 -10 -46 -22.5t-23 -22.5q0 -29 33.5 -47t82.5 -18q35 0 50.5 -11.5t31.5 -7.5l50 12.5t63 8.5q6 0 25.5 2t39 3t35 -1t15.5 -10q0 -14 -8.5 -39t-24.5 -35q-35 -25 -51.5 -40.5t-30.5 -26.5t-31.5 -21.5t-54.5 -24.5q-33 -12 -68.5 -28.5 t-93.5 -16.5q-92 0 -156.5 31t-106.5 85t-61.5 126.5t-19.5 156.5zM341.5 529.5q12.5 -15.5 49.5 -15.5q14 0 49 16.5t71 41t62.5 50.5t26.5 44t-8 33.5t-35 15.5q-18 0 -48 -13.5t-60.5 -34t-57 -44t-39.5 -41.5q-23 -37 -10.5 -52.5z" />
<glyph unicode="f" horiz-adv-x="796" d="M70 -66q0 35 5 64t5 63q0 23 7 44.5t11 44.5q10 43 20.5 94t14.5 116q2 45 12.5 85t18.5 71q7 34 7 62q0 11 -1 22q-4 37 -27 74q-10 14 -16 22.5t-10 14.5t-6 15t-2 28q0 29 10 62.5t33 43.5q16 6 26 22.5t25 28.5q18 16 33.5 50t19.5 98q8 104 32.5 195.5t77 161 t134.5 109.5t205 40q47 0 79.5 -5.5t61.5 -31.5q12 -10 38.5 -25.5t26.5 -36.5q0 -25 -17 -55.5t-17 -50.5q0 -23 -18.5 -39t-50.5 -27.5t-73 -16.5q-29 -4 -60 -4q-12 0 -24 1q-41 0 -73.5 -37t-57 -87t-38 -102.5t-13.5 -84.5q0 -31 7 -46.5t50 -15.5h12.5t16.5 -2 q12 -2 44 -5t52 -3q51 0 72.5 -24.5t21.5 -75.5q0 -27 -4 -37.5t-13 -16.5t-24.5 -11t-37.5 -19q-27 -16 -56.5 -32t-70.5 -16q-35 0 -66 -18t-41 -63q-10 -35 -16 -82t-11.5 -96.5t-9.5 -99.5t-8 -91q-2 -27 -4 -53.5t-6 -53.5q-4 -29 -9.5 -56.5t-5.5 -55.5 q0 -29 -13 -60.5t-52 -56.5q-16 -10 -32.5 -22.5t-37.5 -22.5q-23 -10 -34 -29.5t-21 -19.5q-6 0 -23.5 12t-35 33.5t-30.5 50.5t-13 59z" />
<glyph unicode="g" horiz-adv-x="1126" d="M6 -303q0 49 13.5 78.5t19.5 52.5q10 29 30.5 30t53.5 1q23 0 43 -14.5t43 -30.5q29 -20 53.5 -30.5t69.5 -10.5q39 0 66.5 5t47 16t35 28.5t31.5 42.5q18 27 29.5 60.5t21.5 56.5q10 20 18.5 46.5t13.5 51t8 44t3 28.5q0 16 -6 18t-22 -20q-25 -35 -61 -62t-73.5 -45 t-73.5 -27.5t-63 -9.5q-66 0 -108.5 20.5t-67.5 57.5t-35 86t-10 106q0 72 24.5 139.5t47.5 133.5q27 82 78 155.5t122 122.5q27 16 70 35t96.5 33t114.5 23.5t123 9.5q43 0 93 -28t110 -44q31 -8 45 -17.5t21 -19.5t11.5 -21.5t14.5 -21.5l19 -19t9 -22q0 -33 10.5 -43 t10.5 -30q0 -12 -7 -42t-24 -57q-16 -27 -40.5 -40t-45.5 -3q-25 10 -43 9t-18 -23q0 -18 -2 -41t-6 -51q-8 -63 -27 -142t-39 -157t-39.5 -145.5t-30.5 -110.5q-18 -70 -42.5 -117t-55.5 -80t-68.5 -56.5t-82.5 -43.5q-41 -18 -80 -21.5t-90 -3.5q-133 0 -196 24.5 t-97 55.5q-23 18 -44.5 33.5t-21.5 46.5zM332 342q0 -43 12 -57.5t49 -14.5q33 0 76 30t82 80t64.5 114.5t25.5 134.5q0 27 -27 26q-35 0 -84 -18.5t-93 -57t-74.5 -98t-30.5 -139.5z" />
<glyph unicode="h" horiz-adv-x="1026" d="M74 213q0 25 5 81t13 99q4 25 15.5 73t25.5 105q10 43 20.5 85t18.5 79t13 64.5t5 40.5q0 14 7.5 42.5t17.5 67.5q10 33 18.5 72t18.5 86q4 25 6 51.5t4 54.5q2 29 8 72t13 72q8 35 40.5 66.5t79.5 52.5q49 22 106 22h5q14 0 25.5 -14.5t19.5 -34.5q8 -18 11 -39.5 t3 -38.5q0 -51 -16 -86t-29 -76q-10 -29 -20 -69.5t-27 -106.5l-6 -26q-8 -35 -20.5 -89.5t-24.5 -110.5t-20.5 -106.5t-8.5 -80.5q0 -23 11.5 -19t25.5 19q18 18 39 44.5t43 55.5q29 41 50.5 67.5t39.5 36.5q4 2 9.5 14.5t11.5 28t14 31.5t19 27q35 33 73.5 40t85.5 7 q41 0 65.5 -24.5t45.5 -55.5q23 -35 32 -83t9 -103q0 -23 -2 -45.5t-6 -47.5q-4 -16 -6.5 -33.5t-4.5 -41.5q0 -8 -3 -33t-7 -57q-6 -51 -12 -100.5t-6 -65.5q0 -23 -2 -43.5t-4 -40.5q-6 -47 -7 -127q0 -27 -75 -64q-16 -8 -50 -23.5t-63 -15.5q-18 0 -27.5 2t-14.5 7.5 t-9 11.5t-10 14q-25 29 -27 75t-2 93t2 93t16 83q16 39 20.5 97.5t4.5 107.5q0 41 -6 50t-21 11h-4q-40 0 -97 -76q-60 -80 -138 -219q-18 -33 -43 -86t-60 -98q-25 -31 -41 -53.5t-27.5 -36.5t-19.5 -21.5t-20 -7.5q-10 0 -27.5 2t-35 9.5t-32 18.5t-16.5 30l-4 22 q-4 29 -9 53.5t-5 61.5z" />
<glyph unicode="i" horiz-adv-x="612" d="M70 178q0 51 17 91t32 71l67 313v160q0 27 1 45.5t8 46.5q10 35 32.5 59.5t69.5 24.5q66 0 115 -21.5t61 -62.5q14 -47 16.5 -76.5t2.5 -58.5q0 -24 6 -54q3 -13 3 -28q0 -20 -5 -45q-10 -55 -31 -112.5t-21 -116.5q-2 -53 -20 -96.5t-33 -77.5q-10 -27 -18 -58.5 t-25 -48.5l-31 -35q-12 -12 -32.5 -23.5t-43 -19.5t-40 -12t-23.5 -4q-14 0 -32.5 13.5t-34.5 29.5q-18 20 -29.5 40.5t-11.5 55.5zM311 1360q0 29 5.5 55.5t20.5 46t40.5 31.5t66.5 12q25 0 49.5 -20.5t55.5 -54.5q8 -10 22.5 -21.5t29.5 -24t26.5 -24.5t11.5 -21 q0 -27 -7.5 -40t-25.5 -31t-55 -38t-55 -20q-25 0 -57.5 12.5t-60.5 33t-47.5 48t-19.5 56.5z" />
<glyph unicode="j" horiz-adv-x="645" d="M-94 -340q0 20 11 27.5t24 21.5q10 10 17 26.5t15 26.5q23 23 49.5 59t47.5 118l6 24q12 49 22.5 85t19.5 67.5t16 62.5t13 66q0 6 4.5 24.5t8.5 39t7 40t5 27.5l8 45q10 59 13.5 107t3.5 83q0 31 -2 64t-7 57q0 8 2.5 28.5t6.5 42t7 37t3 13.5q0 16 15.5 39.5t41.5 44.5 q23 16 48.5 26.5t58.5 10.5q20 0 28.5 -2t12.5 -5t7 -8.5t13 -11.5q8 -6 26.5 -18.5t37 -26.5t33 -28.5t14.5 -24.5q0 -53 -17.5 -101.5t-27.5 -80.5l-15 -52q-10 -41 -14 -101t-12 -122q-4 -33 -10.5 -89t-14.5 -95q-18 -96 -36.5 -160.5t-40 -116t-46 -96.5t-55.5 -100 q-35 -66 -73 -91.5t-77 -41.5q-23 -10 -46 -21.5t-46 -11.5q-12 0 -29.5 9t-35 22.5t-29.5 30t-12 30.5zM406 1319q0 51 31.5 84t92.5 33q55 0 93.5 -41t38.5 -86q0 -23 -10.5 -36.5t-26.5 -31.5q-16 -16 -39 -33.5t-51 -17.5q-66 0 -97.5 39t-31.5 90z" />
<glyph unicode="k" horiz-adv-x="995" d="M80 63q0 29 12 63t23 79q2 6 5 27.5t7 52t9 67.5t11 76q4 29 -1 48.5t-13 32.5t-14 25.5t-4 28.5q4 33 17 57.5t28.5 42t28 31t16.5 25.5q8 37 19.5 97.5t19.5 126t14 129t6 108.5v48t2 33.5t3 28t5 31.5q0 6 7.5 18.5t16.5 25.5t16.5 25.5t7.5 18.5q12 55 34.5 73.5 t49.5 18.5q8 0 35.5 -12t45.5 -39q8 -10 20.5 -19.5t25 -19.5t21.5 -20.5t9 -20.5q0 -23 -6 -49.5t-12 -48.5q-2 -8 -7.5 -26.5t-11.5 -37t-10 -34t-4 -19.5q0 -20 -5 -54t-22 -104q-14 -53 -26.5 -90t-16.5 -59q-6 -27 1.5 -35t35.5 10q20 12 51 31.5t62 41.5t56.5 42 t39.5 35q23 23 33 34t33 11q16 0 44.5 2t45.5 -8q12 -8 30.5 -26.5t30.5 -27.5q35 -18 54.5 -30.5t19.5 -32.5q0 -6 -4 -22.5t-10.5 -36t-15.5 -37t-17 -23.5q-53 -37 -84 -42t-60 -15q-23 -8 -38 -15.5t-31 -19.5q2 2 -11.5 -8t-21.5 -17q-20 -16 -63 -34.5t-68 -38.5 q-14 -10 -23.5 -22.5t3.5 -28.5q8 -10 22 -24.5t28.5 -29t28 -27t17.5 -14.5q31 -23 44 -39t21 -26q10 -10 25.5 -36t30.5 -40l24 -23q31 -29 57.5 -42t43.5 -39q6 -10 14 -20.5t14 -20.5q12 -16 34 -29.5t22 -30.5q0 -12 -1.5 -21.5t-9.5 -15.5t-26.5 -9t-53.5 -3 q-12 0 -32.5 7t-42 17.5t-42 23.5t-34.5 26q-25 20 -53.5 47t-49.5 39q-35 18 -89 54t-103 77q-25 20 -35 8t-14 -35q-4 -20 -7 -57t-8.5 -77t-11.5 -74.5t-12 -51.5q-8 -18 -26.5 -37.5t-26.5 -23.5q-14 -10 -29.5 -10.5t-42.5 -0.5q-16 0 -47 1.5t-43 23.5 q-8 14 -24.5 28.5t-16.5 32.5z" />
<glyph unicode="l" horiz-adv-x="624" d="M70 90q0 6 5 47t11 89t12 89t8 47q4 16 10.5 36t6.5 46q0 43 8 95.5t20.5 109t25.5 115.5t24 117q16 82 28.5 156.5t16.5 133.5q2 20 2 42v42v35t2 31q4 23 8 38t10 32l17 47q16 51 45.5 67.5t44.5 16.5q10 0 28.5 -7.5t38.5 -15.5q14 -6 34 -18.5t36 -27.5t28.5 -31.5 t12.5 -26.5q0 -23 -15.5 -83.5t-23.5 -125.5v-28.5t-4 -49.5q-8 -63 -24.5 -149.5t-32.5 -159.5q-12 -59 -29.5 -157.5t-33 -201t-26 -192.5t-10.5 -135q0 -12 -13 -35t-29.5 -43.5t-33 -35.5t-22.5 -15q-23 0 -44.5 6t-41.5 30q-6 6 -22.5 13.5t-34 15.5t-30.5 18.5 t-13 22.5z" />
<glyph unicode="m" horiz-adv-x="1730" d="M76 63q0 27 6 44.5t6 37.5q0 16 5 36t5 44q0 6 7.5 35t16.5 62.5t19.5 64.5t14.5 45l16 51q10 33 11 61.5t1 51.5q0 31 8.5 79t12.5 87q2 29 4 52.5t2 35.5q0 29 9 62.5t30 54.5q14 16 26.5 25t28.5 9q4 0 19.5 -6t33 -14t34 -14t22.5 -9q80 -20 99 -31.5t19 -25.5 q0 -12 -3 -32.5t-7 -42t-8 -38t-6 -22.5t-6 -18.5t-8.5 -27.5t-7.5 -29.5t-3 -20.5q0 -23 3 -34t28 11q20 18 51 46t62.5 57.5t59.5 58.5t46 49q33 39 53.5 59.5t37 29.5t32.5 10t41 1q29 0 50.5 -9t47.5 -19q35 -16 65 -34.5t34 -43.5q8 -35 10 -73t2 -77q0 -29 16.5 -34.5 t38.5 22.5q27 33 46.5 52.5t36 35t31.5 29.5t34 39q20 27 56 44q36 18 74 24q27 5 51 4h18q30 -2 40 -11q4 -4 19.5 -9t34 -13t33 -17.5t18.5 -19.5q8 -27 8 -44.5t-3 -34.5t-7 -38.5t-4 -54.5q0 -31 -5.5 -53.5t-12.5 -42t-12 -41t-5 -52.5v-58.5t-2 -43.5q0 -10 -1 -20.5 t-1 -18.5q0 -10 -4.5 -35.5t-10.5 -55.5t-10 -56.5t-4 -36.5q0 -33 -5 -49.5t-10 -25.5t-9.5 -14t-4.5 -16q0 -20 -20.5 -45.5t-36.5 -25.5q-20 0 -47 1t-60 19q-49 29 -81.5 46.5t-32.5 45.5q0 43 9 61.5t9 41.5q0 6 4 21.5t10.5 31.5t11.5 30.5t7 20.5q6 29 7 41t1 35 q0 27 5 56.5t5 37.5q0 47 -8 45t-37 -24q-18 -12 -40.5 -34t-45 -47.5t-42 -52t-31.5 -49.5t-32 -52.5t-40.5 -59t-38.5 -56t-29 -45.5q-6 -12 -20 -27.5t-32.5 -28.5t-42 -23.5t-48.5 -10.5q-20 0 -41.5 3t-40 10.5t-30 18.5t-11.5 30q0 23 7 65.5t16.5 87.5t19.5 84t17 56 q12 31 20 61.5t23 69.5q12 37 13 63.5t1 46.5q0 33 -11.5 39t-37.5 -22q-88 -98 -163 -188.5t-126 -151.5q-10 -12 -33.5 -37t-49.5 -52.5t-48.5 -52t-30.5 -35.5q-10 -18 -20 -34q-10 -14 -21.5 -28.5t-21.5 -23.5q-16 -10 -40 -26.5t-40 -16.5q-14 0 -36 5.5t-42.5 16.5 t-35.5 26.5t-15 37.5z" />
<glyph unicode="n" horiz-adv-x="1128" d="M96 233q0 23 1 62t9 82l15 74q6 29 12 74.5t14.5 98t15.5 106.5t15 99q0 18 19.5 46t35.5 59q8 14 37 24.5t49 10.5q8 0 25.5 -6.5t37 -13.5t36 -16t22.5 -15q35 -35 43.5 -44.5t8.5 -23.5q0 -41 -16.5 -67.5t-20.5 -43.5q-4 -16 -9.5 -53t-13.5 -78q-6 -29 3 -31t20 21 q2 6 24.5 30.5t51 55.5t56 59.5t42.5 40.5q37 35 91 69t103 58q23 10 62 12.5t59 -1.5q18 -4 33.5 -16.5t28 -27t19.5 -29.5t11 -28q16 -61 17 -135q0 -23 -3 -52.5t-8 -60.5q-8 -66 -15 -129t-26 -131q-6 -25 -3 -39t3 -30v-82q0 -23 -7 -38t-16 -27.5t-18.5 -27 t-15.5 -32.5q-6 -16 -23.5 -25.5t-33.5 -9.5t-48 12.5t-64 28.5t-56.5 32.5t-24.5 26.5q0 47 2 78t6.5 51.5t8.5 35t10 26.5q2 8 11 41t18.5 72.5t17.5 79.5t10 65q0 23 -4 32t-33 -12q-16 -12 -40.5 -33.5t-52 -49t-55.5 -61.5t-50 -67q-70 -109 -126.5 -182.5 t-99.5 -119.5t-72.5 -65.5t-45.5 -19.5q-27 0 -44.5 11.5t-28.5 26t-15.5 28.5t-4.5 20l-2 70q-2 29 -5 48.5t-3 55.5z" />
<glyph unicode="o" horiz-adv-x="954" d="M51 354q0 129 85 264.5t226 247.5q8 6 21.5 13.5t38.5 23.5q16 10 33.5 28.5t27.5 29.5q23 23 52.5 34t52.5 11q16 0 21 -8.5t6 -19.5t2 -19.5t12 -8.5q20 0 22 -16q4 -20 30 -38.5t48 -18.5q29 0 50.5 -13.5t43.5 -29.5q29 -23 52.5 -48.5t23.5 -58.5 q0 -68 -16.5 -150.5t-49 -166.5t-82 -163t-114 -140.5t-144.5 -98.5t-174 -37q-78 0 -129 34t-81.5 87t-44 122t-13.5 140zM322 338q0 -127 55 -127q35 0 81 44t87 108.5t69.5 138t28.5 133.5q0 12 -1 18t-3 10.5t-7 12.5t-11 26t-13.5 27.5t-23.5 9.5t-32.5 -1t-29.5 -19 q-14 -18 -34.5 -45t-40 -51.5t-35 -44t-19.5 -25.5q-37 -55 -54 -117.5t-17 -97.5z" />
<glyph unicode="p" horiz-adv-x="1093" d="M-16 -428q0 59 9 99t19 77q2 10 10.5 43t16.5 71t15 73.5t9 54.5q10 76 19.5 132t19.5 95q2 16 14.5 62.5t28 101.5t29.5 109.5t25 84.5q14 55 47 129t92 140.5t153.5 114t233.5 47.5q141 0 221 -84t80 -275q0 -152 -46 -267.5t-121 -193t-169 -117.5t-192 -40 q-35 0 -56.5 22.5t-31.5 38.5q-16 29 -32 25t-20 -27t-10 -48.5t-14 -51.5q-4 -14 -13.5 -52t-19.5 -81t-18.5 -82t-10.5 -56q-2 -12 -7 -39.5t-13 -57.5t-15.5 -56.5t-13.5 -38.5l-24 -60q-8 -20 -12.5 -31.5t-16.5 -29.5q-16 -23 -23.5 -30t-27.5 -7q-16 0 -23.5 3 t-10.5 8.5t-5 13.5t-10 18q-10 14 -32 37t-26 47q-4 23 -16 39t-12 39zM424 354q0 -12 10 -28.5t31 -22.5q16 -4 32.5 -16.5t32.5 -12.5q29 0 66 14t57 34q59 59 82 123.5t23 123.5q0 20 -1 46t-9.5 48.5t-23.5 38t-42 15.5q-8 0 -41 -9.5t-49 -9.5q-25 0 -49.5 -24.5 t-45 -57t-36 -66.5t-19.5 -52q-14 -59 -16 -89t-2 -55z" />
<glyph unicode="q" horiz-adv-x="1009" d="M82 225q0 72 20.5 156t56.5 167t84 159.5t102 136t113.5 94.5t119.5 35q37 0 59 5t41 1q29 -8 45 -27.5t27 -33.5q10 -16 18 -24.5t16 -23.5q12 -23 28.5 -25.5t45.5 -10.5q2 0 33 -19.5t51 -32.5q16 -10 15 -30.5t-1 -67.5q0 -25 -6 -72t-16 -110.5t-22.5 -138 t-26.5 -152.5q-14 -82 -27.5 -162t-25 -150.5t-17.5 -126t-6 -85.5q0 -31 -5 -49.5t-16 -43.5q-6 -14 -26.5 -36.5t-34.5 -30.5q-10 -6 -26.5 -16.5t-26.5 -10.5q-6 0 -10.5 5.5t-11.5 12.5t-19 14t-33 13q-16 4 -33.5 15.5t-27.5 21.5q-14 16 -18.5 27.5t-4.5 40.5 q0 8 15.5 49t25.5 88t13 92t16 98q8 39 19 79t21.5 72t16.5 54.5t6 28.5q0 25 -6 34t-18 -20q-29 -66 -74 -115t-91 -81.5t-88 -48t-65 -15.5q-63 0 -106 29t-70 69.5t-38 86t-11 75.5zM319 293q0 -43 12.5 -57.5t49.5 -14.5q25 0 57.5 35t64.5 83t59.5 99t41.5 86 q18 45 25.5 65.5t7.5 37.5q0 12 -6 23.5t-10 19.5q-4 4 -5.5 25.5t-1.5 29.5q-4 20 -6 20h-22q-23 0 -67 -40.5t-88 -105t-78 -145.5t-34 -161z" />
<glyph unicode="r" horiz-adv-x="1017" d="M80 100q0 51 9 78t20 53q10 25 21 54.5t17 70.5q6 29 10.5 65t8.5 69.5t6 62.5t2 47q0 31 3 85t7 93q0 12 7.5 34t17.5 34q12 16 23.5 27.5t15.5 17.5q8 14 14 20.5t12.5 7.5t15.5 0t25 3t47 15t66 11q23 0 27 -14t4 -37q0 -12 13 -24.5t11 -22.5q-2 -16 -3 -51t-1 -45 q0 -12 7.5 -14.5t17.5 3.5q23 16 71 48t107 63q14 8 42 19.5t59.5 21.5t64.5 17.5t57 7.5q35 0 57.5 -7.5t22.5 -40.5q0 -10 -1 -29.5t-5 -35.5q-4 -14 -10 -40t-11 -40q-6 -16 -20 -34.5t-20 -28.5q-14 -18 -26.5 -32t-41.5 -26q-10 -4 -28.5 -16t-40 -24.5t-43 -23 t-36.5 -12.5q-41 -4 -81.5 -25.5t-75.5 -51t-62.5 -62.5t-42.5 -59q-25 -41 -38 -81t-23 -75q-12 -53 -19 -92q-6 -37 -9 -64.5t-13 -35.5q-35 -29 -86 -43q-41 -10 -72 -11q-23 0 -51 35q-10 16 -20.5 33.5t-16.5 38.5q-12 33 -12 63z" />
<glyph unicode="s" horiz-adv-x="782" d="M4 49q0 6 7 17.5t17.5 23.5t21.5 20.5t20 8.5q35 0 53 -3t39 -7q14 -4 54 7t69 25q35 16 57.5 54t22.5 73q0 16 -10.5 38t-53.5 50q-33 20 -67.5 52t-64.5 72t-49.5 87t-19.5 101q0 66 38 131t103.5 118.5t154.5 86t194 32.5q20 0 33.5 -2t42.5 -10q25 -8 45 -28.5 t20 -43.5q0 -14 10.5 -39.5t6.5 -56.5q-2 -14 -12.5 -27.5t-25 -22.5t-27.5 -14.5t-21 -5.5q-20 0 -58.5 1t-54.5 1q-39 0 -59.5 -8t-45.5 -8q-47 0 -73.5 -36t-26.5 -77t32 -66.5t91 -53.5q31 -14 45 -32t33 -32q4 -4 13 -15t19.5 -25.5t19.5 -29t13 -22.5 q16 -31 24.5 -53.5t8.5 -61.5q0 -89 -53 -155q-18 -23 -46 -47.5t-55 -34.5q-8 -4 -29.5 -11.5t-45 -14.5t-46 -13t-32.5 -6q-14 -4 -43 -6.5t-60.5 -5.5t-60.5 -4t-43 -1q-45 0 -70.5 6.5t-38 16.5t-14.5 24.5t-2 32.5z" />
<glyph unicode="t" horiz-adv-x="888" d="M96 86q0 49 12.5 95t16.5 79q4 20 14.5 52t14.5 48q4 14 12 34t14 42q8 37 15.5 77t12.5 76t7 63.5t2 37.5q0 29 -18.5 36t-40.5 30q-37 37 -44.5 71.5t-7.5 73.5q0 8 22 15.5t44.5 11.5t38.5 7t8 3q39 0 52.5 33t13.5 69q0 8 8 40t18.5 70t19.5 72.5t13 49.5 q6 27 12 50.5t9 39.5q2 23 12 50.5t23.5 51t31 39t33.5 15.5q12 0 32.5 -11.5t34.5 -11.5t37 -13.5t44.5 -30.5t37 -33.5t15.5 -22.5v-35t-1 -21.5t-4.5 -20.5t-11.5 -30q-4 -8 -14 -41t-22.5 -69.5t-21.5 -68.5t-11 -40q-6 -31 -13.5 -65.5t-11.5 -55.5q-4 -16 1 -33.5 t22 -17.5q16 0 37.5 -1t68.5 -1q10 0 40 5t46 5q20 0 72 -45q23 -23 48 -49.5t25 -44.5q0 -25 -35.5 -46.5t-76.5 -43.5q-25 -12 -58.5 -16.5t-67.5 -4.5t-65.5 3.5t-54.5 5.5q-27 2 -43 -9.5t-20 -29.5t-14.5 -48t-20.5 -63t-18.5 -64.5t-8.5 -54.5q0 -25 -13 -72t-18 -81 q-6 -49 -18.5 -83t-22.5 -59q-16 -41 -27 -64.5t-27.5 -34.5t-41 -13t-65.5 -2q-47 0 -75 29.5t-28 70.5z" />
<glyph unicode="u" horiz-adv-x="1118" d="M94 229q0 23 3 52.5t7 60.5q2 14 3.5 35.5t3.5 43t3 41t1 30.5q0 4 5 28.5t11 53t12.5 54t6.5 31.5q4 45 19 79t34 96q8 25 30.5 57.5t36.5 46.5q20 20 34.5 30.5t28 14.5t30 3t45.5 -1q10 0 26.5 -8t31.5 -21.5t26.5 -29t11.5 -27.5q0 -39 -10.5 -73.5t-26.5 -69.5 q-6 -14 -16.5 -40t-20.5 -53.5t-18.5 -54t-10.5 -43.5q-2 -16 -5 -30.5t-5 -30.5q-4 -18 -6 -31.5t-2 -32.5q0 -39 11.5 -58.5t45.5 -19.5q41 0 80 43.5t76 116.5q35 68 59.5 111t49.5 86q20 35 41.5 63.5t37.5 51.5q41 53 75 81.5t65 28.5q29 0 54.5 -5t51.5 -42 q10 -14 18.5 -29.5t14.5 -27.5q8 -16 4 -35t-4 -43q0 -12 -6 -40t-15 -58q-4 -23 -9 -43.5t-9 -36.5q-4 -27 -16.5 -63t-18.5 -62q-10 -45 -12 -75t-2 -54q-1 -33 -11 -75q-6 -23 -5 -40q0 -15 4 -25q4 -14 9 -48t5 -44q0 -14 -13.5 -26.5t-32 -23.5t-40 -20.5t-37.5 -15.5 q-31 -12 -47 -17t-57 -5q-49 0 -72 19.5t-23 47.5q0 14 3.5 37t6.5 47.5t7 45t8 28.5q6 16 6 35.5v34.5q0 33 -14.5 32.5t-20.5 -24.5q-2 -6 -23.5 -33t-41.5 -51q-12 -14 -34 -41t-30 -37q-68 -84 -129 -112.5t-143 -28.5q-66 0 -111 65.5t-45 173.5z" />
<glyph unicode="v" horiz-adv-x="962" d="M43 758q0 31 22.5 59.5t56.5 51t72.5 37t69.5 14.5q18 0 29.5 -1t17.5 -6.5t9.5 -15.5t7.5 -29q10 -35 24.5 -60.5t18.5 -51.5q2 -10 2 -21.5v-21.5q2 -29 3 -53.5t11 -59.5q6 -22 6 -46q0 -15 -2 -31q-3 -21 -3 -40t3 -37q8 -45 12.5 -73.5t8.5 -42.5q6 -27 19 -16.5 t24 26.5q14 23 45.5 69t56.5 117q10 31 16.5 50.5t10.5 32t5 20.5t3 16q4 25 21.5 58.5t31.5 62.5q12 29 41 43t66 45q16 14 26 23.5t23.5 15.5t33 8t52.5 2q25 0 39 -9t21 -21.5t9 -25.5t2 -20q0 -29 -9 -64.5t-21.5 -70.5t-25.5 -65.5t-23 -48.5q-23 -41 -44.5 -86.5 t-41 -88.5t-38 -79.5t-32.5 -57.5q-29 -45 -70 -100t-78 -100q-23 -27 -53 -49.5t-62 -38t-65 -24.5t-59 -9q-51 0 -78 13t-39 54q-6 20 -17.5 44t-15.5 42q-10 47 -17 88t-24 88q-10 29 -12 51.5t-3 45t-4 47t-11 55.5q-10 31 -24.5 68t-20.5 65q-10 47 -18.5 80t-8.5 72z " />
<glyph unicode="w" horiz-adv-x="1587" d="M86 201.5v29v52.5q0 23 6 48t12 48t11.5 45t5.5 47v58.5t2 43.5q0 10 1 20.5t1 18.5q0 18 -8 42t-17 44q-8 20 -7 61.5t1 61.5t6 38t47 44q8 4 19.5 19.5t21.5 21.5q33 23 82 33t78 10q25 0 45.5 -3t34.5 -13q10 -10 17.5 -25.5t7.5 -44.5q0 -27 -3.5 -64.5t-8.5 -77.5 t-11 -78t-12 -65q-10 -47 -16.5 -91t-6.5 -89q0 -47 13.5 -49t48.5 27q12 10 21 17t17.5 19.5t18.5 31t27 53.5q18 37 37.5 70.5t27.5 56.5q16 45 41 104t66 106q29 35 63.5 55.5t81.5 20.5q25 0 45.5 -18.5t38.5 -46.5q14 -23 26.5 -47.5t12.5 -53.5q0 -53 -6 -80.5 t-19 -66.5l-14 -47q-16 -53 -18 -105.5t-2 -81.5t9 -41t23.5 -12t28.5 11.5t27 29.5q12 18 23 29.5t26 23.5q10 10 15 20.5t8 24t8.5 28.5t15.5 36q27 47 45 94t35 90q10 29 22.5 52.5t28.5 46.5t44 39t50 30q29 18 39 29.5t33 11.5q20 0 45 -7t47.5 -19.5t37.5 -31 t15 -38.5q0 -37 -6 -68.5t-19.5 -66.5t-33 -76t-45.5 -96q-25 -53 -44.5 -90t-34.5 -63t-30.5 -43t-34.5 -32q-61 -49 -87.5 -94t-47.5 -63q-8 -6 -26.5 -19.5t-40 -27t-40 -25.5t-24.5 -18q-53 -43 -102 -62.5t-101 -19.5q-53 0 -81 34q-23 27 -34 65t-16 85q-4 31 -4 62.5 v64.5q0 20 -13 21t-36 -23q-76 -78 -115.5 -114t-64.5 -51t-46.5 -24.5t-60.5 -33.5q-29 -18 -60.5 -26.5t-59 -8.5t-49 5t-29.5 15q-8 6 -29.5 36t-34.5 63l-9 27t-3 20.5z" />
<glyph unicode="x" horiz-adv-x="946" d="M-4 76q0 33 27.5 75t69.5 88t90 91t91 86q14 12 18.5 22.5t-9.5 32.5q-10 16 -25.5 35.5t-28.5 34.5q-14 18 -27.5 39.5t-23.5 40.5q-23 47 -43 103t-20 103q0 14 16 41t41 51.5t54.5 43t58.5 18.5q57 0 75 -53q0 -4 8.5 -24.5t18.5 -47.5t19.5 -50.5t13.5 -33.5 q10 -29 18 -67.5t31 -63.5q16 -16 22.5 -18t16.5 8q33 33 49 55.5t33 65.5q4 10 11 30.5t16.5 42t19.5 40t20 24.5q33 18 42.5 32.5t19.5 30.5q6 8 27.5 10.5t56.5 2.5q16 0 34.5 -20.5t33 -48.5t23.5 -58.5t9 -49.5q0 -31 -10 -55t-28.5 -50t-44 -56.5t-56.5 -69.5 q-10 -12 -26.5 -31.5t-34 -41t-35 -41t-25.5 -31.5q-10 -14 -12 -24.5t14 -43.5q2 -4 11.5 -17.5t18.5 -28.5t17 -28.5t8 -15.5q4 -10 16.5 -26.5t28.5 -41.5q23 -35 42.5 -61.5t19.5 -40.5q0 -33 -20.5 -59.5t-49.5 -26.5q-45 0 -87 27.5t-64 58.5q-25 33 -43.5 51.5 t-34.5 59.5l-19 51q-8 16 -21 31.5t-34 -7.5l-37 -41q-41 -43 -65.5 -64.5t-40.5 -62.5q-10 -25 -21.5 -51t-31.5 -47l-50 -45q-25 -23 -41 -29t-51 -6q-53 0 -76.5 48t-23.5 104z" />
<glyph unicode="y" horiz-adv-x="995" d="M66 813q0 14 3 23.5t10 18.5t20.5 19.5t33.5 28.5q29 29 60.5 37t60.5 8q31 0 41 -3t27 -34q18 -31 24 -65.5t10 -69.5q4 -33 -2 -50t2 -46q8 -33 11.5 -53.5t5.5 -37t3 -30.5t7 -33q16 -59 31.5 -102t29.5 -59q29 -35 46.5 -22.5t31.5 32.5q14 25 32.5 85t39.5 124 q10 27 20.5 56.5t14.5 51.5q2 12 10 36t18.5 51.5t18.5 51t12 35.5q8 33 18.5 42.5t24.5 9.5q53 0 87 -16.5t67 -27.5q37 -12 55 -32.5t18 -36.5q0 -35 -7 -74t-17 -74.5t-21.5 -66.5t-21.5 -51q-20 -37 -34.5 -63.5t-27 -47t-22.5 -39t-23 -41.5q-6 -12 -17 -34.5 t-23.5 -47t-23.5 -47t-18 -35.5q-25 -45 -41 -76.5t-26 -52.5l-21 -41q-10 -25 -23 -53.5t-28 -50.5q-10 -20 -24.5 -46t-32.5 -67q-10 -23 -39 -65.5t-57 -83.5q-14 -23 -25.5 -40.5t-15.5 -29.5q-16 -39 -31.5 -81t-44.5 -60q-45 -29 -74 -29q-10 0 -32.5 8.5t-46 21.5 t-41 32.5t-17.5 42.5t10 45t14 39q2 14 5.5 27.5t8.5 30.5t14 40.5t26 58.5q27 51 50 105.5t46 83.5q8 10 18.5 26.5t22.5 35t23.5 34.5t19.5 29q8 10 7 24t-28 14q-35 0 -65.5 36t-46.5 77t-34.5 84t-35.5 82q-47 102 -59 205.5t-12 222.5z" />
<glyph unicode="z" horiz-adv-x="958" d="M45 141q0 43 21 84q39 80 128 157t183 148l41 31q25 18 32 36.5t9 31.5q0 27 -20.5 41t-53.5 14q-66 0 -102.5 1t-71.5 9q-16 4 -37.5 23.5t-34.5 79.5q-8 39 -18 62.5t-10 43.5q0 29 28.5 51.5t116.5 22.5q51 0 112.5 -7t122 -15.5t118 -15.5t104.5 -7q4 0 20.5 -2 t35.5 -4t35.5 -4t20.5 -2q31 0 44.5 -19.5t37.5 -38.5q10 -8 17.5 -13t11.5 -13.5t6 -21.5t2 -40q0 -53 -29.5 -93t-54.5 -71l-16 -20q-16 -20 -42 -43t-61 -51q-29 -25 -54 -41.5t-51 -30.5t-54.5 -29.5t-59.5 -36.5q-18 -12 -35.5 -24t-17.5 -23q0 -16 25.5 -31.5 t48.5 -21.5q70 -18 127 -38.5t98 -24.5q72 -10 112 -22.5t40 -47.5q0 -20 -11.5 -57t-34.5 -54q-16 -12 -45.5 -20t-76.5 -8q-29 0 -91.5 3t-137 9t-153.5 12t-141 13q-20 2 -34.5 5t-26.5 8t-26.5 10t-37.5 13q-27 10 -43 27.5t-16 54.5z" />
<glyph unicode="{" horiz-adv-x="608" d="M23 4q0 43 12 87t31.5 85t44 76t49.5 59q35 35 65.5 67t30.5 66q0 12 -10 27.5t-23.5 28t-26 21.5t-18.5 11q-8 4 -30.5 5.5t-49.5 15.5q-6 4 -20.5 25.5t-14.5 31.5q0 29 7.5 46.5t15.5 27.5t15.5 14t9.5 7q27 14 57.5 12t38.5 0q29 4 53.5 32.5t24.5 55.5 q0 49 -18.5 97t-40 102.5t-40 117t-18.5 135.5q0 41 20.5 91.5t55.5 81.5q29 27 61.5 43t63.5 16q72 0 116 -23q59 -31 60 -88q0 -47 -21.5 -74.5t-46 -45t-46 -29t-21.5 -25.5q6 -70 29.5 -115t49 -85.5t46 -88t20.5 -122.5q0 -31 -11.5 -57.5t-25.5 -46t-27.5 -31 t-15.5 -13.5q-20 -14 -15 -27.5t13 -21.5q25 -25 39 -51.5t14 -87.5q0 -31 -12 -66t-31.5 -66.5t-42 -59t-41.5 -44.5q-12 -10 -39.5 -36.5t-54 -60.5t-47 -70t-20.5 -64q0 -16 24.5 -30.5t54 -31t54 -33t24.5 -34.5q0 -29 -11 -33t-40 -21q-23 -10 -54.5 -10h-66.5 q-31 0 -63.5 4t-61.5 31q-35 31 -55 81t-20 91z" />
<glyph unicode="|" horiz-adv-x="591" d="M123 31q0 23 1 47t5 43q6 23 14.5 67.5t16.5 94t15 94.5t9 67q6 61 7.5 107.5t7.5 77.5q2 10 7 41.5t10 71.5t9 81t6 70q2 33 11.5 92t19.5 120.5t19.5 112t9.5 64.5q0 12 5 35.5t13 46.5q8 27 19 59q4 20 4 35q2 16 4 32.5t14 51.5q6 20 26.5 43t67.5 23 q27 0 49.5 -22.5t37 -63.5t16.5 -96.5t-10 -118.5q-4 -16 -7.5 -57.5t-11.5 -90.5q-2 -16 -7 -52t-11 -74t-10.5 -72.5t-6.5 -49.5q-10 -68 -22 -133t-25 -125q-10 -43 -22.5 -110.5t-23.5 -140t-19.5 -140t-8.5 -112.5q0 -41 -1 -65t-3 -54q-2 -18 -3 -50t-9 -71 q-10 -47 -43 -60.5t-63 -13.5q-31 0 -46.5 8.5t-33.5 34.5q-20 27 -28.5 72t-8.5 80z" />
<glyph unicode="}" horiz-adv-x="608" d="M43 492q0 31 14.5 56t30.5 43.5t31.5 30t17.5 13.5q20 14 15 27.5t-13 21.5q-25 25 -46 63.5t-21 100.5q0 31 12 62.5t31.5 60t42 52.5t41.5 40q12 10 30.5 26.5t36 38t28.5 47t11 54.5q0 14 -18.5 28.5t-42 27.5t-42 28.5t-18.5 34.5q0 29 3 60.5t32 47.5 q10 6 29.5 11.5t41 9.5t44 7t41.5 3q31 0 63.5 -4t61.5 -31q35 -31 55 -81t20 -91q0 -43 -12 -87t-31.5 -85t-44 -76t-49.5 -59q-35 -35 -65.5 -67t-30.5 -66q0 -12 9 -24.5t21.5 -22t24 -14.5t17.5 -7q8 -4 33.5 -15.5t52.5 -25.5q23 -16 32 -37.5t7 -43t-15.5 -40 t-36.5 -30.5q-27 -14 -56.5 -18.5t-37.5 -6.5q-29 -4 -54.5 -26.5t-25.5 -49.5q0 -49 18.5 -97t40 -102.5t40 -117t18.5 -135.5q0 -20 -13.5 -46t-31.5 -52.5t-40 -50.5t-38 -38q-14 -12 -40.5 -22.5t-55.5 -17.5t-56.5 -11t-41.5 -4q-25 0 -40.5 6t-15.5 45q0 12 20.5 32.5 t45 42t45 43t20.5 38.5q0 70 -22.5 128t-50 115.5t-50 119t-22.5 137.5z" />
<glyph unicode="~" horiz-adv-x="1126" d="M104 623q0 72 23 116q16 29 55 41.5t68 12.5q47 0 71.5 -18.5t42 -40t39 -39t62.5 -17.5q57 -4 80.5 9t52.5 30q66 39 123 66.5t119 27.5q61 0 108 -28.5t70 -67.5q18 -29 28.5 -64t15.5 -66.5t6 -54t1 -28.5q0 -20 -23.5 -45t-58.5 -25q-18 0 -29 14q-14 27 -24 32 t-14 14q-2 6 -11.5 18t-22 25.5t-27.5 23.5t-28 10q-35 0 -66.5 -30.5t-66.5 -65.5q-51 -49 -111.5 -60.5t-127.5 -13.5q-20 0 -57 7.5t-77 20.5t-76 30.5t-50 34.5q-27 29 -61 64.5t-34 66.5z" />
<glyph unicode="&#xa1;" horiz-adv-x="659" d="M29 -330q0 53 9 92t19 72l15 51q4 14 11 41t17 56h-2q16 53 40 116.5t26 112.5q6 33 12 63q4 27 9 55.5t5 47.5q0 27 11.5 63.5t17.5 65.5q10 35 47 35h76q45 0 57.5 -23.5t22.5 -62.5q4 -18 4 -35t-4 -33q-2 -14 -4 -26.5t-2 -41.5v-21t-2 -28q-2 -23 -4 -52.5t-2 -63.5 q0 -31 -11.5 -81t-21.5 -98q-8 -35 -14.5 -63.5t-6.5 -46.5v-55.5t-2 -47.5q0 -16 -1 -30.5t-1 -26.5q0 -41 -6 -60.5t-29 -50.5q-23 -29 -34 -47t-45 -18q-16 0 -28.5 2t-25 6t-27 10.5t-34.5 16.5q-12 6 -28.5 16t-30 24.5t-23.5 32t-10 33.5zM242 856q0 31 23.5 56.5 t45.5 45.5q23 18 41.5 30.5t46.5 12.5q14 0 42 -9t54.5 -25.5t46 -38.5t19.5 -49q0 -53 -47 -94.5t-119 -41.5q-20 0 -41.5 8.5t-56.5 43.5q-16 16 -35.5 29.5t-19.5 31.5z" />
<glyph unicode="&#xa2;" horiz-adv-x="882" d="M82 580q0 94 21.5 179t62.5 156.5t100.5 127t134.5 90.5q39 18 46.5 29.5t11.5 39.5q0 4 1 23.5t2 41t2 41t1 23.5q2 16 4 32.5t14 51.5q6 20 26.5 43t68.5 23q27 0 50 -22.5t37.5 -59.5t18.5 -84t-6 -96q-6 -31 3 -39.5t38 -16.5q20 -4 38.5 -13t35.5 -20 q47 -27 72.5 -56.5t25.5 -47.5q0 -33 -2 -50.5t-6 -25.5t-10.5 -12t-16.5 -12q-23 -18 -53.5 -37t-54.5 -19q-33 0 -52 19q-23 23 -44 20.5t-25 -24.5q-4 -23 -9.5 -61t-10.5 -84t-10 -96t-7 -95q-2 -16 7 -24.5t38 -8.5q8 0 24.5 3t33 8t32.5 8.5t27 3.5q25 0 42 -25 t17 -47q0 -20 -7 -33.5t-32 -42.5q-6 -6 -21.5 -15t-34 -19.5t-36.5 -19.5t-31 -15q-23 -12 -42 -16.5t-19 -26.5q0 -18 -2.5 -50t-10.5 -71q-10 -47 -42.5 -60.5t-63.5 -13.5t-65.5 20.5t-34.5 53.5q0 14 2 29.5t2 27.5t-7.5 19.5t-25.5 7.5q-72 0 -121 26.5t-79.5 72.5 t-44 107.5t-13.5 131.5zM360 616q0 -57 19 -90q8 -14 26.5 -6.5t20.5 27.5q4 35 3 69.5t-1 75.5q0 33 -2 59.5t-7 38t-14.5 0t-23.5 -50.5q-20 -55 -21 -123z" />
<glyph unicode="&#xa3;" horiz-adv-x="1202" d="M68 84q-6 27 1 50.5t19 39.5t27.5 26.5t27.5 10.5q20 0 60.5 23.5t80.5 63.5t69.5 94t29.5 118q0 10 -7 27.5t-26 17.5q-16 0 -21 -2t-28 -2q-8 0 -23.5 1t-33 2t-31.5 3t-20 4q-37 8 -52.5 27.5t-15.5 83.5q0 12 9 36.5t28.5 51t50.5 46t74 19.5q6 0 21.5 8.5t13.5 18.5 q-4 27 -9.5 51.5t-5.5 71.5q0 66 4 125t33 108q78 141 183.5 214t224.5 73h63.5t67 -3t61.5 -8t47 -14q39 -20 55.5 -52t16.5 -64q0 -12 -6 -44t-31 -57q-29 -29 -44 -45t-34 -16q-10 0 -26.5 2l-33 4t-31.5 5t-23 3q-23 2 -42.5 8.5t-66.5 6.5q-12 0 -29.5 -13.5t-33 -33 t-26.5 -44t-11 -47.5q0 -78 4 -132t8 -95q4 -33 17.5 -42t33.5 -9q23 0 39 -1t27 -1q2 0 13 -1t24.5 -2t24.5 -2t15 -1q10 -2 26.5 -5.5t37.5 -3.5q49 0 65.5 -38.5t16.5 -81.5q0 -14 -13.5 -30.5t-33 -32t-44 -26t-46.5 -10.5q-47 0 -80 -5t-53 -1q-4 0 -16.5 -2t-16.5 -24 q-2 -12 -5 -32t-8.5 -40.5t-10.5 -39.5t-11 -30q-4 -10 -4 -32.5t24 -32.5q47 -23 88 -26t101 -3q41 0 62.5 17.5t39 39t42 40t71.5 18.5q29 0 67.5 -12.5t55.5 -41.5q10 -23 13 -52t-7 -64q-16 -59 -36.5 -95t-47.5 -65q-16 -16 -50 -28.5t-73 -20.5t-75 -11t-56 -3 q-35 0 -76 9t-83 25.5t-82 39t-70 53.5q-6 4 -11.5 10t-13.5 9t-17 -1t-24 -21q-14 -16 -38.5 -39.5t-53.5 -44t-58.5 -35t-52.5 -14.5q-49 0 -83.5 3t-63.5 10q-16 4 -35.5 23.5t-23.5 33.5z" />
<glyph unicode="&#xa5;" horiz-adv-x="1005" d="M-4 426q0 12 9 36.5t28.5 51.5t50.5 46.5t74 19.5h28.5t34.5 -5q16 -2 23.5 4.5t-13.5 34.5q-63 90 -98 188.5t-50 189.5t-17.5 167t-2.5 123q0 12 -4 34.5t0 39.5q4 16 14.5 19t32.5 3q4 0 29 5.5t49 2.5q18 -2 32.5 -17t37.5 -19q12 -2 21.5 1t19.5 3q14 0 31.5 -20.5 t21.5 -41.5q8 -35 15.5 -48t11.5 -48q2 -20 7 -66.5t11 -97.5t13.5 -96t13.5 -66q16 -45 33.5 -73.5t42.5 -69.5q14 -23 23 -15.5t16 17.5q10 16 24 45t29.5 64.5t29 76.5t21.5 82q4 20 14.5 44t20.5 46q12 25 22.5 48.5t14.5 40.5q8 39 26.5 69.5t32.5 59.5q10 20 29.5 28 t36.5 8q37 0 52 -18t38 -27q18 -6 33.5 -19t25.5 -20q16 -10 25.5 -18t9.5 -31q0 -18 -11.5 -52t-26.5 -70.5t-31.5 -71.5t-26.5 -56q-41 -78 -67 -129t-48 -92q-10 -18 -26.5 -48t-20.5 -46q-2 -16 -5 -33.5t-1 -32t13 -24.5t38 -12q10 -2 26.5 -5.5t36.5 -3.5 q49 0 67.5 -28.5t18.5 -71.5q0 -14 -19 -37.5t-46 -47t-54.5 -40t-43.5 -16.5q-47 0 -98.5 7t-71.5 7q-45 0 -66 -51q-10 -25 -24.5 -54.5t-31 -60t-29.5 -59.5t-19 -47q-8 -23 -13.5 -38t-10.5 -26.5t-11 -20.5t-12 -22q-10 -16 -25.5 -31.5t-33 -27.5t-31 -19.5 t-17.5 -7.5q-6 0 -18.5 7.5t-25.5 17.5t-24.5 19.5t-17.5 13.5q-25 18 -48.5 32.5t-23.5 36.5q0 23 3 45.5t12.5 51t26 66.5t42.5 91q12 25 13.5 52.5t-25.5 31.5q-8 0 -30.5 1t-47 3t-45 3t-27.5 3q-37 8 -52 27.5t-15 83.5z" />
<glyph unicode="&#xa6;" horiz-adv-x="591" d="M123 31q0 23 1 47t5 43q6 23 15.5 70t18.5 98t15 95t6 60q0 33 -1 66t-1 51t16.5 41t53.5 31t67.5 -10.5t49.5 -32.5q18 -14 30.5 -41t3.5 -78q-8 -51 -24.5 -141t-16.5 -180q0 -41 -1 -65t-3 -54q-2 -18 -14 -48t-20 -69q-10 -47 -32 -62.5t-52 -15.5q-31 0 -46.5 8.5 t-33.5 34.5q-20 27 -28.5 72t-8.5 80zM240 829q0 12 3 48t9 83.5t12 100.5t12.5 99t10.5 79t4 43q0 12 5 35.5t13 46.5q8 27 19 59q4 20 4 35q2 16 4 32.5t14 51.5q6 20 26.5 43t67.5 23q27 0 49.5 -22.5t37 -63.5t16.5 -96.5t-10 -118.5q-4 -16 -7.5 -57.5t-11.5 -90.5 q-2 -16 -14 -60l-25.5 -93.5t-25 -92.5t-13.5 -57q-4 -29 -25.5 -49.5t-37.5 -36.5q-35 -31 -80 -31q-20 0 -37.5 26t-19.5 64z" />
<glyph unicode="&#xa7;" horiz-adv-x="888" d="M27 2.5q-2 22.5 8 81.5q2 14 13 29.5t24.5 28t28 19.5t22.5 7q10 0 27.5 -3t36 -8t35 -8.5t24.5 -3.5h98q47 0 77 30t30 71q0 39 -37 59.5t-95 48.5q-16 6 -39.5 22.5t-47 34t-45 34t-29.5 22.5q-4 2 -13.5 14.5t-19.5 26.5t-19.5 28.5t-13.5 22.5q-16 31 -24.5 53.5 t-8.5 61.5q0 90 54 155q18 23 45.5 47.5t54.5 34.5q29 10 34 27.5t-5 32.5q-23 29 -38.5 61.5t-15.5 67.5q0 66 38 131t103.5 118.5t154.5 86t194 32.5q20 0 33.5 -2t42.5 -10q25 -8 54.5 -30.5t39.5 -41.5q10 -20 7 -45.5t-7 -56.5q-2 -14 -16.5 -29.5t-32 -28t-34.5 -19.5 t-26 -7q-20 0 -53 11.5t-49 11.5q-39 0 -59.5 -8.5t-45.5 -8.5q-100 0 -100 -84q0 -20 9.5 -33.5t26.5 -25.5t42 -23.5t53 -25.5q14 -6 39 -22.5t48.5 -34t44 -34t30.5 -22.5q4 -4 13.5 -15.5t19.5 -25.5t19 -28.5t14 -22.5q16 -31 24 -53.5t8 -61.5q0 -90 -53 -155 q-18 -23 -47 -46.5t-53 -35.5q-18 -10 -23.5 -23.5t15.5 -34.5q55 -55 55 -121t-39 -125t-106.5 -104t-157.5 -71.5t-195 -26.5q-20 0 -33.5 2t-42.5 10q-37 12 -61.5 10t-38.5 3.5t-16 28zM328 700q0 -16 15 -51t58 -63q23 -16 49 -16t46 10q12 6 35.5 28.5t23.5 57.5 q0 16 -22.5 55t-51.5 59q-20 14 -33.5 19.5t-29.5 1.5q-39 -12 -64.5 -39t-25.5 -62z" />
<glyph unicode="&#xa8;" horiz-adv-x="1153" d="M408 1249q0 27 16 54.5t39.5 49t50.5 36t45 14.5q37 0 77 -23.5t42 -56.5q2 -49 -1 -64t-3 -38q0 -16 -9.5 -35t-25.5 -35t-42 -27.5t-58 -11.5q-66 0 -98.5 42t-32.5 95zM846 1210q0 23 9 50.5t29.5 52t50.5 41t73 16.5q20 0 47.5 -8t52.5 -24.5t42 -40t17 -54.5 q0 -18 -15 -43.5t-40 -49.5t-53.5 -40t-52.5 -16q-25 0 -52.5 12t-51 29.5t-40 38t-16.5 36.5z" />
<glyph unicode="&#xa9;" horiz-adv-x="1370" d="M63 545q0 152 25 263.5t68 197.5t101 151.5t126 124.5q66 59 156 103.5t192 41.5q14 0 27.5 -9t23 -22.5t15.5 -27.5t6 -27q0 -25 10 -26.5t29 -1.5q20 0 45.5 4t75.5 -10q25 -6 57.5 -20.5t64 -33t59 -38t42.5 -37.5q16 -20 39.5 -58.5t44 -84.5t35 -96t14.5 -99 q0 -78 -23.5 -170t-66.5 -186.5t-105.5 -181.5t-138.5 -155q-47 -41 -102.5 -70.5t-110.5 -48t-107.5 -26.5t-95.5 -8q-129 0 -222 31.5t-152 78.5q-37 29 -61.5 65t-40 86t-23 120.5t-7.5 169.5zM311 551q0 -63 5.5 -107.5t15.5 -76t24.5 -53t34.5 -38.5q33 -27 76 -42 t98 -15q82 0 145.5 11.5t117 40t97.5 75.5t87 121q20 37 42.5 80t41 88t31 90t12.5 88q0 74 -22.5 121t-56.5 76.5t-75 46t-79 26t-67.5 16.5t-41.5 19q-10 12 -24.5 23.5t-14.5 32.5q0 10 -8.5 22t-20.5 2q-29 -20 -63.5 -28.5t-77.5 -34t-93.5 -83t-105.5 -173.5 q-18 -41 -33.5 -92.5t-24.5 -98.5t-14.5 -85t-5.5 -52zM410 596q0 68 25.5 143.5t75.5 138t126 103.5t174 41q16 0 34.5 -5t35.5 -13q16 -4 43.5 -12.5t38.5 -18.5q12 -10 26.5 -31.5t11.5 -54.5q-2 -31 -23.5 -52.5l-33.5 -33.5q-4 -4 -13 -7t-21.5 -4.5t-22.5 -2.5t-15 -1 q-8 0 -30.5 5.5t-28.5 9.5q-10 6 -24.5 10t-43.5 4q-20 0 -40.5 -20.5t-38 -54t-27.5 -74.5t-10 -80q0 -25 9 -48.5t24.5 -44t32 -32.5t32.5 -12q43 0 77 21.5t50 21.5q12 0 29.5 4t19.5 -13q4 -43 -13.5 -66.5t-27.5 -33.5q-72 -57 -133 -71.5t-108 -14.5q-55 0 -94.5 27.5 t-65.5 62.5q-51 72 -51 209z" />
<glyph unicode="&#xaa;" horiz-adv-x="925" d="M80 850q0 59 21.5 128t58.5 137.5t87 133t105.5 113.5t114.5 78.5t115 29.5q20 0 47.5 4.5t58.5 -6.5q41 -16 43 -38.5t6 -43.5q4 -29 16.5 -31.5t37.5 -2.5q16 0 28 -6.5t23 -10.5q18 -10 19 -24.5t1 -36.5q0 -41 -14 -91t-31.5 -104.5t-32 -105.5t-14.5 -92 q0 -27 4 -50.5t8 -46.5q4 -16 6.5 -53t2.5 -47q0 -29 -17.5 -51.5t-54.5 -32.5q-29 -6 -41 -6t-35 -4q-27 -4 -47.5 15.5t-20.5 78.5q0 12 -5 24.5t-3 22.5q0 8 -1 28.5t-1 28.5q0 37 -8 31t-14 -18q-51 -100 -132 -150.5t-153 -50.5q-49 0 -84 20.5t-55.5 54.5t-29.5 79 t-9 96zM305 883q0 -29 8 -39t35 -10q16 0 39 18t47.5 45t46 57.5t35.5 55.5q6 10 17.5 32.5t23.5 46t23.5 44t17.5 26.5q6 4 5 11.5t-7 7.5q-23 2 -23 30q0 23 -24 23q-29 0 -71 -34t-80 -86t-65.5 -113.5t-27.5 -114.5z" />
<glyph unicode="&#xab;" horiz-adv-x="1191" d="M68 601q0 42 19 81t67 70q25 18 52 40.5t54 46t51.5 44t42.5 35.5q8 6 25.5 16t39 20.5t43 17.5t38.5 7q49 0 91 -22.5t42 -67.5q0 -10 1 -26.5t0 -34t-5 -34t-13 -24.5q-16 -16 -39.5 -31.5t-48 -29t-44 -24.5t-25.5 -17q-8 -6 -21.5 -14.5t-26 -15.5t-21.5 -15.5 t-9 -16.5q0 -6 7 -22.5t22.5 -38t39 -45t56.5 -43.5q14 -10 38.5 -19.5t46 -23t38 -33.5t16.5 -51q0 -25 -16.5 -40.5t-40 -23.5t-50 -11t-46.5 -3q-29 0 -48.5 5t-54.5 26q-10 6 -48 28.5t-79 48t-76.5 49t-44.5 31.5q-35 37 -54 78t-19 83zM563 599q4 28 25.5 58.5 t56.5 67.5q8 8 43 38t75 62.5t77 60t47 34.5q35 20 85 41.5t79 21.5q41 0 54 -17.5t13 -66.5q0 -31 -12 -55.5t-29.5 -43t-38 -32.5t-34.5 -23q-33 -20 -56.5 -43.5t-39 -45t-22.5 -38t-7 -22.5q0 -8 9 -18.5t22.5 -21.5t26.5 -21.5t21 -16.5q14 -14 57.5 -33.5t76.5 -52.5 q8 -8 15 -24.5t12 -34t8 -34t3 -26.5q0 -45 -41.5 -67.5t-91.5 -22.5q-16 0 -37.5 7.5t-43 17.5t-39 20.5t-25.5 16.5q-18 14 -45 39.5t-54.5 55.5t-57 57.5t-54.5 45.5q-47 31 -64.5 59.5t-13.5 56.5z" />
<glyph unicode="&#xac;" d="M80 592q0 12 9 36.5t28.5 51.5t50.5 46t74 19q12 0 28.5 -1t34.5 -3q16 -2 34.5 -3t31.5 -1h69.5t57.5 -2q23 0 38 -8t46 -8q2 0 13 -1t24.5 -2t24.5 -2t15 -1q10 -2 26.5 -5t37.5 -3q49 0 67.5 -29t18.5 -72q0 -12 -7 -38.5t-15.5 -61.5t-16.5 -73t-10 -71 q-2 -10 -7.5 -42t-11.5 -50q-12 -39 -34.5 -62.5t-65.5 -23.5q-14 0 -31.5 13.5t-33 34t-25.5 46t-10 48.5q0 35 -2 57t-2 45q0 27 -10.5 37t-30.5 14q-12 2 -43 1t-47 -1q-10 0 -37 -2t-43 -2q-23 -2 -35 -2h-35q-8 0 -23.5 1t-33 2t-31.5 3t-21 4q-37 8 -52 27.5t-15 83.5 z" />
<glyph unicode="&#xad;" d="M96 631q0 12 6.5 31.5t22.5 38t45 31.5t72 13q12 0 28.5 -1t34.5 -3q16 -2 34.5 -3t31.5 -1h59.5t46.5 -2q23 0 48.5 -1t56.5 -1h13t15 -2q10 -2 23.5 -3t34.5 -1q49 0 82.5 -42t33.5 -142q0 -14 -13 -31.5t-39.5 -33t-63.5 -27t-84 -11.5t-76 5.5t-49 9.5q-10 4 -21.5 6 t-27.5 2q-10 0 -27.5 -1t-34.5 -1q-23 -2 -46 -2h-46h-31.5t-27.5 4q-37 8 -69 56t-32 112z" />
<glyph unicode="&#xae;" horiz-adv-x="1370" d="M63 483q0 199 35 335t91.5 232.5t126 164t137.5 126.5q66 59 152.5 90t189.5 29q14 0 31.5 -6t31.5 -16.5t23.5 -22.5t9.5 -24q0 -25 10 -27t29 -2q20 0 45.5 4t75.5 -10q49 -14 94 -54t74 -75q16 -20 34.5 -56t32.5 -79t23.5 -92.5t9.5 -98.5q0 -78 -23.5 -170 t-66.5 -186t-105.5 -181t-138.5 -155q-96 -84 -219 -119t-246 -35q-92 0 -162.5 35t-130.5 82q-72 57 -118 132t-46 179zM311 494q0 -37 4 -82t45 -78q33 -27 91.5 -40t113.5 -13q27 0 76 8t106.5 31.5t115 67.5t100.5 118q20 37 42.5 80t39 89t27.5 92t11 89 q0 82 -28.5 128t-65.5 73.5t-73.5 43t-55.5 34.5q-10 12 -18 21t-8 30q0 10 -6.5 19t-22.5 5q-27 -8 -74 -8t-104.5 -19.5t-120 -72.5t-117.5 -170q-18 -41 -33.5 -94t-24.5 -111.5t-14.5 -121t-5.5 -119.5zM381 428q0 16 5 47t10 64.5t9.5 65.5t2.5 48q0 16 4 43t9 53.5 t9 48t6 27.5q31 111 88 179q25 29 46.5 48t50.5 33q37 16 71 23q45 10 86 10q45 0 83 -35.5t38 -119.5q0 -57 -14 -103q-16 -55 -49 -98t-80 -78q-10 -8 -19.5 -15t-13.5 -12q-4 -10 -7 -20t1 -16q20 -43 40.5 -75t39.5 -42q23 -14 43 -41t20 -39q0 -10 -12 -17.5t-23 -7.5 q-6 0 -21.5 -2t-29.5 2q-59 12 -110.5 46t-77.5 59q-6 6 -17.5 4t-13.5 -14q-4 -23 -4 -39.5t-12 -44.5q-23 -53 -48.5 -62.5t-39.5 -9.5q-12 2 -21 6q-18 6 -33 21q-10 10 -13 32.5t-3 30.5zM618 821q0 -10 4.5 -18t14.5 -8q12 0 12 8q4 6 10.5 10t10.5 10q10 10 24.5 28.5 t14.5 43.5q0 29 -25 29q-8 0 -19.5 -11.5t-21.5 -27t-17.5 -33.5t-7.5 -31z" />
<glyph unicode="&#xaf;" d="M141 1288q0 12 6.5 31.5t22.5 38t45 32t72 13.5q12 0 28.5 -1t34.5 -3q16 -2 34.5 -3t31.5 -1h59.5t46.5 -2q23 0 48.5 -1t56.5 -1h13t15 -2q10 -2 23.5 -3.5t34.5 -1.5q25 0 46 -4t36.5 -19t24.5 -45t9 -79q0 -14 -13 -31.5t-39.5 -33t-63.5 -26.5t-84 -11t-76 5t-49 9 q-10 4 -21.5 6t-27.5 2q-10 0 -27.5 -1t-34.5 -1q-23 -2 -46 -2h-46h-31.5t-27.5 4q-37 8 -69 38t-32 93z" />
<glyph unicode="&#xb0;" horiz-adv-x="1030" d="M201 1069q0 74 27.5 141.5t74.5 122.5q57 66 133 93.5t148 27.5q41 0 65.5 -14.5t38.5 -34t20.5 -38.5t8.5 -28q4 -16 13 -21t28 -5h41.5t50.5 -37q8 -10 16 -21.5t15.5 -32t12.5 -52t5 -80.5q0 -59 -43 -122t-105.5 -114t-133 -83t-128.5 -32q-63 0 -116.5 27t-91 72 t-59 104t-21.5 127zM426 1094q0 -61 26.5 -104.5t67.5 -43.5q25 0 48.5 12.5t41 32t28.5 43t11 45.5q0 47 -15.5 77t-25.5 63q-6 16 -9 21t-17 5t-16.5 -1t-12.5 -17q-18 -29 -36.5 -48.5t-45.5 -33.5q-10 -4 -27.5 -15.5t-17.5 -35.5z" />
<glyph unicode="&#xb1;" horiz-adv-x="931" d="M57 307q0 12 9.5 37t29 51.5t50 46t73.5 19.5q12 0 28.5 -1t35.5 -3l63 -10.5t113.5 -18.5t124 -18.5t94.5 -10.5q10 -2 26.5 -5t36.5 -3q49 0 67.5 -28.5t18.5 -71.5q0 -14 -17 -29.5t-43 -29t-55.5 -22.5t-52.5 -9t-51 -2t-55 -4t-48.5 -3.5t-31.5 1.5q-6 2 -17.5 2 h-25.5t-26.5 -1t-20.5 -1q-10 0 -37 -2.5t-43 -2.5q-23 -2 -35 -2h-35q-8 0 -23 1t-32.5 2t-32 3.5t-20.5 4.5q-37 8 -52.5 27.5t-15.5 82.5zM129 975q0 12 4 31.5t14.5 38t26.5 32t41 13.5h135q39 0 59.5 21.5t22.5 29.5q2 23 10.5 47t12.5 47q2 8 5 23.5t8 32t9 30.5t6 20 q16 35 58.5 62t85.5 27q53 0 88 -39t35 -109q0 -6 -5.5 -26.5t-12.5 -43t-13 -44t-8 -29.5q-14 -63 37 -64q2 0 13 -1t24.5 -2t24.5 -2t15 -1q10 -2 26.5 -5t37.5 -3q25 0 43 -11.5t31.5 -27.5t19.5 -34.5t6 -33.5q0 -14 -9 -34.5t-24.5 -39t-37 -31.5t-44.5 -13h-50t-54 -1 t-47.5 -1h-30.5q-29 0 -52.5 -2.5t-27.5 -38.5q0 -4 -3 -14.5t-6 -23t-6 -23.5t-5 -15q-4 -10 -10.5 -25.5t-10.5 -36.5q-10 -47 -53 -67.5t-84 -12.5q-14 2 -31.5 10.5t-32 22t-23.5 31.5t-5 41t6 36t3 20t2 13.5t5 16.5v8t-5 17.5t-14 16.5t-24 7q-23 0 -37 -4t-36 -4 q-16 0 -30.5 12t-23.5 23q-35 39 -47 76.5t-12 56.5z" />
<glyph unicode="&#xb2;" horiz-adv-x="856" d="M48 503.5q-5 16.5 1 33.5q8 23 25.5 43t29.5 32q29 31 71 70t85 82q51 49 105.5 100t97.5 97.5t70.5 84t27.5 60.5q0 41 -29.5 64.5t-64.5 23.5q-41 0 -87 -32t-87 -52q-31 -14 -56.5 -25.5t-41.5 -11.5q-33 0 -58.5 15.5t-30.5 33.5q-2 14 -4 42t-2 50q0 14 17.5 30 t36.5 34q25 25 62.5 51.5t83.5 47t98.5 33.5t107.5 13q25 0 58.5 -3t70.5 -13q18 -4 34.5 -17.5t32.5 -25.5l31 -21q39 -29 60.5 -75.5t21.5 -112.5q0 -88 -42 -157.5t-105 -116.5q-33 -23 -67 -56.5t-58 -54.5q-10 -10 -30.5 -31.5t-39.5 -36.5q-16 -14 -36.5 -38.5 t-28.5 -36.5q-23 -35 -16 -42t38 -16q29 -8 68 -16t75.5 -15.5t66.5 -11.5t38 -4q23 0 42 -13t36 -24q14 -8 20 -11t6 -25q0 -18 -5 -26.5t-34 -23.5q-10 -4 -23 -14t-30 -14q-6 0 -23.5 -3t-39 -5.5t-41 -4.5t-25.5 -2q-31 0 -96.5 4.5t-135 10.5t-129 12t-79.5 10 q-29 6 -48.5 29.5t-19.5 52.5q0 12 -5 28.5z" />
<glyph unicode="&#xb3;" d="M41 410q0 29 29.5 48t83.5 27q137 20 225 78t88 135q0 33 -25.5 56.5t-62.5 23.5q-23 0 -39 -9t-43 -26q-6 -4 -20.5 -5t-32 1t-30.5 4t-15 7q-12 16 -28.5 32.5t-16.5 40.5q0 25 17 46.5t46 42t64.5 37t70.5 28.5q33 12 67 24.5t61.5 30t45 43t17.5 66.5q0 35 -13.5 54 t-50.5 19q-23 0 -64.5 -12t-70.5 -24q-33 -16 -47 -27.5t-31 -22.5q-12 -10 -30.5 -9t-30.5 1q-6 0 -17.5 17.5t-22.5 42t-18.5 54.5t-7.5 54q0 16 9.5 27.5t21.5 19.5t25.5 14.5t23.5 12.5q12 8 54 20.5t90.5 22.5t92.5 18.5t60 8.5q55 0 105.5 -8.5t88.5 -31t61.5 -62.5 t23.5 -101t-20.5 -109.5t-52.5 -85.5t-70 -64.5t-70 -45.5q-10 -6 -17.5 -17.5t19.5 -19.5q29 -10 56.5 -30.5t49 -46.5t33.5 -54.5t12 -55.5q0 -47 -27.5 -97t-68.5 -95l-37 -37t-37 -27q-23 -14 -54.5 -28.5t-53.5 -28.5q-6 -4 -20.5 -8t-32 -8t-34 -7.5t-22.5 -3.5 q-43 2 -69.5 -2t-51.5 -8q-49 -6 -78.5 -8t-60.5 -2q-25 0 -36 21.5t-11 48.5z" />
<glyph unicode="&#xb4;" horiz-adv-x="704" d="M172 1153q0 10 5 16.5t15.5 16.5t27 28.5t38.5 53.5q12 18 28.5 39.5t33 41t29.5 37t20 29.5q23 39 35 60.5t21 31t20.5 10.5t33.5 1q27 0 58.5 -17.5t58.5 -40t44 -44t17 -27.5q0 -18 -17 -41t-45 -49.5t-64.5 -55t-73.5 -57.5q-33 -25 -67 -46.5t-63.5 -37t-52 -24.5 t-30.5 -9q-31 0 -51.5 27.5t-20.5 56.5z" />
<glyph unicode="&#xb5;" horiz-adv-x="1126" d="M-100 -354q0 51 19.5 90t29.5 71l90 259q12 33 23.5 73.5t22.5 103t23.5 151.5t26.5 220q4 47 27.5 89t46.5 67q8 10 23.5 26.5t33 33t33.5 29.5t29 18q29 10 43 15t24.5 7t23.5 2h42q23 0 36 -19.5t13 -45.5q0 -39 -10.5 -74t-26.5 -70q-14 -29 -29.5 -74t-19.5 -77 q-2 -16 -5 -30.5t-5 -31.5q-4 -18 -6 -31.5t-2 -31.5q0 -39 10 -70t28 -31q41 0 89.5 54.5t84.5 128.5q16 33 28.5 54t23 36.5t19.5 30t22 36.5q20 35 41.5 64t38.5 51q20 27 34.5 41t26.5 23.5t24.5 14.5t30.5 15q12 6 28.5 15.5t35 16.5t36 9t33.5 -8q25 -16 29 -51t4 -55 q0 -29 -8 -84.5t-23 -114.5q-2 -12 -8 -38t-13 -53.5t-14.5 -53t-9.5 -37.5q-4 -23 -7 -36.5t-4 -22.5t-1 -17v-21q0 -33 -4 -76.5t-4 -66.5q0 -16 6 -35.5t12 -38t12.5 -34t6.5 -19.5q0 -23 -23.5 -41t-54.5 -31.5t-60.5 -21.5t-41.5 -8q-25 0 -49.5 7t-45 19.5t-33 27.5 t-12.5 30q0 14 3 36.5t6.5 47t7.5 45t8 28.5q6 16 6 36v34q0 33 -14.5 33t-20.5 -25q-2 -6 -23.5 -32.5t-41.5 -51.5q-6 -6 -33 -24.5t-57.5 -39t-57 -37t-31.5 -20.5q-18 -16 -43.5 -27.5t-50 -21.5t-44 -22.5t-23.5 -28.5l-21 -78q-4 -18 -6 -30.5t-2 -21.5v-20.5v-29.5 q0 -14 5 -31.5t7 -36t-3 -40t-23 -42.5q-12 -12 -42 -30.5t-62 -35t-58.5 -27.5t-32.5 -11t-20.5 1t-30.5 4t-31.5 9t-23.5 14q-18 20 -29.5 41t-11.5 56z" />
<glyph unicode="&#xb6;" horiz-adv-x="1204" d="M117 969q0 109 36.5 192.5t99 140t143.5 86t169 29.5q16 0 69.5 -2t115 -5t121 -7t87.5 -6q25 -2 54.5 -8.5t57.5 -18.5t50.5 -28.5t30.5 -41.5q10 -29 15 -58.5t5 -63.5q0 -10 -3 -34t-6 -49.5t-7 -48t-4 -30.5l-14 -92q-4 -18 -6.5 -44t-4.5 -52.5t-4 -51t-4 -37.5 q-2 -16 -10 -56t-17.5 -89t-20.5 -104.5t-21.5 -102.5t-16.5 -82t-8 -45q-16 -117 -19.5 -226.5t-9.5 -197.5q-4 -20 -4 -35q-2 -16 -4 -32.5t-14 -51.5q-6 -20 -35 -40.5t-76 -20.5q-35 0 -59.5 7t-48.5 26q-18 14 -28.5 33.5t-25.5 48.5q-6 10 -5 28.5t4 40t7.5 41 t4.5 33.5q0 16 1 39.5t9 73.5q2 16 9 50t15.5 70.5t14.5 68.5t8 48q2 23 10 70t18.5 105.5t21.5 121t20.5 117.5t16.5 95t9 52q8 43 12.5 71t7.5 52.5t4 52t1 72.5q0 41 -11.5 48t-19.5 7q-12 0 -26.5 3.5t-30.5 7.5t-30.5 -7.5t-20.5 -50.5q-10 -70 -34 -181.5t-46 -233.5 q-8 -53 -22.5 -133t-29 -169.5t-29 -180.5t-26.5 -168.5t-19 -134t-7 -77.5q0 -31 -5.5 -49t-15.5 -43q-6 -14 -26.5 -36.5t-34.5 -30.5q-10 -6 -40 -16.5t-65 -12.5q-12 0 -25.5 10t-24.5 25.5t-20.5 29t-13.5 19.5q-14 16 -18 27.5t-4 40.5q0 8 15 49t26 88q4 14 10 55 t14 93t17.5 111.5t17.5 114t15.5 95.5t11.5 59q18 80 26.5 138.5t10.5 70.5q4 35 -17.5 51.5t-48.5 16.5q-63 0 -106 28.5t-70 69.5t-38 86t-11 76z" />
<glyph unicode="&#xb7;" horiz-adv-x="489" d="M145 610q0 43 16.5 73t42 48.5t56.5 26.5t59 8q33 0 61 -18.5t48.5 -45t30.5 -56.5t10 -50q0 -78 -50 -118t-114 -40q-66 0 -113 41t-47 131z" />
<glyph unicode="&#xb8;" horiz-adv-x="1030" d="M150 -455q0 23 17 36t28 24q23 18 44 19t44 1q61 0 100 12.5t39 53.5q0 29 -16.5 48t-40.5 30q-43 16 -86 16q-23 0 -36.5 6t-29.5 14q-16 10 -31.5 17.5t-13.5 34.5q2 12 8 31.5t21 37.5q14 18 41.5 17.5t54.5 -0.5q59 0 127.5 -7.5t126 -27t95.5 -54t38 -92.5 q0 -70 -32 -125t-93 -102q-53 -41 -127 -72.5t-180 -31.5q-59 0 -78.5 30.5t-19.5 83.5z" />
<glyph unicode="&#xb9;" horiz-adv-x="811" d="M67 925.5q7 24.5 7 47.5q0 6 6 20.5t14 30.5t16.5 30.5t12.5 20.5q25 31 40 43t44 31q14 8 50 38t75 64.5t73 66.5t46 46q14 16 34.5 33.5t43 31t46 21.5t41.5 8q70 0 97.5 -41t27.5 -110q0 -12 -4 -45t-10 -74q-4 -27 -8 -54.5t-6 -50.5q-4 -29 -13.5 -83t-18.5 -112.5 t-15.5 -109.5t-6.5 -69q2 -20 3.5 -39t1.5 -39q0 -10 -4.5 -30.5t-9.5 -44.5t-10 -44t-7 -31q-2 -12 -14.5 -29.5t-32 -33t-42 -26.5t-46.5 -11q-18 0 -45 18.5t-33 26.5q-4 6 -8 8t-7.5 6t-5.5 12.5t-2 24.5q0 29 -2 40t-2 34q0 10 1 37.5t5 38.5q4 14 5.5 42.5t5.5 49.5 q2 20 8 57t12 79t12.5 80t8.5 60q4 33 -5.5 31t-37.5 -20q-12 -10 -46 -34t-72 -50.5t-73 -48t-49 -25.5q-35 -10 -58.5 -7t-35.5 31q-14 29 -7 53.5z" />
<glyph unicode="&#xba;" horiz-adv-x="866" d="M115 948q0 104 67.5 212t182.5 198q16 12 29.5 28.5t30.5 32t42 26.5t63 11q25 0 47.5 -12t36.5 -39q12 -25 19.5 -32t23.5 -7q23 0 47.5 -3t40.5 -17q23 -16 36.5 -45t13.5 -54q0 -84 -30 -188.5t-89.5 -197.5t-146 -156.5t-199.5 -63.5q-61 0 -103.5 26.5t-67 69.5 t-34.5 98.5t-10 112.5zM334 926q0 -92 41 -92q25 0 57.5 31.5t62 78.5t50 99.5t20.5 95.5q0 8 -1 12t-3 8t-5 10.5t-7 18.5q-4 14 -9 19t-20 5h-21.5t-21.5 -14t-24.5 -32.5t-28.5 -36t-25.5 -32t-13.5 -16.5q-27 -41 -39 -86t-12 -69z" />
<glyph unicode="&#xbb;" horiz-adv-x="1191" d="M66 313q0 20 19 50t36 47q33 33 67.5 63.5t49.5 44.5q8 6 21 16.5t26.5 21.5t22.5 21.5t9 18.5q0 12 -15 30.5t-81 59.5q-16 8 -41.5 25.5t-50.5 40t-42 50t-17 58.5q0 25 10 50.5t25.5 45t36 32.5t40.5 13q29 0 60.5 -20t66.5 -41q10 -6 47 -37t77 -67.5t75 -69.5 t43 -41q33 -37 64.5 -66.5t45 -57.5t4 -55.5t-54.5 -58.5q-25 -18 -53.5 -40.5l-57 -45t-54 -43t-44.5 -34.5q-8 -6 -31.5 -18.5t-52 -26t-57.5 -22.5t-45 -9q-25 0 -51.5 2t-48 8t-35.5 19.5t-14 35.5zM557 293q0 31 15.5 56.5t36 47t43 35.5t38.5 25q33 20 62.5 41.5 t53 41t37 34t13.5 20.5q0 8 -15.5 23.5t-36 33t-40 33.5t-27.5 23q-6 6 -23.5 17t-39 24.5t-43 29t-37.5 31.5t-24.5 50t-8.5 54q0 23 12.5 36.5t31 19.5t43 8t48.5 2q16 0 41 -7t49.5 -16.5t45 -19.5t28.5 -16q18 -14 40 -36l45.5 -45.5t48 -46t48.5 -40.5q45 -31 65.5 -70 t20.5 -81t-20 -83t-53 -78q-8 -8 -44 -31.5t-77 -49t-79 -48t-48 -28.5q-35 -20 -70 -35t-63 -15h-41t-38 5.5t-27.5 17.5t-10.5 37z" />
<glyph unicode="&#xbc;" horiz-adv-x="2031" d="M252 1085q0 10 8 27.5t8 30.5q0 29 29 50t57 40q68 45 130.5 106.5t120 117.5t108.5 95t98 39q35 0 60.5 -15t42 -41t24.5 -58.5t8 -67.5q0 -10 -3 -34.5t-8 -56.5t-10 -66.5t-10 -65.5q-4 -31 -9 -46.5t-10 -23.5t-10 -13t-9 -18q-12 -33 -19.5 -63.5t-7.5 -93.5 q0 -41 4 -81t4 -83q0 -10 -4 -30.5t-9 -44t-10.5 -45t-7.5 -32.5q-2 -12 -14 -28.5t-31.5 -32.5t-42 -27.5t-47.5 -11.5q-20 0 -38.5 10t-32 24.5t-21.5 32t-8 31.5q0 29 -8.5 54.5t-8.5 48.5q0 10 4.5 22.5t8.5 24.5l-2 -2q4 14 8 29.5t4 35.5q0 68 5 108t12.5 71.5 t15.5 64.5t14 88q0 33 -12 33q-10 0 -33 -23q-18 -23 -52 -55.5t-69 -63t-66.5 -53t-45.5 -22.5q-18 0 -28.5 -1t-14.5 -1q-20 25 -37 47q-14 18 -24.5 37.5t-10.5 31.5zM688 68q0 23 4 47t10 43q12 41 24.5 64.5t25 42t23.5 36.5t22 47q18 55 28.5 80t20.5 43t23.5 42 t35.5 77q6 16 29.5 68.5t56.5 122t70 146.5t68.5 142.5t52 110.5t22.5 53q14 29 21.5 42t10.5 19t4 10.5t3 12.5q2 4 5 17.5t14.5 26.5t33 24.5t62.5 11.5q25 0 44 -23.5t19 -52.5q0 -10 -1 -18.5t-1 -16.5q0 -23 8.5 -31t8.5 -24q0 -14 -16.5 -54t-41 -96.5t-55.5 -121 t-60.5 -125t-54 -112.5t-39.5 -81q-29 -61 -60.5 -116.5t-61 -107.5t-56 -105.5t-47.5 -110.5q-10 -31 -20.5 -53.5t-12.5 -36.5q0 -16 -22.5 -40t-32.5 -53q-4 -16 -40 -28.5t-64 -12.5q-63 0 -64 91zM1141 217v46.5t2 24.5t8 15t16 21q31 39 71 98t99 127q27 31 66 74 t79 88t74.5 88t55.5 73q12 18 31.5 30.5t42 20t47 11.5t43.5 4q70 0 90 -44t20 -112q0 -10 -4 -50t-10 -86t-10 -85t-4 -47q0 -16 -9.5 -35.5t-11.5 -29.5q-2 -14 -4 -39t-3 -47.5t-1 -40t4 -19.5q33 -14 60.5 -19t49 -10.5t34 -13.5t12.5 -29q0 -72 -42 -111.5t-114 -39.5 q-29 0 -33 -18.5t-4 -46t-2 -61.5t-22 -65q-12 -18 -18.5 -29.5t-12.5 -16.5t-17.5 -7t-37.5 -2q-23 0 -43.5 7t-49.5 7q-2 0 -11 9.5t-20.5 21.5t-19.5 24.5t-8 20.5q0 33 9 62.5t9 83.5q0 6 -9 16t-32 10h-20q-10 0 -49 3t-81 7.5t-77 7.5l-35 3q-59 0 -83.5 31.5 t-24.5 68.5zM1458 369q0 -29 19.5 -40.5t52.5 -11.5h31.5t23.5 7q4 12 11.5 47t14.5 72.5t12 70.5t5 43t-3 19.5t-11 9.5q-2 0 -19.5 -18.5t-41 -45t-47.5 -58t-36 -56.5q-10 -12 -11 -21.5t-1 -17.5z" />
<glyph unicode="&#xbd;" horiz-adv-x="1935" d="M96 1122q0 12 8.5 28.5t8.5 31.5q0 29 28.5 50t57.5 40q68 45 130 106.5t119.5 117.5t108.5 95t98 39q35 0 60.5 -15.5t42 -41t25 -58t8.5 -67.5q0 -10 -3.5 -36t-8.5 -57.5t-10 -66.5l-9 -63q-6 -43 -16.5 -71t-20.5 -58.5t-17.5 -76.5t-7.5 -128q0 -23 2 -44.5t2 -43.5 q0 -10 -4 -30.5t-9 -44t-10 -45t-7 -32.5q-2 -12 -14.5 -28.5t-32 -33t-42 -27.5t-46.5 -11q-20 0 -39 10t-32 24.5t-21.5 32t-8.5 29.5q0 31 -8 56.5t-8 48.5q0 10 4 22t8 25l-2 -2q4 14 8 29.5t4 35.5q0 68 5.5 108t12.5 70.5t15 64.5t14 89q0 33 -12 33q-10 0 -33 -23 q-18 -23 -52 -55.5t-68.5 -64t-66.5 -54t-46 -22.5q-16 0 -26.5 -1t-16.5 -1l-12 14q-11 14 -24 33.5t-24.5 39t-11.5 29.5zM629 279q0 51 14 90q10 41 22.5 65.5t24.5 43t24.5 36.5t22.5 47q18 55 28.5 80t21 44.5t23.5 43t36 74.5q8 25 35.5 78t58.5 109.5t54.5 103.5 t25.5 57q14 29 21.5 42t10.5 19.5t4 10.5l3 12q2 4 5 17.5t14.5 26.5t33 24.5t62.5 11.5q25 0 44 -24.5t19 -53.5q0 -8 -1 -16.5t-1 -16.5q0 -23 8 -31t8 -24q0 -20 -14 -52t-35.5 -71t-46.5 -83t-45 -89q-29 -61 -60.5 -116.5t-61.5 -107.5t-56.5 -105.5t-46.5 -110.5 q-10 -31 -20.5 -53.5t-12.5 -36.5q0 -16 -22.5 -40t-32.5 -53q-4 -16 -39 -28.5t-64 -12.5q-35 0 -50 20.5t-15 68.5zM1098 18q0 23 22.5 50.5t34.5 42.5q33 33 79 75.5t97 91t101.5 97.5t91.5 93t65.5 79t24.5 55q0 43 -30 66.5t-64 23.5q-31 0 -69 -18.5t-75 -42 t-70.5 -42t-58.5 -18.5q-33 0 -46 14.5t-17 32.5q-2 12 -21.5 41t-19.5 52q0 10 33.5 45t91 71.5t133.5 65.5t158 29q37 0 93 -8.5t103 -51.5l31 -22q39 -29 61.5 -75t20.5 -112q0 -88 -42 -158.5t-106 -115.5q-35 -23 -65.5 -49.5t-59.5 -63.5q-16 -20 -34.5 -36.5 t-34.5 -28.5q-16 -16 -29.5 -36t-23.5 -36q-10 -20 -19 -41q0 -8 40 -19.5t89 -22.5t93 -18.5t53 -7.5q18 0 36.5 -8t34 -19t25.5 -23.5t10 -22.5q0 -29 -58.5 -60.5t-162.5 -31.5q-31 0 -96.5 4t-135 10t-130 11t-81.5 9q-41 12 -57 51.5t-16 77.5z" />
<glyph unicode="&#xbe;" horiz-adv-x="1949" d="M43 500q0 6 14.5 22.5t37 34.5t51 34.5t57.5 22.5q55 14 109.5 35t98.5 47.5t70.5 58t26.5 70.5q0 33 -25.5 56.5t-62.5 23.5q-16 0 -28.5 -7l-25 -14t-27.5 -14.5t-36 -7.5q-23 0 -31 8q-6 8 -17 24.5t-23.5 36t-20.5 39t-8 31.5q0 29 28.5 46.5t70.5 31t91 26.5 t91 32.5t71 51.5t29 81q0 33 -14.5 52t-51.5 19q-41 0 -79 -14t-72.5 -32.5t-65.5 -33t-55 -14.5q-8 0 -19.5 17.5t-22.5 43t-18.5 55.5t-7.5 54q0 31 30 46.5t50 27.5q12 8 54 19.5t90.5 21.5t92.5 18.5t62 8.5q53 0 103.5 -8.5t88 -31t61.5 -62.5t24 -101 q0 -59 -20.5 -107.5t-51.5 -86.5t-69 -65.5t-70 -45.5q-6 -4 -12.5 -9.5t-6.5 -11.5q0 -12 21 -16q29 -8 55.5 -28.5t48 -47.5t33.5 -55.5t12 -55.5q0 -47 -27.5 -97t-68.5 -95q-33 -37 -60.5 -52.5t-54 -26.5t-53 -23t-57.5 -39q-10 -6 -42 -15.5t-69 -17.5t-69.5 -14.5 t-45.5 -8.5q-49 -6 -78.5 -8t-60.5 -2q-23 0 -34 21.5t-11 50.5zM676 291q0 55 13 94t30.5 69.5t36 57.5t28.5 57q18 55 29.5 80t22 43.5t22.5 42t35 74.5q8 25 35.5 79t58.5 110.5t55.5 102.5t26.5 58q12 31 18.5 44.5t9.5 19.5t5 8t6 10q2 4 5 17.5t14.5 27.5t34 25.5 t59.5 11.5q29 0 46 -26.5t17 -57.5v-20q0 -25 8 -36.5t8 -27.5t-7 -33.5t-19 -40t-29.5 -52.5t-38.5 -73l-47 -94q-29 -61 -60.5 -116.5t-61 -107.5t-57.5 -105.5t-48 -110.5q-10 -31 -20.5 -54.5t-12.5 -35.5q0 -16 -21.5 -40t-31.5 -52q-6 -16 -42 -28.5t-65 -12.5 q-31 0 -47 21.5t-16 70.5zM1034 262q0 33 6.5 57.5t17.5 48t29.5 48t42.5 55.5q31 41 79 95.5t102.5 112.5t105.5 119.5t86 119.5q12 18 31.5 30.5t43.5 20.5t47.5 12t43.5 4q70 0 90.5 -44t20.5 -112q0 -53 -8.5 -112.5t-17.5 -109.5t-16 -82.5t-7 -28.5q-6 -31 -10.5 -64 t-4.5 -39q0 -31 25.5 -45t56.5 -24.5t56.5 -19.5t25.5 -28q0 -25 -10 -51t-30.5 -47.5t-48.5 -36t-65 -14.5q-29 0 -33.5 -18.5t-3.5 -46t-1 -61.5t-23 -64q-12 -18 -17.5 -29.5t-12.5 -17t-19 -7.5t-39 -2q-29 0 -46.5 7.5t-35.5 7.5q-4 0 -5 -1t-5 -1q-2 0 -11.5 9 t-19.5 22.5t-18.5 26.5t-8.5 21q0 29 8.5 55.5t8.5 86.5q0 8 -3 11t-11 9q-2 2 -41 6t-88.5 8.5t-96.5 8.5t-63 4q-59 0 -83 31.5t-24 68.5zM1352 416q0 -29 18.5 -40t52.5 -11h32t22 6q6 12 13 47t13 72.5t11.5 69.5t5.5 42t-2 19.5t-11 9.5q-4 0 -21.5 -19.5t-40 -47 t-46 -57.5t-37.5 -52q-8 -12 -9 -21.5t-1 -17.5z" />
<glyph unicode="&#xbf;" horiz-adv-x="944" d="M0 63q0 70 24.5 126.5t61.5 109.5q18 27 50 57.5t54 53.5q35 35 80 68.5t78 60.5q53 41 72.5 69.5t38.5 65.5q10 20 31.5 34.5t31.5 24.5q16 14 26.5 19.5t33.5 5.5q29 0 47 -25q10 -16 13 -37.5t3 -38.5q0 -41 -27 -90q-10 -23 -25 -43t-32 -43q-29 -37 -62.5 -73.5 t-66.5 -71.5q-29 -31 -57.5 -65.5t-50.5 -67.5q-8 -10 -20.5 -23.5t-16.5 -23.5q-10 -18 -9 -30.5t1 -23.5q0 -27 10 -42t26.5 -23t38 -10t43.5 -2q51 0 107.5 23.5t109.5 47.5q39 16 68 22.5t49 6.5q10 0 26.5 -4t39.5 -25q16 -16 23 -24.5t16 -16.5q8 -8 11 -22.5t3 -24.5 q0 -16 -5 -30.5t-14 -30.5q-6 -12 -15 -24.5t-34 -28.5q-10 -6 -32.5 -17.5t-48 -24t-50 -23.5t-37.5 -17q-61 -31 -119.5 -50.5t-134.5 -19.5q-31 0 -71.5 4t-87.5 16q-23 6 -43.5 21.5t-42.5 32.5l-37 26q-49 35 -63.5 88.5t-14.5 132.5zM560 992.5q-1 11.5 1 20.5t2 19 q0 31 15.5 55.5t38 41t51 24.5t53.5 8q16 0 36.5 -11t39 -30.5t31 -45t12.5 -52.5q0 -29 -16.5 -52.5t-41 -40t-50 -25.5t-44.5 -9q-18 0 -41.5 5t-52.5 34q-18 18 -25.5 32.5t-8.5 26z" />
<glyph unicode="&#xc0;" horiz-adv-x="1060" d="M23 82q0 59 7 108.5t21.5 95.5t33.5 96t42 114q27 72 77 165t97 173q12 20 30.5 57t39 76t37 71.5t22.5 44.5q29 59 71 114.5t81 84.5q16 12 45.5 33.5t64.5 21.5q16 0 41 -6t50.5 -19.5t47 -35t31.5 -51.5q4 -16 19.5 -50t21.5 -67q25 -154 24 -272.5t5 -210.5 q4 -63 15 -158.5t22.5 -186t19.5 -157t8 -70.5q0 -20 -1.5 -48t-24.5 -44q-20 -16 -48 -24.5t-53 -18.5q-12 -6 -29.5 -5t-33.5 4t-29.5 7t-15.5 8q-20 18 -32.5 35t-12.5 51q0 8 -3 28t-6 43.5t-6.5 45t-3.5 35.5q0 18 3.5 65.5t3.5 96.5q0 10 -2.5 27.5t-22.5 17.5 q-18 0 -45 -33q-18 -23 -75.5 -32t-153.5 -17q-20 -2 -43 -7t-33 -30q-14 -29 -16.5 -51.5t-2.5 -38.5q0 -14 3 -40t7.5 -53.5t5.5 -51t-1 -35.5q-2 -6 -9.5 -16.5t-18.5 -22.5t-25.5 -22.5t-28.5 -14.5q-31 -8 -67 -7t-62 11q-57 20 -74.5 66.5t-17.5 99.5zM443.5 558 q5.5 -13 31.5 -17q35 -4 90.5 -6.5t114.5 -2.5q14 0 18 9.5t4 21.5q0 16 -3 53t-9 81t-12 92.5t-12 84.5q-6 37 -19.5 39t-30.5 -24q-16 -27 -41.5 -67t-52 -81t-47 -79.5t-29.5 -65.5q-8 -25 -2.5 -38zM512 1815q0 6 7 23t24.5 35.5t44 33t63.5 14.5q20 0 39 1t35 -5 t29.5 -23.5t25.5 -52.5q4 -12 15.5 -33.5t25 -46t27.5 -49t26 -43.5q23 -35 39.5 -53.5t26.5 -28.5t15.5 -16t5.5 -17q0 -29 -20.5 -56.5t-51.5 -27.5q-18 0 -77.5 30t-125.5 81q-37 29 -69.5 62.5t-55 65.5t-36 59.5t-13.5 46.5z" />
<glyph unicode="&#xc1;" horiz-adv-x="1087" d="M23 82q0 59 7 108.5t21.5 95.5t33.5 96t42 114q27 72 77 165t97 173q12 20 30.5 57t39 76t37 71.5t22.5 44.5q29 59 71 114.5t81 84.5q16 12 45.5 33.5t64.5 21.5q16 0 41 -6t50.5 -19.5t47 -35t31.5 -51.5q4 -16 19.5 -50t21.5 -67q25 -154 24 -272.5t5 -210.5 q4 -63 15 -158.5t22.5 -186t19.5 -157t8 -70.5q0 -20 -1.5 -48t-24.5 -44q-20 -16 -48 -24.5t-53 -18.5q-12 -6 -29.5 -5t-33.5 4t-29.5 7t-15.5 8q-20 18 -32.5 35t-12.5 51q0 8 -3 28t-6 43.5t-6.5 45t-3.5 35.5q0 18 3.5 65.5t3.5 96.5q0 10 -2.5 27.5t-22.5 17.5 q-18 0 -45 -33q-18 -23 -75.5 -32t-153.5 -17q-20 -2 -43 -7t-33 -30q-14 -29 -16.5 -51.5t-2.5 -38.5q0 -14 3 -40t7.5 -53.5t5.5 -51t-1 -35.5q-2 -6 -9.5 -16.5t-18.5 -22.5t-25.5 -22.5t-28.5 -14.5q-31 -8 -67 -7t-62 11q-57 20 -74.5 66.5t-17.5 99.5zM443.5 558 q5.5 -13 31.5 -17q35 -4 90.5 -6.5t114.5 -2.5q14 0 18 9.5t4 21.5q0 16 -3 53t-9 81t-12 92.5t-12 84.5q-6 37 -19.5 39t-30.5 -24q-16 -27 -41.5 -67t-52 -81t-47 -79.5t-29.5 -65.5q-8 -25 -2.5 -38zM670 1442q0 8 27.5 45t63.5 81t67.5 84t37.5 52q23 39 35 60.5 t21.5 30.5t20.5 10t34 1q27 0 49.5 -15t39.5 -35.5t26.5 -40t9.5 -25.5q0 -35 -36 -95.5t-112 -119.5q-33 -25 -69.5 -42.5t-69.5 -26.5t-58.5 -13t-33.5 -4q-31 0 -42 12t-11 41z" />
<glyph unicode="&#xc2;" horiz-adv-x="1087" d="M23 82q0 59 7 108.5t21.5 95.5t33.5 96t42 114q27 72 77 165t97 173q12 20 30.5 57t39 76t37 71.5t22.5 44.5q29 59 71 114.5t81 84.5q16 12 45.5 33.5t64.5 21.5q16 0 41 -6t50.5 -19.5t47 -35t31.5 -51.5q4 -16 19.5 -50t21.5 -67q25 -154 24 -272.5t5 -210.5 q4 -63 15 -158.5t22.5 -186t19.5 -157t8 -70.5q0 -20 -1.5 -48t-24.5 -44q-20 -16 -48 -24.5t-53 -18.5q-12 -6 -29.5 -5t-33.5 4t-29.5 7t-15.5 8q-20 18 -32.5 35t-12.5 51q0 8 -3 28t-6 43.5t-6.5 45t-3.5 35.5q0 18 3.5 65.5t3.5 96.5q0 10 -2.5 27.5t-22.5 17.5 q-18 0 -45 -33q-18 -23 -75.5 -32t-153.5 -17q-20 -2 -43 -7t-33 -30q-14 -29 -16.5 -51.5t-2.5 -38.5q0 -14 3 -40t7.5 -53.5t5.5 -51t-1 -35.5q-2 -6 -9.5 -16.5t-18.5 -22.5t-25.5 -22.5t-28.5 -14.5q-31 -8 -67 -7t-62 11q-57 20 -74.5 66.5t-17.5 99.5zM373 1421 q0 10 5 16.5t15 16.5t26.5 28.5t39.5 53.5q23 37 47 64.5t51 52t52.5 48t52.5 50.5q18 18 60 38.5t77 20.5q41 0 64.5 -27.5t41 -67.5t32.5 -86t40 -85q23 -35 36 -54.5t21 -29.5t10.5 -16t2.5 -17q0 -29 -12.5 -55t-43.5 -26q-10 0 -19 1t-22.5 7t-34 20.5t-53.5 38.5 q-14 12 -29.5 30.5t-31 36t-31.5 29t-33 7.5q-35 -10 -71.5 -39t-59.5 -52q-29 -29 -55.5 -42t-48 -17t-37.5 -3t-25 1q-31 0 -49 14.5t-18 42.5zM443.5 558q5.5 -13 31.5 -17q35 -4 90.5 -6.5t114.5 -2.5q14 0 18 9.5t4 21.5q0 16 -3 53t-9 81t-12 92.5t-12 84.5 q-6 37 -19.5 39t-30.5 -24q-16 -27 -41.5 -67t-52 -81t-47 -79.5t-29.5 -65.5q-8 -25 -2.5 -38z" />
<glyph unicode="&#xc3;" horiz-adv-x="1067" d="M23 82q0 59 7 108.5t21.5 95.5t33.5 96t42 114q27 72 77 165t97 173q12 20 30.5 57t39 76t37 71.5t22.5 44.5q29 59 71 114.5t81 84.5q16 12 45.5 33.5t64.5 21.5q16 0 41 -6t50.5 -19.5t47 -35t31.5 -51.5q4 -16 19.5 -50t21.5 -67q25 -154 24 -272.5t5 -210.5 q4 -63 15 -158.5t22.5 -186t19.5 -157t8 -70.5q0 -20 -1.5 -48t-24.5 -44q-20 -16 -48 -24.5t-53 -18.5q-12 -6 -29.5 -5t-33.5 4t-29.5 7t-15.5 8q-20 18 -32.5 35t-12.5 51q0 8 -3 28t-6 43.5t-6.5 45t-3.5 35.5q0 18 3.5 65.5t3.5 96.5q0 10 -2.5 27.5t-22.5 17.5 q-18 0 -45 -33q-18 -23 -75.5 -32t-153.5 -17q-20 -2 -43 -7t-33 -30q-14 -29 -16.5 -51.5t-2.5 -38.5q0 -14 3 -40t7.5 -53.5t5.5 -51t-1 -35.5q-2 -6 -9.5 -16.5t-18.5 -22.5t-25.5 -22.5t-28.5 -14.5q-31 -8 -67 -7t-62 11q-57 20 -74.5 66.5t-17.5 99.5zM326 1477v47 t34 96q20 39 68.5 79t110.5 40q31 0 54 -1t44.5 -6.5t45.5 -14.5t52 -25q29 -16 83 -36t114 -20q14 0 35.5 18.5t42 40t40 39t31.5 17.5q29 -2 53.5 -23.5t24.5 -54.5q0 -41 -17.5 -83t-48 -77.5t-74.5 -58t-99 -22.5q-41 0 -73 11t-64.5 24.5t-69.5 24.5t-88 11 q-12 0 -26.5 -9t-26 -20.5t-20.5 -22.5t-13 -15q-39 -35 -68 -43.5t-41 -8.5q-16 0 -34.5 10.5t-34 26t-25.5 30.5t-10 26zM443.5 558q5.5 -13 31.5 -17q35 -4 90.5 -6.5t114.5 -2.5q14 0 18 9.5t4 21.5q0 16 -3 53t-9 81t-12 92.5t-12 84.5q-6 37 -19.5 39t-30.5 -24 q-16 -27 -41.5 -67t-52 -81t-47 -79.5t-29.5 -65.5q-8 -25 -2.5 -38z" />
<glyph unicode="&#xc4;" horiz-adv-x="1060" d="M23 82q0 59 7 108.5t20 96.5t32.5 97t44.5 112q23 57 38 95t25.5 65.5t19.5 48t21.5 44t30 54.5t45.5 80q12 20 35 56t46.5 73t43 67.5t25.5 42.5q57 117 135 176q8 6 22.5 19.5t31 27t34.5 23.5t37 10q78 0 94 -69q8 -31 12 -33t25 -12q12 -6 21.5 -11.5t15.5 -13.5 q10 -12 14 -30.5t10 -51.5q12 -78 15.5 -152.5t2.5 -144t-1 -130t6 -105.5q6 -39 10 -83t9 -84t8.5 -70t7.5 -42q8 -39 12 -59.5t4 -32.5v-23.5t4 -31.5q0 -4 1 -22.5t2 -39t2 -39t1 -22.5q0 -20 -7 -47t-30 -43q-20 -16 -42.5 -25.5t-47.5 -19.5q-12 -6 -29.5 -5t-34 4 t-29.5 7t-15 8q-20 18 -32.5 34.5t-12.5 51.5q0 8 -2 24.5t-5.5 35t-5.5 37t-2 32.5q0 18 3.5 65.5t3.5 96.5q0 10 -4.5 10h-24.5q-33 0 -50.5 -4t-37.5 -8q-16 -4 -28.5 -8.5t-31 -9.5t-47 -9t-75.5 -8q-20 -2 -39 -4t-25 -29q-2 -12 -9 -31.5t-15.5 -40t-15.5 -37 t-9 -24.5q-6 -25 -8 -52.5t-9 -49.5q-2 -6 -3 -17.5t-5 -24t-12 -22.5t-23 -14q-31 -8 -64.5 -9t-45.5 -1q-45 0 -72.5 45t-27.5 98zM428 1645q0 25 18.5 47t36.5 45t37 39t55 16q16 0 46 -8t51 -23q25 -18 32 -43.5t7 -50.5t-16.5 -52.5t-40 -50t-51.5 -38t-48 -15.5 t-43 11.5t-41 30t-30.5 42t-12.5 50.5zM443.5 558q5.5 -13 31.5 -17q35 -4 90.5 -6.5t114.5 -2.5q14 0 18 9.5t4 21.5q0 16 -2 60.5t-7 98.5t-10 109.5t-11 92.5t-19.5 39t-29.5 -25t-43 -74t-54.5 -98t-49 -97t-30.5 -73q-8 -25 -2.5 -38zM844 1606q0 33 16.5 59.5t42 45 t55 28.5t56.5 10q8 0 32.5 -12.5t45.5 -26.5q23 -14 33 -30.5t10 -47.5t-16.5 -49t-49.5 -47q-35 -33 -55.5 -36t-48.5 -3q-14 0 -35 10.5t-40.5 26.5t-32.5 34.5t-13 37.5z" />
<glyph unicode="&#xc5;" horiz-adv-x="1085" d="M23 82q0 59 7 108.5t20 96.5t32.5 97t44.5 112q23 57 38 95t25.5 65.5t19.5 48t21.5 44t30 54.5t45.5 80q12 20 35 56t46.5 73t43 67.5t25.5 42.5q29 59 60.5 120t70.5 89q16 12 46 33.5t64 21.5q16 0 41 -6t50.5 -19t47 -34.5t31.5 -52.5q4 -16 19.5 -50t21.5 -67 q12 -78 15.5 -152.5t2.5 -144t-1 -130t6 -105.5q6 -39 10 -83t9 -84t8.5 -70t7.5 -42q8 -39 12 -59.5t4 -32.5v-23.5t4 -31.5q0 -4 2 -25.5t4 -47.5t3 -47.5t1 -25.5q0 -40 -41 -69q-20 -16 -40.5 -36t-45.5 -30q-12 -6 -29.5 -5t-33.5 4t-29.5 7t-15.5 8q-20 18 -32.5 35 t-12.5 51q0 8 -3 28t-6 43.5t-6.5 45t-3.5 35.5q0 18 3.5 65.5t3.5 96.5q0 10 -2.5 27.5t-22.5 17.5q-18 0 -45 -33q-18 -23 -75.5 -32t-153.5 -17q-20 -2 -43 -7t-33 -30q-6 -14 -11.5 -33.5t-8.5 -38t-5 -34t-2 -23.5q0 -29 9.5 -55.5t2.5 -48.5q-2 -6 -9 -16.5t-18.5 -23 t-25.5 -22.5t-29 -14q-31 -8 -64.5 -9t-45.5 -1q-45 0 -72.5 45t-27.5 98zM443.5 558q5.5 -13 31.5 -17q35 -4 90.5 -6.5t114.5 -2.5q14 0 18 9.5t4 21.5q0 16 -2 60.5t-7 98.5t-10 109.5t-11 92.5t-19.5 39t-29.5 -25t-43 -74t-54.5 -98t-49 -97t-30.5 -73q-8 -25 -2.5 -38 zM596 1675q0 37 9 70t22.5 61.5t28 52t26.5 44.5q18 31 35.5 53t40 38.5t52.5 25t73 8.5q33 0 54 -12.5t26 -24.5q0 -16 28 -17q20 0 46 -11t48.5 -32.5t38 -54.5t15.5 -76q0 -57 -28 -110.5t-73 -95.5t-100 -66.5t-111 -24.5q-47 0 -89 17.5t-73.5 43t-50 56.5t-18.5 55z M801 1714q0 -18 8 -32.5t31 -14.5q31 0 60.5 32t29.5 70q0 27 -4 41.5t-11 30.5q-4 10 -5 12t-11 2h-9t-9 -10q-10 -12 -26.5 -25.5t-20.5 -17.5q-20 -25 -26.5 -37t-6.5 -51z" />
<glyph unicode="&#xc6;" horiz-adv-x="1722" d="M16 156q4 33 23.5 76.5t30.5 74.5q12 39 32.5 95.5t42 112.5t40 102.5t24.5 62.5q49 111 116.5 233.5t143.5 228t153.5 177.5t145.5 78q10 0 27.5 2t37 4t40 4t34.5 4q29 6 68 4t55 -4q43 0 75 -6t60.5 -12.5t60 -12.5t77.5 -6h55t39.5 1t33 2t37.5 1q31 2 58.5 3t52.5 1 q16 0 47 -19.5t49 -47.5q6 -8 9.5 -28.5t6.5 -44t4 -45t1 -32.5q0 -10 -3 -23.5t-14 -31.5q-6 -10 -32.5 -15t-47.5 -5q-25 0 -51 6t-73 8q-25 0 -64 8t-79 17.5t-73.5 16.5t-48.5 7q-25 0 -29.5 -12.5t-0.5 -26.5q10 -27 6 -72t-10 -69q-10 -43 -22.5 -87t-2.5 -67 t27.5 -25.5t52.5 -2.5q41 0 68.5 5t86.5 5q14 0 37 -7.5t42.5 -18.5t33.5 -26.5t14 -33.5q0 -23 -17 -44.5t-36 -49.5q-16 -29 -34.5 -60t-55.5 -31q-51 0 -86 1t-57 4q-27 2 -43 4q-29 0 -39 -6.5t-10 -36.5q0 -33 1 -83.5t16 -99.5t48 -87t98 -46q29 -4 66 -6t74 -3 t68.5 -3t49.5 -4q8 0 30 -18.5t28 -41.5t6 -32v-17q0 -14 -15.5 -25.5t-39.5 -27.5q-23 -14 -57.5 -30.5t-51.5 -20.5q-39 -8 -89 -17.5t-91 -5.5q-33 4 -63.5 6.5t-67.5 2.5q-33 0 -73 14t-80 45t-75.5 77t-58.5 109q-16 53 -26.5 147.5t-10.5 207.5q0 14 -9 32.5t-44 20.5 q-41 2 -100.5 -2t-112.5 -4q-41 0 -62.5 -18.5t-27.5 -35.5q-14 -37 -32.5 -91t-38 -114.5t-38 -123t-32.5 -115.5q-10 -41 -22.5 -66.5t-20.5 -42.5q-12 -23 -27.5 -35t-50.5 -8q-14 2 -33.5 5.5t-40 9.5t-41 16t-35.5 29q-14 16 -28.5 53t-8.5 109zM621 840q-8 -33 5 -39 t27 -4q59 4 109.5 5t60.5 1q20 0 33 6.5t21 26.5q4 12 8 27.5t8 31.5q10 35 8 69.5t-2 77.5q0 18 5 31.5t9.5 22t5.5 14.5t-8 10q-16 8 -41.5 -2t-52 -26.5t-48 -36t-30.5 -27.5q-27 -31 -65.5 -80t-52.5 -108z" />
<glyph unicode="&#xc7;" horiz-adv-x="983" d="M96 596q0 125 35 265t111.5 260t201.5 199t304 79q31 0 64.5 -9.5t64.5 -21.5q29 -10 50 -12t42 -19q23 -20 38 -50t15 -50q0 -55 -17.5 -106.5t-37.5 -73.5q-12 -14 -29.5 -14.5t-30.5 -0.5q-8 0 -24.5 3.5t-34 6.5t-31.5 7t-20 8q-18 14 -44 21.5t-77 7.5 q-37 0 -83 -22.5t-86 -76t-67.5 -142.5t-27.5 -222q0 -74 6 -133.5t26 -100.5q18 -35 49 -54t80 -19q35 0 67 3t65 15q23 10 61.5 27.5t58.5 17.5t36 -23.5t16 -35.5q0 -16 -10.5 -42t-24.5 -48q-10 -16 -23 -32t-31 -32q-20 -16 -43.5 -23.5t-56.5 -19.5 q-45 -18 -105.5 -37.5t-131.5 -19.5q-72 0 -136.5 34.5t-111.5 100.5q-49 68 -78 165t-29 220zM226 -455q0 23 17 36t28 24q23 18 44 19t44 1q61 0 100 12.5t39 53.5q0 29 -16.5 48t-40.5 30q-43 16 -86 16q-23 0 -36.5 6t-29.5 14q-16 10 -31.5 17.5t-13.5 34.5 q2 12 8 31.5t21 37.5q14 18 41.5 17.5t54.5 -0.5q59 0 127.5 -7.5t126 -27t95.5 -54t38 -92.5q0 -70 -32 -125t-93 -102q-53 -41 -127 -72.5t-180 -31.5q-59 0 -78.5 30.5t-19.5 83.5z" />
<glyph unicode="&#xc8;" horiz-adv-x="985" d="M59 733q0 16 22.5 39t39.5 23q20 0 29.5 7t17.5 27q18 49 20 101.5t19 105.5q6 25 -5.5 43.5t-31.5 28.5t-29.5 43t-9.5 63v51.5t19 32.5q16 10 48.5 24.5t61.5 14.5q14 0 33.5 -1t36.5 -3q20 -2 41 -2q47 -14 100 -21t94 -12q16 -2 51 -11t78 -7q14 0 38 -1t48.5 -3 t47 -4t34.5 -2q20 0 44 -22.5t34 -71.5q4 -23 6 -44.5t2 -39.5q0 -10 -3 -23.5t-13 -32.5q-6 -10 -33 -15t-47 -5q-35 0 -80 4t-91 9t-90 9t-77 4q-25 0 -30 -12t-1 -26q8 -25 -1 -48.5t-21 -46t-20.5 -46t1.5 -50.5q10 -23 27.5 -26t52.5 -3q20 0 33.5 -1t28 -2t32 -2 t48.5 -1t72.5 -15t58.5 -50q10 -23 13 -46.5t-15 -52.5q-16 -29 -57.5 -46t-78.5 -17h-196q-29 0 -38 -15.5t-9 -46.5q0 -33 4 -78.5t24.5 -88.5t61.5 -76t112 -39q14 0 42 -3t59 -7t61.5 -9.5t48.5 -7.5q8 0 30 -18.5t28 -40.5q6 -23 6 -32v-17q0 -14 -15.5 -25.5 t-39.5 -28.5q-23 -14 -54.5 -23t-48.5 -9q-31 0 -51 -2t-36.5 -4.5t-32 -3.5t-35.5 1q-33 4 -64 6.5t-68 2.5q-33 0 -72.5 14t-79.5 45t-76 77t-58 109q-16 51 -26.5 93.5t-15.5 82t-7 81.5t-2 96q0 23 -15.5 35t-19.5 26q-2 6 -4 19.5t-4.5 27t-4.5 25.5t-2 16zM272 1620 q-2 6 2.5 25.5t16.5 41t33.5 41t58.5 29.5q20 4 38.5 9.5t35 2t34 -16.5t37.5 -44q6 -10 22.5 -28.5t35 -39t38 -41t35.5 -36.5q31 -29 50.5 -43.5t33 -21.5t19.5 -12t8 -16q6 -29 -8 -59.5t-43 -38.5q-18 -4 -83 11.5t-140 50.5q-43 20 -82 44.5t-69 51t-49.5 50.5 t-23.5 40z" />
<glyph unicode="&#xc9;" horiz-adv-x="985" d="M59 733q0 16 22.5 39t39.5 23q20 0 29.5 7t17.5 27q18 49 20 101.5t19 105.5q6 25 -5.5 43.5t-31.5 28.5t-29.5 43t-9.5 63v51.5t19 32.5q16 10 48.5 24.5t61.5 14.5q14 0 33.5 -1t36.5 -3q20 -2 41 -2q23 -6 41 -9t37.5 -6t47 -6t68.5 -12q33 -6 56.5 -9t42 -3t36 1 t39.5 1q14 0 39 -3t51.5 -8t49 -9t34.5 -4q20 0 44 -22.5t34 -72.5q4 -23 6 -44t2 -40q0 -10 -3 -23t-13 -32q-6 -10 -32.5 -15t-47.5 -5q-25 0 -67.5 1t-90.5 3q-25 0 -58.5 5l-67 10t-62.5 9t-43 4q-25 0 -30 -12t-1 -26q8 -25 -1 -48.5t-21 -46t-20.5 -46t1.5 -50.5 q10 -23 27.5 -26t52.5 -3q20 0 33.5 -1t28 -2t32 -2t48.5 -1t72.5 -15t58.5 -50q10 -23 13 -46.5t-15 -52.5q-16 -29 -57.5 -46t-78.5 -17h-196q-29 0 -38 -15.5t-9 -46.5q0 -33 4 -78.5t24.5 -88.5t61.5 -76t112 -39q14 0 42 -3t59 -7t61.5 -9.5t48.5 -7.5q8 0 30 -18.5 t28 -40.5q6 -23 6 -32v-17q0 -14 -15.5 -25.5t-39.5 -28.5q-23 -14 -54.5 -23t-48.5 -9q-31 0 -51 -2t-36.5 -4.5t-32 -3.5t-35.5 1q-33 4 -64 6.5t-68 2.5q-33 0 -72.5 14t-79.5 45t-76 77t-58 109q-16 51 -26.5 93.5t-15.5 82t-7 81.5t-2 96q0 23 -15.5 35t-19.5 26 q-2 6 -4 19.5t-4.5 27t-4.5 25.5t-2 16zM567 1561q0 8 17.5 21t40 29.5t44 34t27.5 29.5q47 78 84 131.5t80 53.5q27 0 58.5 -17.5t58.5 -40t44 -44t17 -27.5q0 -35 -41.5 -68t-117.5 -92q-33 -25 -71 -43.5t-73 -29.5t-61.5 -16t-34.5 -5q-31 0 -51.5 27.5t-20.5 56.5z" />
<glyph unicode="&#xca;" horiz-adv-x="985" d="M59 733q0 16 22.5 39t39.5 23q20 0 29.5 7t17.5 27q18 49 20 101.5t19 105.5q6 25 -5.5 43.5t-31.5 28.5t-29.5 43t-9.5 63v51.5t19 32.5q16 10 48.5 24.5t61.5 14.5q14 0 33.5 -1t36.5 -3q20 -2 41 -2q47 -14 100 -21t94 -12q16 -2 51 -11t78 -7q14 0 38 -1t48.5 -3 t47 -4t34.5 -2q20 0 44 -22.5t34 -71.5q4 -23 6 -44.5t2 -39.5q0 -10 -3 -23.5t-13 -32.5q-6 -10 -33 -15t-47 -5q-35 0 -80 4t-91 9t-90 9t-77 4q-25 0 -30 -12t-1 -26q8 -25 -1 -48.5t-21 -46t-20.5 -46t1.5 -50.5q10 -23 27.5 -26t52.5 -3q20 0 33.5 -1t28 -2t32 -2 t48.5 -1t72.5 -15t58.5 -50q10 -23 13 -46.5t-15 -52.5q-16 -29 -57.5 -46t-78.5 -17h-196q-29 0 -38 -15.5t-9 -46.5q0 -33 4 -78.5t24.5 -88.5t61.5 -76t112 -39q14 0 42 -3t59 -7t61.5 -9.5t48.5 -7.5q8 0 30 -18.5t28 -40.5q6 -23 6 -32v-17q0 -14 -15.5 -25.5 t-39.5 -28.5q-23 -14 -54.5 -23t-48.5 -9q-31 0 -51 -2t-36.5 -4.5t-32 -3.5t-35.5 1q-33 4 -64 6.5t-68 2.5q-33 0 -72.5 14t-79.5 45t-76 77t-58 109q-16 51 -26.5 93.5t-15.5 82t-7 81.5t-2 96q0 23 -15.5 35t-19.5 26q-2 6 -4 19.5t-4.5 27t-4.5 25.5t-2 16zM291 1591 q0 31 16.5 49.5t48.5 47.5q35 33 55.5 35.5t49.5 2.5q14 0 34.5 -10t40 -26.5t33 -35t13.5 -36.5q0 -33 -16.5 -59.5t-42 -45t-55.5 -28.5t-56 -10q-8 0 -33 12t-45 26q-23 14 -33 31t-10 47zM715 1556q0 25 16.5 52.5t40 50t50 38t48.5 15.5q20 0 43 -11t41.5 -29.5 t30.5 -42t12 -50.5q0 -25 -18.5 -47t-36.5 -45t-36.5 -39t-55.5 -16q-16 0 -46 8t-50 22q-25 18 -32 44t-7 50z" />
<glyph unicode="&#xcb;" horiz-adv-x="985" d="M59 733q0 16 22.5 39t39.5 23q20 0 29.5 7t17.5 27q18 49 20 101.5t19 105.5q6 25 -5.5 43.5t-31.5 28.5t-29.5 43t-9.5 63v51.5t19 32.5q16 10 48.5 24.5t61.5 14.5q14 0 33.5 -1t36.5 -3q20 -2 41 -2q47 -14 100 -21t94 -12q16 -2 51 -11t78 -7q14 0 38 -1t48.5 -3 t47 -4t34.5 -2q20 0 44 -22.5t34 -71.5q4 -23 6 -44.5t2 -39.5q0 -10 -3 -23.5t-13 -32.5q-6 -10 -33 -15t-47 -5q-35 0 -80 4t-91 9t-90 9t-77 4q-25 0 -30 -12t-1 -26q8 -25 -1 -48.5t-21 -46t-20.5 -46t1.5 -50.5q10 -23 27.5 -26t52.5 -3q20 0 33.5 -1t28 -2t32 -2 t48.5 -1t72.5 -15t58.5 -50q10 -23 13 -46.5t-15 -52.5q-16 -29 -57.5 -46t-78.5 -17h-196q-29 0 -38 -15.5t-9 -46.5q0 -33 4 -78.5t24.5 -88.5t61.5 -76t112 -39q14 0 42 -3t59 -7t61.5 -9.5t48.5 -7.5q8 0 30 -18.5t28 -40.5q6 -23 6 -32v-17q0 -14 -15.5 -25.5 t-39.5 -28.5q-23 -14 -54.5 -23t-48.5 -9q-31 0 -51 -2t-36.5 -4.5t-32 -3.5t-35.5 1q-33 4 -64 6.5t-68 2.5q-33 0 -72.5 14t-79.5 45t-76 77t-58 109q-16 51 -26.5 93.5t-15.5 82t-7 81.5t-2 96q0 23 -15.5 35t-19.5 26q-2 6 -4 19.5t-4.5 27t-4.5 25.5t-2 16zM184 1487 q0 10 5.5 16t15.5 16.5t26.5 29t38.5 53.5q23 37 47.5 64.5t51 52t52 48t52.5 50.5q18 18 60 38.5t77 20.5q43 0 77 -30.5t58 -102.5q4 -12 15.5 -33.5t25 -46.5t27.5 -49.5t27 -42.5q23 -35 36 -54.5t21 -29.5t10 -16.5t2 -16.5q0 -29 -12 -55.5t-43 -26.5 q-18 0 -66.5 27.5t-113.5 79.5q-14 12 -29.5 30.5t-31 36t-32 28.5t-32.5 7q-35 -10 -72 -39t-59 -51q-29 -29 -55.5 -42t-48 -17.5t-38 -3t-24.5 1.5q-31 0 -49.5 14t-18.5 43z" />
<glyph unicode="&#xcc;" horiz-adv-x="591" d="M86 188q0 10 4 29l8 38t9.5 35.5t7.5 26.5q6 23 9 37.5t5 26.5t3 26.5t3 36.5q6 61 7 107.5t8 77.5q4 23 9 64.5t9 101.5q2 33 8 80t12.5 93t11.5 84t5 52q0 41 8 90t25 109q6 20 37.5 41.5t78.5 21.5q35 0 59.5 2t49.5 -16q41 -31 55 -80q8 -29 0 -66t-8 -65 q0 -16 -5 -57.5t-13 -90.5q-4 -35 -9.5 -67.5t-9.5 -63.5q-4 -35 -8 -52t-7 -31.5t-7.5 -30t-10.5 -46.5q-18 -88 -33.5 -176t-15.5 -178q0 -41 -1 -64.5t-3 -54.5q0 -10 1 -27.5t1 -39v-45t-4 -41.5q-4 -23 -25.5 -40.5t-48 -28.5t-54.5 -16t-42 -5q-31 0 -52.5 12 t-39.5 39q-20 27 -28.5 72t-8.5 79zM174 1724q0 6 7 23.5t24.5 36t44 33t63.5 14.5q20 0 39 1t35 -5t29.5 -23.5t25.5 -52.5q4 -12 15.5 -33.5t25 -46t27.5 -49.5t27 -43q23 -35 39 -53.5t26 -28.5t15.5 -16t5.5 -17q0 -29 -20.5 -56.5t-51.5 -27.5q-18 0 -77.5 30 t-125.5 81q-37 29 -69.5 62.5t-55 65.5t-36 59.5t-13.5 45.5z" />
<glyph unicode="&#xcd;" horiz-adv-x="591" d="M98 180q0 23 1 47.5t5 42.5q12 45 19.5 86t11.5 88q6 61 7 107.5t8 77.5q6 31 15 96.5t16 138t12.5 136t5.5 87.5q0 41 5 72t21 90q12 43 107 43q35 0 65.5 -11t55.5 -30q35 -27 43 -51t8 -76q0 -16 -5 -57t-14 -90q-10 -72 -21 -143.5t-24 -131.5q-18 -88 -33.5 -176 t-15.5 -178q0 -41 -1 -64.5t-3 -54.5q-2 -18 -3 -49.5t-9 -70.5q-4 -23 -24.5 -45.5t-45 -40t-50.5 -27.5t-40 -10q-31 0 -46 8t-34 35q-20 27 -28.5 71.5t-8.5 79.5zM326 1417q0 10 5 16.5t15 16.5t26.5 28.5t39.5 53.5q12 18 28.5 39.5t32.5 41t29.5 37t19.5 29.5 q23 39 35 60.5t21.5 31t20.5 10.5t34 1q27 0 58.5 -17.5t58 -40t44 -44t17.5 -27.5q0 -18 -17.5 -41t-45 -49.5t-64.5 -55t-74 -57.5q-33 -25 -66.5 -46.5t-63 -36.5t-52 -24.5t-31.5 -9.5q-31 0 -51 28t-20 56z" />
<glyph unicode="&#xce;" horiz-adv-x="591" d="M51 1522q0 10 5 16t15.5 16.5t27 29t38.5 52.5q23 37 47.5 65t51 52.5t52 48t52.5 49.5q18 18 60 39t77 21q43 0 77 -31t58 -102q4 -12 15.5 -34t25 -46.5t27.5 -49t27 -42.5q23 -35 36 -54.5t21 -30t10 -16.5t2 -16q0 -29 -12 -55.5t-43 -26.5q-18 0 -66.5 27.5 t-113.5 78.5q-14 12 -29.5 31t-31 36t-32 28.5t-32.5 7.5q-35 -10 -72 -39t-59 -51q-29 -29 -55.5 -42.5t-48 -17.5t-38 -3t-24.5 1q-31 0 -49.5 14.5t-18.5 43.5zM86 229q0 10 4 28.5t8 38t9.5 36t7.5 26.5q6 23 9 37.5t5 26.5t3 26.5t3 36.5q6 61 7 107.5t8 77.5 q4 23 14 63.5t14 100.5q2 33 8.5 80t12.5 93t11 83.5t5 52.5q0 41 8 90t25 108q6 20 37.5 42t79.5 22q35 0 50 -5t40 -24q39 -29 53 -78q8 -29 10 -59.5t2 -58.5q0 -16 -5 -57.5t-13 -90.5q-4 -35 -17.5 -69.5t-17.5 -65.5q-4 -35 -7 -51.5t-5 -29.5t-5.5 -27.5t-9.5 -45.5 q-18 -88 -33.5 -176t-15.5 -178q0 -41 -1 -64.5t-3 -54.5q0 -10 1 -27.5t1 -39v-45t-4 -41.5q-4 -23 -25.5 -40.5t-48 -28.5t-54.5 -16t-42 -5q-31 0 -52.5 12t-39.5 39q-20 27 -28.5 72t-8.5 79z" />
<glyph unicode="&#xcf;" horiz-adv-x="591" d="M86 231q0 16 5 57.5t13 90.5q4 35 9.5 67.5t9.5 63.5q4 33 7 53.5t5 36.5t5 33.5t10 48.5q18 88 33.5 176t15.5 178q0 41 1 64.5t3 54.5q0 8 -1 26.5t-1 40v45t4 42.5q4 23 25.5 40t48 28.5t53 16.5t43.5 5q31 0 52.5 -12.5t39.5 -38.5q20 -27 28.5 -72t8.5 -80 q0 -10 -4 -28.5t-8.5 -38t-9.5 -37t-7 -25.5q-6 -23 -9 -37t-5 -26.5t-3 -26.5t-3 -37q-6 -61 -7.5 -107.5t-7.5 -76.5q-4 -23 -6 -71t-6 -107q-2 -33 -9 -73t-15.5 -77t-14.5 -66.5t-6 -44.5q0 -20 1 -50.5t0 -65.5t-7.5 -69.5t-18.5 -61.5q-10 -18 -39.5 -41t-76.5 -23 q-35 0 -50.5 5t-39.5 24q-39 29 -54 78q-8 29 -10 59.5t-2 58.5z" />
<glyph unicode="&#xd0;" horiz-adv-x="1138" d="M-10 809q0 12 6 31.5t22.5 38t45 32t71.5 13.5q10 0 34 3t26 25q4 66 12 110t12 83q0 12 1 35.5t1 46.5q0 26 2 59q4 29 5 49.5t16 73.5q4 16 27.5 34.5t50.5 22.5q10 2 23 3t28 1q18 0 27.5 -3t25.5 -13q14 -10 31.5 -13t34.5 -3q29 0 59.5 7t77.5 7q80 0 155.5 -31.5 t135 -96t96.5 -163t37 -229.5q0 -176 -55.5 -331t-144.5 -274.5t-201.5 -198.5t-225.5 -105q-53 -12 -104 -13q-23 0 -43.5 -9t-42.5 -9q-12 0 -27.5 6t-31 14t-28 18.5t-16.5 16.5q-8 12 -31.5 27.5t-31.5 31.5q-12 25 -13 70q0 27 8.5 43.5t18.5 28.5q8 12 12 19t6 18.5 t6.5 30t12.5 49.5q6 23 11 47t5 53q0 41 2 61.5t5 31.5t6.5 18.5t5.5 23.5q2 18 -5.5 25.5t-18.5 10.5t-23.5 3t-18.5 2q-37 8 -68.5 56t-31.5 112zM422 419.5q2 -26.5 2 -57.5q0 -12 3 -23t19 -11q55 0 111.5 46t102 125t74 183t28.5 221q0 63 -19.5 117.5t-52.5 93.5 q-10 14 -27.5 31.5t-31.5 28.5q-23 16 -39.5 17t-38.5 1q-6 0 -19.5 -5.5t-15.5 -15.5q-4 -16 -10 -46.5t-6 -59.5q0 -23 -4 -57.5t-4 -57.5t12 -37t33 -14q25 0 49 -9t44.5 -29.5t33 -55.5t12.5 -84q0 -14 -11.5 -31.5t-34 -33t-56 -25.5t-78.5 -10q-33 0 -45.5 -16.5 t-14.5 -33.5q-4 -20 -9 -47.5t-7 -50.5q-2 -27 0 -53.5z" />
<glyph unicode="&#xd1;" horiz-adv-x="1239" d="M70 49v56t8 61q6 23 15 60.5t13 60.5l11 41q10 45 23.5 101t13.5 106v31.5v20.5t1 21.5t3 32.5q2 29 5 58.5t5 58.5t11 83t22 113q2 10 8 43t12 70t10.5 68.5t1.5 40.5q2 8 3.5 36.5t1.5 40.5q0 8 13 36t31.5 58.5t38 55t33.5 24.5q82 0 138 -26q27 -12 42 -31.5 t25 -46.5q35 -86 56.5 -164t39.5 -143q8 -29 16.5 -74t17.5 -94t20.5 -94t25.5 -74q14 -33 23.5 -23.5t15.5 35.5q6 25 13.5 63t15.5 80t14 84t12 76q6 39 9.5 70t7.5 57q4 27 9 49.5t5 49.5q0 20 23.5 43.5t58.5 45t74 36t69 14.5q41 0 74 -32t33 -62q0 -25 -7 -65 t-18.5 -84t-24 -90t-22.5 -85q-35 -121 -57 -262q-12 -84 -26.5 -149.5t-18.5 -147.5q-2 -20 -4 -45t-4 -49.5t-5.5 -47t-5.5 -36.5q-8 -53 -18 -86t-20 -62q-4 -14 -21.5 -31.5t-38 -31.5t-42 -24.5t-36.5 -10.5q-18 0 -39.5 11.5t-41 30.5t-35 44t-23.5 51q-27 84 -38 130 t-15 75q-8 45 -23.5 72.5t-27.5 58.5q-16 39 -32 80t-29 78t-22.5 64.5t-13.5 37.5q-16 37 -23 35t-16 -31q-16 -53 -21 -99t-8 -96t-6 -108.5t-12 -138.5q-2 -12 -9 -47t-15 -74t-15.5 -71.5t-7.5 -45.5q0 -35 -27.5 -56t-50.5 -21q-37 0 -72.5 9t-65.5 24.5t-47 35 t-17 41.5zM340 1618q0 10 1 44t36 93q10 18 30.5 44t47 47.5t57.5 37t61 15.5q61 0 114.5 -13.5t113.5 -48.5q14 -8 38.5 -26.5t54.5 -38t61.5 -34t60.5 -14.5q31 0 65.5 21.5t65.5 34.5q35 14 59.5 -6.5t24.5 -65.5q0 -31 -16.5 -63.5t-43.5 -61.5q-16 -16 -42.5 -30.5 t-57.5 -24.5t-59.5 -15.5t-49.5 -5.5q-41 0 -73.5 20.5t-65.5 44t-70.5 44t-89.5 20.5q-12 0 -26 -9t-25.5 -20.5t-20.5 -22.5t-14 -15q-39 -35 -67.5 -43t-40.5 -8q-16 0 -39 12t-43 28.5t-33.5 33t-13.5 26.5z" />
<glyph unicode="&#xd2;" horiz-adv-x="1050" d="M88 543q0 174 55.5 327.5t138.5 267t179 179t180 65.5q20 0 32.5 1t22 -1t20.5 -6t29 -12q23 -12 28 -42t9 -48q4 -12 7.5 -15.5t13.5 -3.5q20 0 55 -2t51 -24q8 -12 27.5 -39t24.5 -43q16 -47 17 -85t1 -73q0 -125 -9 -221t-24.5 -168t-33 -120t-33.5 -77 q-92 -170 -209 -273t-271 -103q-92 0 -151.5 31.5t-95 96t-50 162t-14.5 226.5zM348 555q0 -143 19.5 -199.5t66.5 -56.5q20 0 47 9t54.5 31.5t55 61t52.5 95.5q20 45 34.5 97t24 102t14.5 96.5t5 78.5q0 53 -6 86t-14.5 55.5t-13.5 38t-5 33.5q0 10 -9 18.5t-20 4.5 q-8 -4 -23.5 -7t-33.5 -8.5t-36.5 -12.5t-33.5 -21q-29 -29 -60.5 -65t-58 -91t-43 -138t-16.5 -208zM492 1749q0 6 7 23.5t24.5 36t44 32.5t63.5 14q20 0 38.5 1.5t35 -5t30 -24t25.5 -51.5q4 -12 15 -34t24.5 -46.5t28 -49t26.5 -42.5q23 -35 39 -53.5t26.5 -29 t15.5 -16.5t5 -16q0 -29 -20.5 -56.5t-51.5 -27.5q-18 0 -77.5 29.5t-124.5 81.5q-37 29 -70 62.5t-55.5 65t-35.5 59.5t-13 46z" />
<glyph unicode="&#xd3;" horiz-adv-x="1050" d="M68 469q0 117 27.5 226.5t74.5 205.5t106.5 177t125 139.5t130 90t119.5 31.5q20 0 32.5 1t22 -1t20.5 -6t30 -12q23 -12 27.5 -42t9.5 -48q4 -12 7 -15.5t13 -3.5q20 0 55 -2t52 -24q8 -12 27.5 -39t23.5 -43q16 -47 17 -85t1 -73q0 -125 -14 -226.5t-34.5 -178 t-43.5 -129.5t-39 -82q-92 -170 -209 -273.5t-270 -103.5q-92 0 -151.5 31.5t-95.5 96t-50 162t-14 226.5zM328 481q0 -72 3 -117t12 -71.5t24.5 -35.5t38.5 -9q20 0 47.5 6t57.5 24.5t58.5 52.5t53.5 91q20 45 39.5 101.5t35 113.5t24.5 107.5t9 82.5q0 53 -6 86 t-14.5 55.5t-13.5 38t-5 33.5q0 10 -9 18.5t-19 4.5q-8 -4 -23.5 -7t-34 -8.5t-37 -12.5t-32.5 -21q-29 -29 -66 -70t-68.5 -102.5t-53 -148.5t-21.5 -212zM645 1466q0 10 5 16.5t15.5 16.5t27 28.5t38.5 53.5q12 18 28.5 39.5t33 41t30 37t19.5 30.5q23 39 35 60t21 30.5 t20.5 10.5t33.5 1q27 0 58.5 -17.5t58.5 -40t44 -44t17 -27.5q0 -18 -17 -41t-45 -49.5t-64.5 -55t-73.5 -57.5q-33 -25 -67 -46t-63.5 -36.5t-52 -25t-30.5 -9.5q-31 0 -51.5 28t-20.5 56z" />
<glyph unicode="&#xd4;" horiz-adv-x="1050" d="M72 557q0 174 59 324.5t147.5 261t188.5 174t184 63.5q20 0 32.5 1t22 -1t20.5 -6t30 -12q23 -12 27.5 -42t9.5 -48q4 -12 7 -15.5t13 -3.5q20 0 55 -2t52 -24q8 -12 27.5 -39t23.5 -43q16 -47 17 -85t1 -73q0 -125 -13 -218t-33.5 -161.5t-42.5 -114.5t-38 -75 q-92 -170 -208.5 -273.5t-270.5 -103.5q-92 0 -151.5 31.5t-95.5 96t-50 162t-14 226.5zM332 569q0 -72 3 -116.5t12 -71.5t24.5 -36t38.5 -9q20 0 47.5 6t57.5 24.5t58.5 52.5t53.5 91q20 45 38.5 94t33 97.5t23.5 91.5t9 75q0 53 -6 86t-14.5 55.5t-13.5 38t-5 33.5 q0 10 -9 18.5t-19 4.5q-8 -4 -23.5 -7t-34 -8.5t-37 -12.5t-32.5 -21q-29 -29 -65 -61.5t-66.5 -86t-52 -133.5t-21.5 -205zM367 1493q0 10 5 16.5t15 16.5t26.5 28.5t39.5 53.5q23 37 47 64.5t51 52t52.5 48t51.5 50.5q18 18 60.5 38.5t77.5 20.5q43 0 76.5 -30.5 t58.5 -102.5q4 -12 15 -33.5t24.5 -46t28 -49.5t26.5 -43q23 -35 36 -54.5t21 -29.5t10.5 -16.5t2.5 -16.5q0 -29 -22.5 -46t-53.5 -17q-18 0 -56 18.5t-104 69.5q-14 12 -29.5 30.5t-31 36t-31.5 28.5t-33 7q-35 -10 -71.5 -38.5t-59.5 -51.5q-29 -29 -55.5 -42t-48 -17 t-38 -3t-24.5 1q-31 0 -49 14t-18 43z" />
<glyph unicode="&#xd5;" horiz-adv-x="1038" d="M68 469q0 174 66.5 327.5t163.5 267.5t204.5 179.5t191.5 65.5q33 0 50.5 -16.5t39.5 -49.5q14 -23 20.5 -37t10.5 -32q4 -12 7 -15.5t14 -3.5q20 0 53 -15.5t49 -37.5q8 -12 15.5 -27.5t9.5 -32.5q4 -39 9 -72.5t5 -68.5q0 -125 -12.5 -219t-31 -162.5t-39 -114.5 t-36.5 -75q-92 -170 -209 -273.5t-270 -103.5q-92 0 -151.5 31.5t-95.5 96t-50 162t-14 226.5zM328 481q0 -72 3 -117t12 -71.5t24.5 -35.5t38.5 -9q20 0 46.5 9t53 30.5t54 58.5t52.5 94q41 90 74 183.5t33 158.5q0 23 -5 35t-7 29q-2 12 3 28.5t1 26.5t-8.5 18.5 t-8.5 18.5q-6 20 -26.5 43t-61.5 23q-31 0 -79 -35t-92 -101.5t-75.5 -164t-31.5 -222.5zM367 1466q0 10 1 43t31 90q10 18 28.5 43t42.5 46.5t50.5 37t54.5 15.5q55 0 102.5 -13.5t100.5 -46.5q12 -8 35 -26.5t48.5 -37t54 -32.5t55.5 -14q29 0 59.5 20.5t56.5 32.5 q33 14 54.5 -6.5t21.5 -63.5q0 -31 -15 -62t-38 -60q-14 -16 -37.5 -29.5t-51.5 -24t-53.5 -15.5t-43.5 -5q-37 0 -66 19.5t-58.5 44t-63.5 44t-79 19.5q-12 0 -24 -9.5t-23.5 -20.5t-19.5 -22.5t-10 -15.5q-35 -35 -60.5 -42t-36.5 -7q-16 0 -35.5 11.5t-38 27.5 t-30.5 32.5t-12 26.5z" />
<glyph unicode="&#xd6;" horiz-adv-x="1050" d="M68 469q0 174 58 324.5t144 262t185.5 175t183.5 63.5q10 0 27.5 -4t40.5 -8q31 -4 46 -17.5t31 -21.5q23 -12 25 -31.5t6 -37.5q4 -12 7 -15.5t14 -3.5q20 0 53 -15.5t49 -37.5q8 -12 15.5 -27.5t9.5 -32.5q4 -39 9 -72.5t5 -68.5q0 -125 -12.5 -219t-31 -162.5 t-39 -114.5t-36.5 -75q-92 -170 -209 -273.5t-270 -103.5q-92 0 -151.5 31.5t-95.5 96t-50 162t-14 226.5zM301 1554q0 33 16.5 63t42 51.5t55 33.5t56.5 12q25 0 53.5 -13t53 -31.5t41 -40.5t16.5 -40q0 -10 -18.5 -37.5t-44 -56.5t-55.5 -51.5t-52 -22.5q-23 0 -51.5 9.5 t-53 27t-42 42t-17.5 54.5zM328 481q0 -72 3 -117t12 -71.5t24.5 -35.5t38.5 -9q20 0 46.5 9t53 30.5t54 58.5t52.5 94q41 90 74 183.5t33 158.5q0 23 -5 35t-7 29q-2 12 3 28.5t1 26.5t-8.5 18.5t-8.5 18.5q-6 20 -26.5 43t-61.5 23q-31 0 -79 -35t-92 -101.5t-75.5 -164 t-31.5 -222.5zM803 1481q0 37 13 64.5t34.5 46t48.5 27.5t51 9q12 0 35 -8t44.5 -24.5t37.5 -40t16 -54.5q0 -35 -24 -58t-51 -46q-25 -20 -45.5 -35.5t-34.5 -15.5q-29 0 -47.5 21.5t-36.5 49.5q-10 16 -25.5 27.5t-15.5 36.5z" />
<glyph unicode="&#xd7;" horiz-adv-x="931" d="M123 381q0 27 13.5 50.5t32.5 45t40.5 40t38.5 36.5q18 20 27.5 30.5t9.5 32.5q0 6 -12.5 27t-22.5 39q-12 25 -33.5 52.5t-42 53t-36 48t-15.5 34.5q0 6 7 19.5t17.5 29t22.5 32t23 26.5q20 20 45.5 27.5t44.5 7.5q27 0 54.5 -38t52 -84t47 -84t38.5 -38q14 0 27.5 13.5 t28 31.5t31 37.5t34.5 34.5q8 6 21.5 16t29 21.5t32.5 18.5t34 7q100 0 100 -92q0 -20 -7 -41.5t-24 -38.5q-16 -16 -33.5 -39.5t-33 -46t-27.5 -42t-18 -25.5q-16 -14 -29.5 -36t-13.5 -38q0 -12 18.5 -30.5t34.5 -49.5q8 -16 24.5 -30.5t32 -31t26.5 -38t11 -52.5 q0 -49 -21.5 -88t-62.5 -39q-29 0 -61.5 13.5t-50.5 40.5q-14 20 -34 35.5t-38 29.5q-2 2 -11.5 10.5t-19.5 17.5t-18 17t-11 8q-14 0 -34.5 -21.5t-46.5 -45.5q-23 -23 -49.5 -38t-55.5 -15q-31 0 -51.5 15t-36.5 28q-27 20 -38 40.5t-11 55.5z" />
<glyph unicode="&#xd8;" horiz-adv-x="1101" d="M68 414q0 262 67.5 485t179.5 367q70 88 152 137t172 49q33 0 51.5 -13.5t42.5 -8.5q12 2 21.5 6t17.5 8l16 12l27 57q6 14 13.5 30t29.5 44q12 16 32.5 21.5t65.5 5.5q35 0 45.5 -17.5t26.5 -42.5q6 -10 7 -26.5t0 -33.5t0 -32.5t9 -23.5q16 -18 10.5 -47t-16.5 -56 q-2 -4 -12 -25.5t-39 -62.5q-12 -18 -1 -48t18 -52q10 -35 22 -84t12 -102q0 -82 -18.5 -165t-30.5 -145q-10 -47 -17 -84t-16.5 -70.5t-22.5 -66.5t-34 -70q-90 -164 -214 -265t-275 -101q-10 0 -21.5 3t-19.5 -1q-20 -10 -32.5 -29.5t-27.5 -62.5q-4 -12 -23.5 -23.5 t-44 -18.5t-50 -9.5t-39.5 4.5q-29 10 -33 22t-15 43q-10 31 -4 76t17 78q4 12 12 31.5t-2 48.5q-16 43 -37.5 106.5t-21.5 151.5zM369.5 611.5q6.5 -11.5 33.5 56.5q8 20 28 58t44.5 82t51 92t50 91t41 75t21.5 46q14 43 2 43q-35 0 -78 -56.5t-83 -133t-69.5 -158.5 t-37.5 -131q-10 -53 -3.5 -64.5zM476 274.5q9 -8.5 32 -0.5q51 18 74.5 57.5t58.5 112.5q16 33 33.5 75t23.5 65q10 33 17.5 48t14.5 29.5t13.5 37t14.5 69.5q4 16 -8.5 20.5t-24.5 -18.5q-16 -27 -41 -74t-39 -75q-14 -31 -36.5 -76t-46 -91t-46 -88t-39.5 -67 q-10 -16 -1 -24.5z" />
<glyph unicode="&#xd9;" horiz-adv-x="1210" d="M76 733q0 33 3 84t8 108.5t9 117t8 110.5q0 6 2.5 25.5t6.5 42t9 46t11 38.5q12 33 42 60.5t54 41.5q18 10 32.5 20.5t60.5 10.5q31 0 49 -21.5t32 -54.5q10 -23 17.5 -49.5t7.5 -69.5v-26.5t-2 -32.5q-2 -23 -4 -60t-2 -63q0 -6 -1 -20.5t-2 -31t-3 -30.5t-2 -18 q-10 -51 -12.5 -97.5t-8.5 -105.5q-10 -86 -13 -182.5t13 -172.5q4 -16 4 -35.5t11 -48.5q6 -18 9 -33.5t13 -27.5t30.5 -19.5t63.5 -7.5q76 0 134.5 46.5t88.5 125.5q14 35 25.5 81t21 96.5t19.5 100.5t20 93q4 18 11.5 61.5t15.5 90.5t15.5 89t11.5 60q10 35 11 70t7 80 q12 88 47 131q16 23 36 22.5t46 -0.5q8 0 24.5 -6t35 -13t33 -15.5t18.5 -12.5q14 -14 33.5 -55t21.5 -80q0 -51 -7 -118.5t-18.5 -132t-22.5 -116t-17 -69.5q-14 -39 -22.5 -93.5t-29.5 -111.5q-29 -84 -67.5 -188.5t-103 -198.5t-161 -157.5t-237.5 -63.5q-154 0 -241 57 t-130 161.5t-54 249t-11 318.5zM381 1726q0 6 7 23.5t24.5 36t44 33t63.5 14.5q20 0 39 1t35 -5t29.5 -23.5t25.5 -52.5q4 -12 15.5 -33.5t24.5 -46t27.5 -49.5t26.5 -43q23 -35 39.5 -53.5t26.5 -28.5t15 -16t5 -17q0 -29 -20 -56.5t-51 -27.5q-18 0 -77.5 30t-125.5 81 q-37 29 -69.5 62.5t-55 65.5t-36 59.5t-13.5 45.5z" />
<glyph unicode="&#xda;" horiz-adv-x="1210" d="M76 733q0 68 9 159t15 193q0 6 2 25.5t6.5 42.5t9.5 46.5t11 37.5q12 33 42 60.5t54 41.5q18 10 32.5 20.5t59.5 10.5q31 0 49.5 -21.5t32.5 -54.5q10 -23 17.5 -49t7.5 -69v-26.5t-2 -33.5q-2 -23 -4 -59.5t-2 -63.5q0 -6 -1 -20.5t-2 -30.5t-3 -30.5t-2 -18.5 q-6 -25 -8.5 -38t-3.5 -25.5t-2 -28t-3 -43.5q-10 -86 -13 -182.5t13 -172.5q4 -16 4 -35.5t11 -48.5q6 -18 9 -33.5t13 -27.5t30.5 -19.5t63.5 -7.5q76 0 134.5 46.5t88.5 125.5q14 35 25.5 81t21 96.5t19.5 100.5t20 93q4 18 11.5 51t13.5 68t13.5 65.5t11.5 49.5 q10 35 11 69.5t7 79.5q12 88 47 131q16 23 35.5 23h46.5q8 0 24.5 -6.5t35 -13.5t33 -15t18.5 -12q14 -14 33.5 -55.5t21.5 -80.5q0 -51 -7 -108t-16.5 -108.5t-20.5 -92.5t-17 -59q-14 -39 -22.5 -93.5t-29.5 -111.5q-29 -84 -67.5 -188.5t-103 -198.5t-161 -157.5 t-237.5 -63.5q-154 0 -241 57t-130 161.5t-54 249t-11 318.5zM594 1452q0 8 15.5 24.5t37 36t43 38t33.5 30.5q61 66 105 107t87 41q27 0 53.5 -14.5t48 -33t35 -36t13.5 -23.5q0 -35 -42 -68t-118 -92q-33 -25 -70.5 -43t-72.5 -29.5t-61.5 -16.5t-34.5 -5 q-31 0 -51.5 27.5t-20.5 56.5z" />
<glyph unicode="&#xdb;" horiz-adv-x="1210" d="M61 662q0 68 9.5 158.5t15.5 193.5q0 6 2 25.5t6 42t9.5 46t11.5 37.5q12 33 32.5 52.5t73.5 25.5q61 8 99 8t65 -28q16 -18 20.5 -47t4.5 -72v-26.5t-2 -33.5q-2 -23 -4.5 -59.5t-2.5 -62.5q0 -6 -1 -20.5t-2 -31t-3 -31t-2 -18.5q-6 -25 -8 -38t-3 -25.5t-2 -27.5 t-3 -44q-10 -98 -7 -187t36 -180q6 -18 9 -33.5t13 -27.5t30.5 -19.5t63.5 -7.5q76 0 134.5 46.5t88.5 125.5q29 72 47.5 141.5t41.5 155.5q4 18 8 51t8 68t8 67t8 50q10 35 11.5 69.5t7.5 79.5q12 88 47 132q16 23 35.5 22.5t46.5 -0.5q8 0 24.5 -6t35 -13.5t32.5 -15.5 t18 -12q14 -14 35 -55t21 -80q0 -31 -8.5 -86.5t-21.5 -125t-31.5 -145t-37.5 -145.5q-23 -84 -61.5 -189.5t-104 -198.5t-164 -156.5t-239.5 -63.5q-154 0 -243 46t-135 137t-59.5 224t-13.5 308zM274 1423q0 10 5.5 16.5t15.5 16.5t26.5 28.5t38.5 53.5q23 37 47.5 64.5 t51 52t52.5 48t52 50.5q18 18 60.5 38.5t76.5 20.5q43 0 77 -30.5t59 -102.5q4 -12 15 -33.5t24.5 -46t28 -49t26.5 -43.5q23 -35 36 -54t21 -29.5t10 -16.5t2 -16q0 -29 -12 -55.5t-43 -26.5q-18 0 -66.5 27.5t-113.5 78.5q-14 12 -29.5 30.5t-31 36t-32 29t-32.5 7.5 q-35 -10 -72 -39t-59 -52q-29 -29 -55.5 -42t-48 -17t-38 -3t-24.5 1q-31 0 -49.5 14.5t-18.5 42.5z" />
<glyph unicode="&#xdc;" horiz-adv-x="1210" d="M76 733q0 68 9 159t15 193q0 6 2 25.5t6.5 42.5t9.5 46.5t11 37.5q12 33 42 60.5t54 41.5q18 10 32.5 20.5t59.5 10.5q31 0 49.5 -21.5t32.5 -54.5q10 -23 17.5 -49t7.5 -69v-26.5t-2 -33.5q-2 -23 -4 -59.5t-2 -63.5q0 -6 -1 -20.5t-2 -30.5t-3 -30.5t-2 -18.5 q-6 -25 -8.5 -38t-3.5 -25.5t-2 -28t-3 -43.5q-10 -86 -13 -182.5t13 -172.5q4 -16 4 -35.5t11 -48.5q6 -18 9 -33.5t13 -27.5t30.5 -19.5t63.5 -7.5q76 0 134.5 46.5t88.5 125.5q14 35 25.5 81t21 96.5t19.5 100.5t20 93q4 18 11.5 51t13.5 68t13.5 65.5t11.5 49.5 q10 35 11 69.5t7 79.5q12 88 47 131q16 23 35.5 23h46.5q8 0 24.5 -6.5t35 -13.5t33 -15t18.5 -12q14 -14 33.5 -55.5t21.5 -80.5q0 -51 -7 -108t-16.5 -108.5t-20.5 -92.5t-17 -59q-14 -39 -22.5 -93.5t-29.5 -111.5q-29 -84 -67.5 -188.5t-103 -198.5t-161 -157.5 t-237.5 -63.5q-154 0 -241 57t-130 161.5t-54 249t-11 318.5zM340 1714q0 31 16.5 54.5t41 40t52 24.5t50.5 8q31 0 59.5 -16.5t51 -41t37 -52t14.5 -50.5q0 -16 -7.5 -36.5t-26 -38t-49 -29.5t-77.5 -12q-25 0 -53.5 16t-53 40t-40 49.5t-15.5 43.5zM874 1642 q0 23 6.5 36.5t16.5 39.5q12 31 47 55.5t72 24.5q18 0 40.5 -10t41 -26.5t31 -40t12.5 -50.5q0 -53 -32.5 -95t-98.5 -42q-33 0 -58.5 11t-42 27.5t-26 35t-9.5 34.5z" />
<glyph unicode="&#xdd;" horiz-adv-x="1005" d="M59 1316.5q-4 22.5 0 39.5q4 16 14.5 19t32.5 3q4 0 29 5.5t49 2.5q18 -2 31.5 -9t36.5 -11q12 -2 28.5 -9t24.5 -11q18 -10 28.5 -21.5t14.5 -32.5q8 -35 15.5 -48t11.5 -48q2 -20 7 -66.5t11 -97.5t13.5 -96t13.5 -66q16 -45 33.5 -73.5t42.5 -69.5q14 -23 23 -15.5 t16 17.5q10 16 24 45t29.5 64.5t29 76.5t21.5 82q4 20 14.5 44t20.5 46q12 25 22.5 48.5t14.5 40.5q8 39 26.5 69.5t32.5 59.5q10 20 29.5 28t36.5 8q37 0 58 1t44 -7q18 -6 31.5 -20.5t31.5 -40.5q10 -16 14.5 -29.5t4.5 -36.5q0 -18 -11.5 -52t-26.5 -70.5t-31.5 -71.5 t-26.5 -56q-41 -78 -67 -129t-48 -92q-10 -18 -26.5 -51l-26.5 -53q-35 -66 -72 -133.5t-72 -139.5q-20 -41 -38.5 -73.5t-34.5 -69.5q-20 -47 -47 -96t-39 -88q-8 -23 -13.5 -38t-10.5 -26.5t-11 -21t-12 -21.5q-18 -33 -50 -41t-41 -10q-16 -4 -36.5 -4t-39 2t-32.5 5 t-21 7q-25 18 -35 39t-10 43q0 23 3 45.5t12.5 51t26 66.5t42.5 91q12 25 20.5 44.5t15.5 34.5t14.5 27.5t17.5 26.5q16 20 44 58.5t44 66.5q14 23 10 29t-26 6q-37 0 -72 32t-62 68q-63 90 -98 188.5t-50 189.5t-17.5 167t-2.5 123q0 12 -4 34.5zM477 1515q0 10 5 16.5 t15.5 16.5t27 28.5t38.5 53.5q12 18 28.5 39.5t33 41t29.5 37t20 29.5q23 39 35 60.5t21 31t20.5 10.5t33.5 1q27 0 58.5 -17.5t58.5 -40t44 -44t17 -27.5q0 -18 -17 -41t-45 -49.5t-64.5 -55t-73.5 -57.5q-33 -25 -67 -46.5t-63.5 -37t-52 -24.5t-30.5 -9q-31 0 -51.5 27.5 t-20.5 56.5z" />
<glyph unicode="&#xde;" horiz-adv-x="1015" d="M84 57q0 72 11.5 109.5t15.5 64.5q0 33 8 86.5t19.5 112.5t21.5 116.5t14 98.5q6 70 16.5 112t22.5 93q10 43 14 96t6 88q2 33 8.5 80t12.5 93t11 84t5 52q0 12 1 25.5t3 26.5q2 14 7 28q4 20 4 35q2 16 4 32.5t14 51.5q12 43 107 43q33 0 45 -6t37 -25q18 -14 28 -33.5 t29 -39.5q16 -18 21 -45t5 -56q0 -8 -1 -22.5t-2 -29.5t-3 -29.5t-4 -22.5q-8 -25 10.5 -30t28.5 -5q72 0 110 -8t63.5 -24.5t49 -41t66.5 -55.5q35 -25 52.5 -55.5t23.5 -67.5t6 -81v-97q0 -59 -18.5 -128t-50.5 -137.5t-75 -133t-92 -115.5q-35 -37 -68.5 -70.5 t-64.5 -50.5q-20 -10 -38.5 -10h-35.5q-14 0 -31.5 1t-45.5 17q-10 6 -20.5 1t-14.5 -17q-8 -20 -11 -47t-10 -86q-4 -47 -20.5 -72.5t-44.5 -38.5q-31 -14 -56.5 -25.5t-50.5 -4.5q-29 8 -59.5 28.5t-46.5 36.5q-16 14 -26.5 45t-10.5 53zM446 451q0 -18 3.5 -26.5 t19.5 -8.5q24 -1 57 26q31 23 54 56q23 29 45 73.5t39.5 92t29 87.5t11.5 60q0 125 -74 125q-35 0 -63.5 -25.5t-49 -67.5t-35 -98.5t-22.5 -117.5q-8 -59 -11.5 -106.5t-3.5 -69.5z" />
<glyph unicode="&#xdf;" horiz-adv-x="1112" d="M70 -66q0 35 5 64t5 63q0 23 7 44.5t11 44.5q10 43 20.5 94t14.5 116q2 45 12.5 85t18.5 71q10 47 6 84t-27 74q-10 14 -16 22.5t-10 14.5t-6 15t-2 28q0 29 10 62.5t33 43.5q16 6 26 22.5t25 28.5q18 16 33.5 50t19.5 98q8 104 48 179t99.5 127t133 84t149.5 48 q23 4 55.5 3t66.5 -7t62.5 -16.5t42.5 -22.5q27 -23 46.5 -62.5t35.5 -82.5q12 -35 23.5 -69t11.5 -83q0 -27 -12 -60.5t-30.5 -69.5t-41 -70.5t-45.5 -63.5q-47 -61 -83 -97t-40 -71q-4 -57 29 -94t92 -66q31 -14 45 -31.5t33 -31.5q4 -4 13 -15.5t19.5 -26t19.5 -28.5 t13 -22q16 -31 27.5 -57.5t11.5 -65.5q0 -45 -16 -80t-43 -68q-18 -23 -46 -47t-54 -35q-8 -4 -29 -16t-44.5 -25.5t-46 -24.5t-32.5 -11q-14 -4 -46 -5.5t-67.5 -1.5t-66.5 1t-45 1q-45 0 -67.5 9.5t-32 24t-9.5 31.5v36q0 6 7.5 17t17.5 23.5t21.5 20.5t19.5 8q35 0 53 -3 t39 -7q14 -4 54 7.5t69 25.5q35 16 57.5 54t22.5 73q0 16 -10.5 37.5t-53.5 50.5q-33 20 -67.5 52t-64.5 72t-49.5 87t-19.5 100q0 47 26 97.5t48 87.5q29 47 60.5 83.5t59.5 68.5t46.5 58.5t18.5 55.5q0 20 -6.5 46t-21.5 46t-42 31.5t-70 5.5q-57 -8 -94 -58.5 t-61.5 -135.5t-42 -198.5t-33.5 -248.5q-4 -37 -8 -92.5t-8.5 -114.5t-8.5 -117.5t-8 -99.5q-2 -27 -4 -53.5t-6 -53.5q-4 -29 -9.5 -56.5t-5.5 -55.5q0 -29 -13 -60.5t-52 -56.5q-16 -10 -41 -22.5t-57 -14.5q-53 -4 -91 25.5t-38 72.5z" />
<glyph unicode="&#xe0;" horiz-adv-x="1099" d="M86 274q0 111 40 208.5t111.5 179t170 144t217.5 103.5q25 8 51 22.5t86 14.5q12 0 28.5 -7t32 -19.5t26.5 -26.5t13 -27q4 -35 15.5 -36t42.5 -1q45 0 67 -10q23 -10 28 -35.5t5 -54.5q0 -35 -17.5 -80t-29.5 -88q-4 -16 -12.5 -65.5t-14.5 -102.5t-10 -100t0 -60 q4 -18 5 -32.5t3 -42.5v-25.5t-3 -20t-8 -24t-15 -33.5q-14 -31 -61.5 -44t-84.5 -13q-16 0 -30.5 22.5t-23.5 52t-14.5 59.5t-5.5 42q0 16 11.5 44t11.5 69q0 23 -3 31t-7 8t-9.5 -7.5t-9.5 -15.5q-31 -61 -79 -112.5t-100 -88t-106.5 -57t-97.5 -20.5q-63 0 -106 23.5 t-68.5 60t-37 80.5t-11.5 85zM297 326q0 -43 12.5 -57.5t48.5 -14.5q25 0 64 17.5t80 46t77 64.5t56 73q8 14 20.5 35.5t26.5 42t26.5 38t20.5 25.5q10 10 9 18.5t-11 10.5q-35 6 -35 43q0 20 -8 32.5t-27 1.5q-49 -27 -111.5 -66.5t-117.5 -89.5t-93 -106.5t-38 -113.5z M510 1303q0 6 5 28.5t19.5 46t39 42t61.5 18.5q47 0 75.5 -17.5t49 -48.5t38 -71.5t46.5 -86.5q23 -35 39 -53t26.5 -28.5t15.5 -16.5t5 -16q0 -29 -20.5 -56.5t-51.5 -27.5q-18 0 -77.5 29.5t-125.5 80.5q-76 59 -110.5 100.5t-34.5 76.5z" />
<glyph unicode="&#xe1;" horiz-adv-x="1191" d="M72 236q0 141 56 275t143 237.5t195.5 167t213.5 63.5q27 0 66.5 -15.5t60.5 -62.5q6 -14 17.5 -8t19.5 20q6 10 17 18.5t25.5 13.5t27 7t20.5 2q10 0 36.5 -5t54.5 -16t49.5 -31.5t21.5 -51.5t-12.5 -72t-29 -91t-31.5 -107.5t-24 -118.5l-6 -36t-9 -53.5t-8 -60 t-3 -57.5q0 -8 6 -27.5t13 -42t13.5 -46t6.5 -40.5q0 -20 -7.5 -44t-23.5 -42q-35 -37 -77 -48t-68 -11q-16 0 -42 11t-48.5 28.5t-39 40t-16.5 47.5q0 20 8.5 40.5t8.5 51.5t-9.5 31t-19.5 -15q-29 -45 -74 -85t-99 -70.5t-111.5 -49t-110.5 -18.5q-106 0 -158.5 72 t-52.5 199zM297 266q0 -43 12 -57t49 -14q49 0 102.5 35.5t103.5 91t92 124t67 136.5q4 12 3 32.5t-15 42.5q-12 20 -14.5 35t-6.5 23t-17.5 11t-47.5 3q-41 0 -97.5 -43t-107.5 -109.5t-87 -148.5t-36 -162zM600 1151q0 8 22.5 33.5t54.5 60.5t65.5 73t56.5 73t55.5 68.5 t54.5 33.5q27 0 52.5 -15.5t45 -35t32 -39t12.5 -25.5q0 -35 -44 -96.5t-120 -120.5q-33 -25 -67 -43t-63.5 -29.5t-53 -16.5t-31.5 -5q-31 0 -51.5 27.5t-20.5 56.5z" />
<glyph unicode="&#xe2;" horiz-adv-x="1089" d="M53 274q0 92 30 180.5t80 167t115.5 145.5t139.5 115t149.5 74.5t145.5 26.5q82 0 128 -25.5t74 -95.5q12 -33 21.5 -36t24.5 -3q37 0 54 -36.5t17 -77.5q0 -33 -12 -76t-51 -103q-4 -8 -14.5 -46t-10.5 -95q0 -35 1 -79t7 -70q2 -10 7.5 -26.5t11.5 -33t10 -31t4 -20.5 q0 -18 -6 -43t-17.5 -47.5t-28.5 -37.5t-42 -15q-86 0 -136 12t-50 45q0 16 -7.5 31.5t-5.5 27.5q2 10 -7 39t-9 39q0 23 -4 29t-10.5 3t-12.5 -12.5t-10 -17.5q-25 -41 -63.5 -67.5t-84 -44t-92.5 -24.5t-84 -7q-59 0 -107 22.5t-82 56.5t-53.5 76t-19.5 80zM297 315 q0 -43 12.5 -57t48.5 -14q66 0 127.5 43t111.5 101t89 118.5t57 95.5q6 10 4 22.5t-12 14.5q-16 4 -23 26.5t-16 39.5q-14 29 -38.5 24.5t-43.5 -10.5q-41 -12 -95 -56.5t-103 -103.5t-84 -123.5t-35 -120.5zM453 1194q0 35 8 57.5t25.5 41t41 39t54.5 50.5q45 45 76.5 82 t72.5 72q12 8 37 23.5t54.5 20.5t60 -6t55.5 -54q20 -39 31.5 -57.5t19.5 -30t15.5 -22.5t23.5 -32q14 -23 34.5 -54.5t37 -62t29 -56.5t12.5 -36q0 -49 -32 -74.5t-71 -25.5q-14 0 -32.5 17.5t-40 41t-46 48t-51.5 38.5q-6 2 -16 10.5t-25.5 10.5t-37 -5t-50.5 -34 q-20 -18 -45.5 -38.5t-51.5 -36t-48.5 -26t-36.5 -10.5q-49 0 -76.5 34t-27.5 75z" />
<glyph unicode="&#xe3;" horiz-adv-x="1136" d="M43 268q0 72 24.5 156t66.5 167t98.5 159.5t122 136t136 94.5t140.5 35q27 0 68.5 7t80.5 -7q49 -18 64.5 -34.5t19.5 -43.5q4 -35 20.5 -39t47.5 -4q23 0 36 -7t27 -14q23 -10 24 -28.5t1 -46.5q0 -37 -7 -67t-16.5 -55.5t-16.5 -47t-9 -43.5q-2 -35 -12.5 -72 t-22.5 -74t-21.5 -70.5t-9.5 -62.5q0 -35 5 -64.5t12 -56.5q2 -10 4 -28.5t3 -38t2 -35.5t1 -23q0 -37 -21.5 -65.5t-68.5 -38.5q-35 -8 -51.5 -9t-42.5 -5q-35 -6 -59.5 19.5t-24.5 98.5q0 16 -7.5 32t-5.5 28q2 10 0 34.5t-2 34.5q0 23 -3 31t-7 8t-9 -7t-9 -15 q-31 -61 -74 -108.5t-91 -79t-97.5 -47t-92.5 -15.5q-63 0 -106 24.5t-68.5 67.5t-37 99.5t-11.5 119.5zM281 279q0 -43 12 -57.5t49 -14.5q25 0 58.5 26.5t69.5 66.5t67.5 84t52.5 81q8 14 24.5 47t35 67.5t34.5 64.5t25 38q10 10 9 18.5t-11 10.5q-35 6 -35 43 q0 35 -35 34q-41 0 -102.5 -50t-118 -125.5t-96 -165t-39.5 -168.5zM465 1233v46t35 95q10 20 29.5 46t44 48.5t54 38t58.5 15.5q59 0 109.5 -14.5t105.5 -49.5q14 -8 38 -27.5t51.5 -39t57 -35t58.5 -15.5t62.5 22.5t62.5 35.5q35 14 57.5 -6.5t22.5 -67.5 q0 -33 -15.5 -65.5t-42.5 -63.5q-14 -18 -39.5 -32.5t-54.5 -25t-56.5 -15.5t-45.5 -5q-39 0 -71 20.5t-62.5 46t-66.5 46t-85 20.5q-12 0 -25.5 -9t-24.5 -21.5t-19.5 -23.5t-12.5 -15q-37 -37 -64.5 -45.5t-37.5 -8.5q-16 0 -38 12.5t-40 29t-31.5 35t-13.5 28.5z" />
<glyph unicode="&#xe4;" horiz-adv-x="1153" d="M70 227q0 141 59 273.5t152.5 235t205 164t215.5 61.5q27 0 69 -16.5t77 -33.5q14 -6 36.5 10.5t41.5 34.5q8 8 23.5 7.5t32.5 -6t33.5 -12.5t26.5 -11q23 -10 33 -46t10 -65q0 -16 -9 -47t-21.5 -66.5t-24.5 -69.5t-18 -54q-4 -12 -15.5 -46t-25 -78t-26.5 -94.5 t-19 -95.5q-4 -35 -9.5 -81t1.5 -72q4 -18 8 -53t4 -46q0 -37 -20.5 -65.5t-67.5 -38.5q-16 -4 -24.5 -9t-14.5 -10.5t-13.5 -8.5t-19.5 -3q-35 0 -50 51.5t-15 124.5q0 16 -7.5 32t-5.5 28q2 10 0 34.5t-2 34.5q0 23 -3 31t-8 8t-10 -7t-7 -15q-29 -70 -72 -117t-91 -76.5 t-98.5 -43t-93.5 -13.5q-127 0 -182 71.5t-55 198.5zM295 258q0 -43 12 -57.5t49 -14.5q25 0 64 30t79 73t75.5 91t56.5 85q8 14 20.5 38.5t24.5 49.5t24.5 45t20.5 29q10 10 9 18t-11 10q-18 2 -26.5 8.5t-14.5 12.5t-15.5 11t-29.5 5q-41 0 -99.5 -38t-111.5 -99t-90 -139 t-37 -158zM516 1272q0 27 16.5 54.5t40 49t50 35.5t45.5 14q37 0 76.5 -23.5t41.5 -55.5q0 -25 5.5 -39.5t11.5 -24.5t11 -17.5t5 -19.5q0 -16 -14 -35.5t-39 -36t-55.5 -27.5t-63.5 -11q-66 0 -98.5 42t-32.5 95zM999 1219q0 23 17.5 50t42 52t52.5 41t50 16q43 0 79 -26.5 t36 -85.5q0 -18 -15.5 -44t-40 -49.5t-53 -40t-53.5 -16.5t-45 9.5t-35.5 24.5t-25 33.5t-9.5 35.5z" />
<glyph unicode="&#xe5;" horiz-adv-x="1136" d="M76 256q0 72 27.5 155t75.5 163.5t110.5 154.5t133.5 130t145.5 90t144.5 34q27 0 52.5 -7t43.5 -7q27 0 44 -10.5t28.5 -25.5t19.5 -33.5t14 -37.5q12 -33 21.5 -36t24.5 -3q37 0 54 -36.5t17 -77.5q0 -33 -12 -76t-51 -103q-4 -8 -14.5 -46t-10.5 -95q0 -35 1 -79 t7 -70q2 -10 12.5 -25.5t22.5 -33t21.5 -31t9.5 -19.5q0 -18 -11.5 -40.5t-30 -44t-40.5 -38t-45 -22.5q-35 -8 -51.5 -9.5t-42.5 -5.5q-16 -4 -32.5 -6t-30 2t-21.5 21.5t-8 54.5q0 16 -7.5 31.5t-5.5 27.5q2 10 -7 39t-9 39q0 23 -4 29t-10.5 3t-12.5 -12.5t-10 -17.5 q-25 -41 -63.5 -67.5t-84 -44t-92.5 -24.5t-84 -7q-59 0 -103 19.5t-75 50t-46 69.5t-15 78zM297 315q0 -43 12.5 -57t48.5 -14q66 0 127.5 43t111.5 101t89 118.5t57 95.5q6 10 4 22.5t-12 14.5q-16 4 -23 26.5t-16 39.5q-14 29 -38.5 24.5t-43.5 -10.5q-41 -12 -95 -56.5 t-103 -103.5t-84 -123.5t-35 -120.5zM653 1298q0 74 19.5 124.5t48.5 88.5q39 61 87 101.5t144 40.5q37 0 57.5 -19.5t24.5 -29.5q2 -10 10.5 -20.5t22.5 -10.5q47 0 88 -36t41 -122q0 -59 -25.5 -114.5t-68.5 -98.5t-100.5 -68.5t-120.5 -25.5q-53 0 -95.5 20.5t-71 49 t-45 62.5t-16.5 58zM842 1335q0 -16 10 -29.5t41 -13.5q35 0 69.5 30t34.5 67q0 23 -5 36t-15 27l-5 10t-11 2t-10.5 1t-10.5 -7q-12 -14 -32.5 -26.5t-26.5 -16.5q-12 -10 -25.5 -30.5t-13.5 -49.5z" />
<glyph unicode="&#xe6;" horiz-adv-x="1574" d="M154 383q0 109 50 226.5t131 216t183.5 162t206.5 63.5q23 0 52.5 -3.5t56 -13.5t47 -33.5t24.5 -62.5q4 -20 14.5 -30.5t38.5 5.5q35 20 73 41t76 38.5t71.5 28.5t60.5 11q47 0 87 -7t71 -26q20 -12 44.5 -30.5t39.5 -38.5q20 -29 26 -68t6 -78q0 -25 -10 -53.5 t-25.5 -57t-34 -54t-36.5 -46.5q-39 -45 -71.5 -72.5t-62.5 -45t-53.5 -28.5t-43.5 -24q-55 -35 -98.5 -32.5t-71.5 18.5q-23 12 -23 -2v-25q0 -14 6 -33.5t19.5 -38t32 -30.5t42.5 -12q35 0 65 -5t40 -5q16 0 46 -6.5t95 -6.5q14 0 34.5 -9t20.5 -26q0 -10 3.5 -21 t-13.5 -28q-10 -10 -20.5 -24.5t-16.5 -16.5q-16 -6 -21 -9t-13.5 -8t-23.5 -11t-54 -15q-16 -4 -43 -4t-58.5 1t-64.5 2t-62 1q-16 0 -27.5 1t-17.5 -1t-9 -10t-3 -27q0 -37 -6 -62.5t-53 -35.5q-35 -8 -52.5 -1t-40.5 22q-23 14 -39 20t-26 15.5t-14 28t-4 54.5 q0 16 -7.5 32t-5.5 28q2 10 0 34.5t-2 34.5q0 23 -3 31t-7 8t-9 -7t-9 -15q-14 -29 -44 -53.5t-69 -43t-84 -28.5t-88 -10q-63 0 -106.5 24.5t-69 67.5t-36.5 99t-11 120zM391 393q0 -43 12.5 -57t49.5 -14q98 0 178 143q8 14 24.5 47t35 67.5t34.5 64.5t25 38q10 10 9 18.5 t-11 10.5q-35 6 -35 43q0 35 -35 34q-41 0 -91 -31.5t-93 -86t-73 -126t-30 -151.5zM1006 547h10q14 0 55 16.5t82 42t74 58t33 67.5q0 18 -6.5 32.5t-32.5 14.5q-27 0 -83.5 -28.5t-103.5 -79.5q-8 -23 -14 -43.5t-8 -40.5q-2 -10 -2 -19.5t-4 -19.5z" />
<glyph unicode="&#xe7;" horiz-adv-x="946" d="M98 498q0 102 38 199.5t107.5 173t169 121.5t222.5 46q51 0 114.5 -11t114.5 -58q49 -47 52.5 -81t3.5 -59q0 -29 -26 -47t-48 -24q-8 -2 -25.5 -7.5t-37 -10.5t-36 -7t-22.5 0q-29 14 -48.5 22.5t-36.5 12.5t-34.5 5t-42.5 1q-39 0 -72.5 -22.5t-59 -59.5t-40 -84 t-14.5 -96q0 -92 44 -151.5t109 -59.5q70 0 129 21q23 8 61 13t66 5h47.5t22.5 -23q0 -20 -9 -41.5t-34 -50.5q-12 -14 -34.5 -32.5t-45.5 -32.5t-52.5 -23.5t-64.5 -21.5q-41 -14 -72.5 -22.5t-72.5 -8.5q-72 0 -138.5 30.5t-118.5 86t-84 131.5t-32 166zM285 -338 q0 16 13 28.5t24 20.5q18 16 36.5 16.5t36.5 0.5q51 0 83 10t32 45q0 23 -13.5 39t-33.5 24q-39 14 -72 15q-18 0 -29.5 5t-23.5 11q-14 8 -26.5 14.5t-12.5 28.5q2 10 8 25.5t17 31.5q12 16 34.5 15.5t44.5 -0.5q49 0 103.5 -6t98.5 -23.5t73 -47.5t29 -77 q0 -59 -16.5 -102t-69.5 -84q-43 -33 -104.5 -59.5t-149.5 -26.5q-49 0 -65.5 25.5t-16.5 70.5z" />
<glyph unicode="&#xe8;" horiz-adv-x="923" d="M35 375q0 80 34.5 180t101.5 189.5t163 150.5t217 61q47 0 95 -18t79 -37q20 -12 37.5 -32.5t32.5 -41.5q20 -29 39.5 -57.5t19.5 -67.5q0 -61 -10 -100t-26.5 -65.5t-36 -46t-36.5 -39.5q-14 -18 -41.5 -37t-60.5 -36.5t-67.5 -30.5t-63.5 -21q-63 -16 -105 -12.5 t-59 20.5q-14 12 -21.5 7t-7.5 -15q0 -25 5.5 -49.5t16.5 -46t28.5 -35t42.5 -13.5q18 0 49 3t62.5 8.5t59 11.5t38.5 12q6 4 27.5 17.5t47 26.5t50 24.5t38.5 11.5t29.5 -26.5t15.5 -53.5q0 -14 -18.5 -47t-32.5 -47q-53 -51 -106.5 -91t-100.5 -57q-47 -16 -92 -22 t-102 -6q-92 0 -156.5 35.5t-105.5 95t-60.5 136.5t-19.5 161zM330 1270q0 6 5 28.5t19.5 46t39 42t61.5 18.5q47 0 75.5 -17.5t49 -48t38 -71.5t46.5 -86q23 -35 39 -53.5t26 -28.5t15.5 -16.5t5.5 -16.5q0 -29 -20.5 -56.5t-51.5 -27.5q-18 0 -77.5 29.5t-125.5 81.5 q-76 59 -110.5 100t-34.5 76zM354 555q-4 -16 1 -23.5t28 -7.5q14 0 47 3t65.5 13.5t57.5 31t25 55.5q0 18 -12.5 39.5t-39.5 21.5q-63 0 -109 -37t-63 -96z" />
<glyph unicode="&#xe9;" horiz-adv-x="950" d="M51 330q0 41 15.5 99t27.5 101q8 29 14.5 45.5t14.5 29.5t19.5 28.5t29.5 40.5q37 51 88 99t114.5 86t136.5 60.5t151 22.5q47 0 69.5 -15.5t52.5 -33.5q20 -12 38 -32.5t32 -41.5q20 -29 39.5 -57.5t19.5 -67.5q0 -61 -17 -106t-42 -79t-50.5 -58.5t-41.5 -44.5 q-14 -18 -42 -37t-60.5 -36.5t-67.5 -30.5t-64 -21q-63 -16 -105 -12.5t-58 20.5q-14 12 -21.5 7t-7.5 -15q0 -47 21.5 -78t70.5 -31q35 0 75 4t62 17q6 4 23.5 10t37 12t40 10t34.5 4t36 -10t22 -26q0 -6 -2 -22.5t-5 -34t-6.5 -35t-7.5 -25.5q-14 -37 -42.5 -68 t-106.5 -43q-49 -8 -93 -18t-102 -10q-92 0 -156.5 29.5t-105.5 82.5t-60.5 125t-19.5 156zM371 510q-4 -16 1 -23.5t27 -7.5q14 0 54.5 8.5t80 25.5t71.5 43.5t32 61.5q0 18 -12.5 40t-38.5 22q-31 0 -66 -15.5t-65.5 -40t-53 -54t-30.5 -60.5zM582 1075q0 8 26.5 30.5 t62.5 53.5t73.5 64.5t64.5 64.5t63.5 60.5t59.5 27.5q27 -4 49.5 -21.5t39.5 -40t26.5 -43t9.5 -26.5q-4 -35 -55.5 -91t-133.5 -103q-35 -23 -71.5 -30t-69.5 -8t-56.5 3t-31.5 4q-31 4 -46 15.5t-11 39.5z" />
<glyph unicode="&#xea;" horiz-adv-x="950" d="M51 391q0 41 15.5 99.5t27.5 101.5q8 29 14.5 45t14.5 29.5t19.5 29t29.5 39.5q37 51 88 99.5t114.5 86t136.5 60.5t151 23q47 0 69.5 -15.5t52.5 -34.5q20 -12 38 -32.5t32 -40.5q20 -29 39.5 -57.5t19.5 -67.5q0 -61 -17 -106.5t-42 -79t-50.5 -58.5t-41.5 -45 q-14 -18 -42 -36.5t-60.5 -36t-67.5 -31t-64 -21.5q-63 -16 -105 -12t-58 20q-14 12 -21.5 7t-7.5 -15q0 -47 21.5 -78t70.5 -31q35 0 75 4.5t62 16.5q6 4 23.5 10t37 12.5t40 10.5t34.5 4t36 -10.5t22 -26.5q0 -6 -2 -22.5t-5 -34t-6.5 -35t-7.5 -25.5q-14 -37 -42.5 -67.5 t-106.5 -42.5q-49 -8 -93 -18.5t-102 -10.5q-92 0 -156.5 29.5t-105.5 83t-60.5 125t-19.5 155.5zM350 1237q0 39 30 68.5t91 91.5q45 45 79 75.5t87 57.5q12 6 37.5 20.5t55.5 20.5t59.5 -4.5t54.5 -53.5q20 -39 31.5 -57t19.5 -29.5t15.5 -22.5t23.5 -32 q14 -23 34.5 -54.5t37 -62t29 -56.5t12.5 -36q0 -49 -32 -74.5t-71 -25.5q-14 0 -32.5 17.5t-40 41t-46 48t-51.5 38.5q-6 2 -19.5 13.5t-34 17.5t-46 3t-53.5 -30q-41 -39 -87.5 -74.5t-74.5 -35.5q-25 0 -45.5 13t-33.5 33.5t-21.5 44.5t-8.5 44zM371 571q-4 -16 1 -23 t27 -7q14 0 54.5 8t80 25.5t71.5 44t32 61.5q0 18 -12.5 39.5t-38.5 21.5q-31 0 -66 -15t-65.5 -39.5t-53 -54.5t-30.5 -61z" />
<glyph unicode="&#xeb;" horiz-adv-x="923" d="M35 416q0 80 34.5 180t101.5 189t163 150.5t217 61.5q47 0 95 -18t79 -37q20 -12 37.5 -32.5t32.5 -41.5q20 -29 39.5 -57.5t19.5 -67.5q0 -61 -10 -100t-26.5 -65.5t-36 -46t-36.5 -39.5q-14 -18 -41.5 -37t-60.5 -36.5t-67.5 -30.5t-63.5 -21q-63 -16 -105 -12.5 t-59 20.5q-14 12 -21.5 7t-7.5 -15q0 -25 5.5 -49.5t16.5 -46t28.5 -35t42.5 -13.5q18 0 49 3t62.5 8.5t59 11.5t38.5 12q6 4 27.5 17.5t47 26.5t50 24.5t38.5 11.5t29.5 -26.5t15.5 -53.5q0 -14 -18.5 -47t-32.5 -47q-53 -51 -106.5 -91t-100.5 -57q-47 -16 -92 -22 t-102 -6q-92 0 -156.5 35.5t-105.5 95t-60.5 136.5t-19.5 161zM276 1202q0 18 15.5 44t40 49.5t53.5 40t53 16.5q25 0 45.5 -9.5t36 -24.5t24.5 -34t9 -35q0 -23 -17.5 -50.5t-42 -52t-53 -40.5t-49.5 -16q-43 0 -79 26.5t-36 85.5zM354 596q-4 -16 1 -23.5t28 -7.5 q14 0 47 3t65.5 13.5t57.5 31t25 55.5q0 18 -12.5 39.5t-39.5 21.5q-63 0 -109 -37t-63 -96zM676 1126q-2 49 0 66.5t2 40.5q0 33 36 68.5t101 35.5q66 0 98.5 -42t32.5 -95q0 -27 -16.5 -54.5t-40 -49t-50 -35.5t-44.5 -14t-39 6t-38.5 16t-29.5 25.5t-12 31.5z" />
<glyph unicode="&#xec;" horiz-adv-x="602" d="M53 80q0 51 17.5 91t31.5 71l45 100q10 25 15.5 41t10.5 51t13.5 99.5t24.5 187.5q4 27 3 45t5 47q4 18 20.5 35.5t40 31t49 22.5t50.5 9q66 0 86 -28.5t33 -69.5q14 -47 16 -76.5t2 -58.5q0 -23 -11 -49.5t-20 -69.5q-4 -23 -15 -63.5t-24 -85.5l-12 -43.5t-7 -22.5 t-5 -14t-4 -19q-10 -39 -18.5 -69.5t-8.5 -67.5q0 -29 -1 -64.5t-40 -78.5q-12 -12 -34.5 -26.5t-46 -25t-43 -17.5t-25.5 -7t-20.5 1t-31 4t-32 9t-23.5 15q-18 20 -29.5 40.5t-11.5 55.5zM115 1268q0 6 5 28.5t19.5 46t39 42t61.5 18.5q47 0 75.5 -17.5t49 -48t38 -71.5 t46.5 -86q23 -35 39 -53.5t26 -29t15.5 -16.5t5.5 -16q0 -29 -20.5 -56.5t-51.5 -27.5q-18 0 -77.5 29.5t-125.5 81.5q-76 59 -110.5 100t-34.5 76z" />
<glyph unicode="&#xed;" horiz-adv-x="612" d="M92 70q0 51 5 88t12 69l38 187q10 53 24.5 107t14.5 132v160q0 27 1 45.5t8 46.5q20 76 118 76q14 0 40 -7t50.5 -19.5t45 -29t26.5 -36.5q6 -23 10 -39t5.5 -28.5t1.5 -25v-26.5q0 -23 -4.5 -70t-12.5 -90q-4 -23 -5 -47t-13 -69q-16 -55 -25.5 -108.5t-9.5 -76.5 q-2 -53 -13.5 -93t-25.5 -75q-10 -27 -21.5 -65.5t-50.5 -81.5q-12 -12 -30.5 -23.5t-39 -19.5t-36 -12.5t-21.5 -4.5q-14 0 -41.5 13.5t-40.5 36.5q-8 14 -9 32.5t-1 53.5zM309 1130q0 8 22.5 34t54.5 61t65.5 72.5t56.5 72.5t55.5 69t54.5 34q27 0 52.5 -15.5t45 -35 t32 -39t12.5 -25.5q0 -35 -44 -96.5t-120 -120.5q-33 -25 -66.5 -43.5t-63.5 -29.5t-53.5 -16t-31.5 -5q-31 0 -51.5 27.5t-20.5 55.5z" />
<glyph unicode="&#xee;" horiz-adv-x="612" d="M94 145q0 23 4 70t13 90q4 23 5 47.5t13 69.5q16 55 25.5 108.5t9.5 75.5q2 53 13 93t26 75q10 27 21.5 66t49.5 82q12 12 31 23t39.5 19.5t35.5 12.5t21 4q14 0 42 -13.5t40 -35.5q8 -14 9.5 -32.5t1.5 -53.5q0 -51 -5.5 -88t-11.5 -70l-39 -186q-10 -53 -24.5 -107.5 t-14.5 -132.5v-160q0 -27 -1 -45t-7 -47q-20 -76 -119 -76q-16 0 -40.5 7.5t-49 19.5t-45 28.5t-26.5 37.5q-14 45 -15.5 67.5t-1.5 50.5zM125 1204q0 39 29.5 69t91.5 91q45 45 78.5 75.5t87.5 57.5q12 6 37.5 20.5t55.5 20.5t59.5 -4t53.5 -53q20 -39 32 -57.5t20 -30 t15 -22.5t24 -32q14 -23 34.5 -54.5t37 -62t28.5 -56.5t12 -36q0 -49 -31.5 -74.5t-70.5 -25.5q-14 0 -32.5 17.5t-40 41t-46.5 48t-51 39.5q-6 2 -19.5 13t-34 17t-46 3t-54.5 -29q-41 -39 -87 -75t-75 -36q-25 0 -45 13.5t-33.5 34t-21.5 44t-8 43.5z" />
<glyph unicode="&#xef;" horiz-adv-x="602" d="M53 188q0 23 11.5 49.5t19.5 69.5q4 23 15.5 64t23.5 86q8 27 12 42t7 23t4 14.5t6 18.5q10 39 18 69.5t8 67.5q0 29 1 65t40 79q12 12 34.5 26.5t46.5 24.5t43 17t26 7q6 0 20 -1t30.5 -4t32 -9t23.5 -14q18 -20 29.5 -41t11.5 -56q0 -51 -17.5 -91t-31.5 -70l-45 -101 q-10 -25 -15.5 -41t-10.5 -51t-13 -99.5t-25 -187.5q-4 -27 -3 -45t-5 -47q-4 -18 -20.5 -35.5t-40 -31t-49 -22.5t-50.5 -9q-66 0 -86 28.5t-32 69.5q-14 47 -16.5 77t-2.5 58zM158 1225q0 27 16 54.5t40 49t50.5 35.5t44.5 14q37 0 77 -23.5t42 -56.5q2 -49 0 -66t-2 -40 q0 -33 -36 -69t-101 -36q-66 0 -98.5 42t-32.5 96zM551 1176q0 23 17.5 50t42 52t52 41t50.5 16q43 0 78.5 -26.5t35.5 -85.5q0 -18 -15 -44t-39.5 -49.5t-53.5 -40t-53 -16.5q-25 0 -45.5 9.5t-36 24.5t-24.5 33.5t-9 35.5z" />
<glyph unicode="&#xf0;" horiz-adv-x="1024" d="M70 344q0 152 46 267.5t120.5 193.5t169 118t192.5 40q35 0 56.5 -22.5t31.5 -39.5q16 -29 31.5 -24.5t19.5 26.5q4 33 2 60.5t-28 62.5q-4 4 -12.5 9t-18.5 -5q-12 -10 -18.5 -19.5t-16.5 -17.5q-29 -23 -83 -16.5t-95 43.5q-8 6 -17.5 22.5t-10.5 40t8.5 52t37.5 61.5 q25 33 10.5 41t-55.5 18q-12 2 -31.5 6.5t-41 10.5t-40 13t-26.5 18q-12 18 -11 49.5t7 54.5q10 35 31.5 59.5t52.5 34.5q14 6 42 6t57.5 -3t58 -8t47.5 -11q33 -10 47 -16.5t41 -26.5q10 -8 28.5 -2t30.5 16q10 8 18.5 16.5l22.5 22.5q33 37 83 36t116 -61q8 -8 11 -28.5 t-3 -49t-22.5 -62t-47.5 -66.5q-14 -16 -24 -33t2 -43q33 -68 55.5 -153t31.5 -175t3 -179t-29 -169q-10 -37 -31.5 -90t-54.5 -111.5t-80 -117t-107.5 -104.5t-137 -74.5t-168.5 -28.5q-141 0 -221 84t-80 274zM338 422q0 -20 3 -48t11 -52.5t24.5 -41t45.5 -16.5 q94 0 151 69t80 161q14 59 16.5 88.5t2.5 54.5q0 12 -10.5 28.5t-30.5 22.5q-16 4 -32.5 16.5t-33.5 12.5q-29 0 -65.5 -13.5t-57.5 -33.5q-59 -59 -81.5 -124t-22.5 -124z" />
<glyph unicode="&#xf1;" horiz-adv-x="1101" d="M106 193q0 45 5.5 76.5t12.5 62t17.5 66.5t22.5 91q2 14 8 53.5t11 85.5t10.5 87t7.5 57q4 35 29.5 79t78.5 85q23 16 61 30.5t66 14.5q14 0 37 -23.5t27 -56.5q2 -20 4 -56t2 -52q0 -35 -10.5 -72t-22.5 -71t-22.5 -61.5t-10.5 -41.5q-2 -23 10.5 -19t26.5 19 q8 8 23.5 26.5t31 40l31 43t25.5 35.5q29 39 47 56.5t43 42.5q16 16 40.5 30.5t52.5 25.5t55.5 17t52.5 6q41 0 70.5 -28.5t43.5 -77.5q10 -39 18.5 -86t8.5 -103q0 -23 -2 -45t-6 -47q-8 -39 -11.5 -78.5t-9.5 -87.5q-4 -33 -2 -58.5t6 -52t8.5 -59t4.5 -79.5 q0 -6 -6.5 -23.5t-16.5 -37t-24.5 -38t-32.5 -30.5q-23 -16 -62 -34t-67 -18q-37 0 -46.5 13.5t-23.5 29.5q-12 14 -19.5 26.5t-10.5 25t-3 29v38.5q0 47 5.5 101.5t15.5 103.5q8 41 8 80v88q0 41 -6 50t-21 11q-20 2 -36.5 -10t-38 -39.5t-54 -71t-84.5 -104.5 q-33 -39 -69.5 -68.5t-71.5 -74.5q-51 -61 -94 -97t-66 -36q-47 0 -59 73l-4 23q-4 29 -9.5 53.5t-5.5 61.5zM289 1178v46t35 95q10 20 29.5 46t44 48.5t54 37.5t58.5 15q59 0 109.5 -14t105.5 -49q14 -8 37.5 -27.5t51.5 -39t57.5 -35t58.5 -15.5t62.5 22.5t62.5 34.5 q35 14 57.5 -6t22.5 -67q0 -33 -15.5 -66t-42.5 -63q-14 -18 -39.5 -32.5t-54.5 -25t-56.5 -15.5t-45.5 -5q-39 0 -71 20.5t-62.5 46t-66.5 46t-85 20.5q-12 0 -25.5 -9t-24.5 -21.5t-19.5 -24t-12.5 -15.5q-37 -37 -64.5 -45t-37.5 -8q-16 0 -38 12.5t-40.5 28.5 t-31.5 34.5t-13 29.5z" />
<glyph unicode="&#xf2;" horiz-adv-x="950" d="M63 342q0 98 40 202.5t111 190.5t165 142.5t205 56.5q35 0 52 -10.5t36 -32.5q16 -16 29.5 -40t33.5 -24q27 0 49.5 -18t38 -49t23.5 -70t8 -78q0 -109 -41 -216t-111.5 -193t-165 -139.5t-200.5 -53.5q-70 0 -121 32t-85 80t-50.5 106.5t-16.5 113.5zM336 358 q0 -53 26.5 -75.5t51.5 -22.5q35 0 70.5 22.5t63 54.5t45 66.5t17.5 57.5q0 12 -2 24.5t-16 22.5q-33 23 -48.5 58.5t-25.5 72.5q-4 20 -21.5 24.5t-33.5 -16.5q-29 -37 -52.5 -67.5t-40 -62.5t-25.5 -69.5t-9 -89.5zM377 1276q0 6 5 28.5t19.5 46t39 42t61.5 18.5 q47 0 75.5 -17.5t49 -48t38 -71.5t46.5 -86q23 -35 39 -53.5t26 -28.5t15.5 -16.5t5.5 -16.5q0 -29 -20.5 -56.5t-51.5 -27.5q-18 0 -77.5 30t-125.5 81q-76 59 -110.5 100t-34.5 76z" />
<glyph unicode="&#xf3;" horiz-adv-x="1851" d="M84 322q0 131 26.5 243.5t110.5 227.5q4 4 19.5 18t36 30.5l41 33t36.5 26.5q20 12 36 21.5t33 14.5t37.5 7t55.5 2q51 0 72.5 -23.5t25.5 -45.5q4 -20 14.5 -25.5t33.5 -5.5q29 0 58.5 -1t59.5 -26q18 -16 36 -46t32 -52q49 -78 49 -186q0 -102 -46 -196.5t-119 -166.5 t-164 -115t-181 -43q-74 0 -131 31t-95 77t-57.5 100t-19.5 100zM332 367q0 -43 20.5 -83t79.5 -40q35 0 71 17.5t65.5 48t49 73.5t19.5 92q0 33 -5 56.5t-13.5 43t-16.5 36.5t-16 40q-10 23 -15.5 30t-25.5 7q-18 0 -21.5 -2t-19.5 -24q-29 -37 -67 -69t-48 -44 q-47 -66 -52 -110t-5 -72zM526 1100q2 8 29 28.5t64.5 49t77.5 60.5t69 60q14 14 31.5 29.5t35 28t34 19.5t26.5 5q27 -6 49.5 -25.5t38.5 -43t24.5 -44t6.5 -26.5q-6 -35 -60.5 -87t-140.5 -95q-37 -18 -74 -30.5t-68.5 -18.5t-55 -7.5t-31.5 1.5q-29 6 -44.5 36.5 t-11.5 59.5z" />
<glyph unicode="&#xf4;" horiz-adv-x="978" d="M84 322q0 131 26.5 243.5t110.5 227.5q4 4 19.5 18t36 30.5l41 33t36.5 26.5q20 12 36 21.5t33 14.5t37.5 7t55.5 2q51 0 72.5 -23.5t25.5 -45.5q4 -20 14.5 -25.5t33.5 -5.5q29 0 58.5 -1t59.5 -26q18 -16 36 -46t32 -52q49 -78 49 -186q0 -102 -46 -196.5t-119 -166.5 t-164 -115t-181 -43q-74 0 -131 31t-95 77t-57.5 100t-19.5 100zM264 1180q0 39 30 68.5t91 90.5q45 45 79 76t87 58q12 6 37.5 20t55.5 20.5t59.5 -4t54.5 -53.5q20 -39 31.5 -57.5t19.5 -29.5t15 -22.5t24 -31.5q14 -23 34.5 -54.5t37 -62.5t29 -56.5t12.5 -35.5 q0 -49 -32 -74.5t-71 -25.5q-14 0 -35.5 16t-46 39.5t-48 48.5t-40.5 41q-4 4 -18.5 15.5t-35 17.5t-46 2t-53.5 -31q-41 -39 -87.5 -75t-74.5 -36q-25 0 -45.5 13.5t-33.5 34t-21.5 44t-8.5 44.5zM332 367q0 -43 20.5 -83t79.5 -40q35 0 71 17.5t65.5 48t49 73.5t19.5 92 q0 33 -5 56.5t-13.5 43t-16.5 36.5t-16 40q-10 23 -15.5 30t-25.5 7q-18 0 -21.5 -2t-19.5 -24q-29 -37 -67 -69t-48 -44q-47 -66 -52 -110t-5 -72z" />
<glyph unicode="&#xf5;" horiz-adv-x="950" d="M63 342q0 98 40 202.5t111 190.5t165 142.5t205 56.5q35 0 52 -10.5t36 -32.5q16 -16 29.5 -40t33.5 -24q27 0 49.5 -18t38 -49t23.5 -70t8 -78q0 -109 -41 -216t-111.5 -193t-165 -139.5t-200.5 -53.5q-70 0 -121 32t-85 80t-50.5 106.5t-16.5 113.5zM256 1165 q0 43 22.5 85t61.5 76t92 54.5t115 20.5h43t24.5 -4t22.5 -12.5t41 -26.5q14 -8 37.5 -27.5t51.5 -39t57.5 -35t58.5 -15.5t62.5 22.5t62.5 34.5q35 14 57 -6t22 -67q0 -33 -15 -65.5t-42 -63.5q-14 -18 -39.5 -32.5t-54.5 -25t-56.5 -15.5t-45.5 -5q-39 0 -78 20.5t-76 46 t-71 46t-60 20.5q-23 0 -45.5 -14.5t-44 -30.5t-42 -30.5t-38.5 -14.5q-31 0 -54.5 12t-39 28.5t-22.5 35t-7 28.5zM336 358q0 -53 26.5 -75.5t51.5 -22.5q35 0 70.5 22.5t63 54.5t45 66.5t17.5 57.5q0 12 -2 24.5t-16 22.5q-33 23 -48.5 58.5t-25.5 72.5q-4 20 -21.5 24.5 t-33.5 -16.5q-29 -37 -52.5 -67.5t-40 -62.5t-25.5 -69.5t-9 -89.5z" />
<glyph unicode="&#xf6;" horiz-adv-x="1011" d="M86 362q0 86 33 181.5t93 178.5t144 145.5t187 86.5q25 6 60.5 10.5t64.5 4.5q18 0 41.5 -3t40.5 -12q14 -8 19 -31.5t5 -37.5q0 -23 -6 -31t-2 -29q4 -25 21.5 -32t27.5 -7q23 0 35 -9t31 -32q10 -12 16 -24t9 -28.5t4 -42t1 -68.5q0 -139 -46.5 -262t-155.5 -203 q-66 -47 -146 -75t-176 -28q-63 0 -105 11.5t-71 34t-47.5 55t-32.5 73.5q-12 35 -28.5 84.5t-16.5 89.5zM342 326q0 -45 24.5 -72t67.5 -27q39 0 78 24.5t70.5 63.5t51 86.5t19.5 92.5q0 33 -5 49t-9 28q-8 20 -8 70q0 23 -2 33t-45 10q-27 0 -68 -10t-67 -39 q-18 -20 -41 -49t-35 -58q-16 -37 -23.5 -96t-7.5 -106zM360 1237q0 20 15.5 41.5t39 40t49 30t46.5 11.5q25 0 47.5 -10.5t38.5 -26.5t25.5 -34.5t9.5 -37.5q0 -27 -10 -46t-37 -44t-66 -34t-61 -9q-23 0 -43.5 14.5t-36.5 28.5t-16.5 29.5t-0.5 46.5zM715 1190 q0 25 18.5 52.5t44 50t51 38t41.5 15.5q61 0 94 -40t33 -94q0 -27 -20 -52t-47 -48q-25 -20 -46.5 -33.5t-33.5 -13.5q-39 0 -58.5 13.5t-35.5 33.5q-14 16 -27.5 36.5t-13.5 41.5z" />
<glyph unicode="&#xf7;" d="M100 674q0 12 9.5 36.5t29 51t50 46t73.5 19.5q12 0 28.5 -1t35.5 -3q16 -2 34.5 -3t30.5 -1h70t57 -2q23 0 49.5 -2t57.5 -2q2 0 13 -1t24.5 -2t24.5 -2t15 -1q10 -2 26.5 -5t37.5 -3q49 0 67.5 -29t18.5 -72q0 -14 -17.5 -37.5t-42 -47t-53 -40t-51.5 -16.5 q-47 0 -99 -1t-73 3q-6 2 -17.5 2h-25.5t-26.5 -1t-20.5 -1q-10 0 -37 -2t-43 -2q-23 -2 -35 -2h-35q-8 0 -23 1t-32.5 2t-32 3t-20.5 4q-37 8 -52.5 27.5t-15.5 83.5zM225 256q0 35 12.5 55.5t41.5 42.5q23 16 53 34t63 18q78 0 114 -27t36 -90q0 -35 -15.5 -69t-44.5 -50 q-25 -14 -52 -35.5t-52 -21.5q-29 0 -56.5 12t-50 31.5t-36 45t-13.5 54.5zM418 1116q0 43 11 69.5t29.5 40t44 17.5t54.5 4q31 0 65.5 -6t57.5 -35q18 -25 39.5 -51.5t21.5 -52.5q0 -45 -21 -67t-50 -42q-23 -16 -43.5 -16h-48.5q-37 0 -59.5 10t-45.5 39 q-16 20 -35.5 35.5t-19.5 54.5z" />
<glyph unicode="&#xf8;" horiz-adv-x="1003" d="M98 410q0 76 49.5 169t125 175t167.5 137t176 55q23 0 39.5 4t22.5 21q4 10 12 28.5t19 36.5q10 20 22 43q4 14 12.5 29.5t30.5 44.5q12 16 32.5 21.5t65.5 5.5q35 0 45.5 -17.5t26.5 -42.5q23 -35 17.5 -74.5t-17.5 -74.5q-4 -12 -25.5 -47t-44.5 -76 q-10 -16 -2.5 -31.5t23.5 -19.5q55 -16 75.5 -60.5t14.5 -103.5q-2 -20 -12 -65.5t-21.5 -92.5t-21.5 -87t-12 -50q-35 -123 -133.5 -193.5t-239.5 -97.5q-12 -2 -26.5 -3t-29 -6t-26.5 -13.5t-17 -22.5q-14 -41 -26 -58.5t-27 -47.5q-6 -14 -26.5 -25.5t-45 -18t-48 -8.5 t-37.5 4q-29 10 -33 22.5t-15 43.5q-10 31 -4 71t17 72q2 16 4 25.5t0 15.5t-7 15.5t-18 25.5q-37 49 -59.5 117t-22.5 154zM375 397q6 -4 18 23q6 14 13.5 24.5t13.5 20.5q10 18 25.5 53t37.5 88q12 35 2 38t-32 -28q-27 -35 -48.5 -88t-29.5 -92q-6 -35 0 -39z M604.5 330.5q11.5 0.5 34.5 23.5q27 27 41 45.5t14 46.5q0 4 -1 12.5t-4 12.5t-9 1t-18 -19t-23.5 -40t-22.5 -42q-23 -41 -11.5 -40.5z" />
<glyph unicode="&#xf9;" horiz-adv-x="1099" d="M70 225q0 57 5 132t15 130q14 82 33.5 142.5t42.5 132.5q8 25 30.5 57.5t36.5 46.5q20 20 52 26.5t88 6.5q14 0 35.5 -10t42 -25.5t36 -33t15.5 -29.5q0 -39 -15.5 -60.5t-31.5 -56.5q-6 -14 -21.5 -34.5t-31 -42t-28 -42t-14.5 -37.5q-2 -16 -5 -30.5t-5 -30.5 q-4 -18 -6 -31.5t-2 -32.5q0 -39 11.5 -58t45.5 -19q20 0 42 15t43.5 40t43 56.5t43.5 64.5q20 31 33.5 52t23 37.5t18.5 32t22 38.5q20 35 41.5 63.5t38.5 50.5q20 27 46.5 48.5t52 35.5t49.5 21.5t40 7.5q27 0 41 -3t22.5 -11.5t13.5 -22.5t13 -35q6 -16 4 -56t-8 -65 t-13.5 -49t-15.5 -55q-8 -37 -13 -66.5t-15 -70.5q-10 -45 -18.5 -80t-8.5 -60t6 -42t12.5 -30.5t12.5 -29t6 -35.5q0 -37 -32 -71.5t-73 -62.5t-84 -43t-63 -13q-49 4 -58.5 24.5t-9.5 48.5q0 61 3.5 115.5t3.5 104.5q0 33 -12.5 31.5t-22.5 -23.5q-8 -20 -26.5 -40 t-39.5 -44q-6 -6 -19.5 -22.5t-27.5 -34t-26.5 -32t-16.5 -18.5q-106 -78 -169.5 -102.5t-90.5 -24.5q-66 0 -103.5 73t-37.5 181zM446 1257q0 6 5.5 29t19.5 46.5t39 42t61 18.5q47 0 76 -17.5t49.5 -48.5t37.5 -72t46 -86q23 -35 39.5 -53t26.5 -28.5t15 -16.5t5 -16 q0 -29 -20.5 -56.5t-50.5 -27.5q-18 0 -78 29.5t-125 80.5q-76 59 -111 100.5t-35 75.5z" />
<glyph unicode="&#xfa;" horiz-adv-x="1132" d="M45 233q0 111 28.5 223.5t78.5 223.5q6 12 23.5 41t40 60.5t44 58t35.5 34.5q27 14 39 21.5t22.5 10.5t23.5 3h42q10 0 25.5 -8t28.5 -20.5t23.5 -26.5t10.5 -27v-63.5t-16 -58.5q-16 -31 -28.5 -50.5t-24 -33t-21.5 -27.5t-21 -37q-4 -8 -16 -30.5t-25.5 -48t-23.5 -49 t-10 -32.5q0 -18 2 -38.5t10 -36t26.5 -25.5t51.5 -10q84 0 196 186q20 33 32.5 54.5t22 39t18.5 33.5t22 39q45 80 91 149.5t134 112.5q25 12 48 2t39.5 -28.5t27 -39t10.5 -28.5q0 -37 -16.5 -80t-28.5 -92q-4 -23 -9.5 -43.5t-9.5 -36.5q-6 -35 -15 -76t-17.5 -82 t-14.5 -81t-6 -70q0 -31 3 -42t6 -19.5t6 -18.5t3 -41q0 -29 -17 -69t-52 -54q-31 -12 -63.5 -29.5t-73.5 -17.5q-49 0 -72 19.5t-23 48.5t2 67.5t9 54.5q6 16 12 49t6 48q0 33 -10 31.5t-25 -23.5q-70 -104 -184.5 -175t-261.5 -71q-41 0 -70 20.5t-49.5 54.5t-29.5 74 t-9 80zM633 1083q0 8 22.5 34t54 60.5t65.5 72.5t56 73q23 35 56 68.5t55 33.5q27 0 52.5 -15t45 -34.5t31.5 -39t12 -25.5q0 -35 -43.5 -96.5t-119.5 -120.5q-33 -25 -67 -43.5t-63.5 -29.5t-53 -16.5t-31.5 -5.5q-31 0 -51.5 28t-20.5 56z" />
<glyph unicode="&#xfb;" horiz-adv-x="1132" d="M45 193q0 111 28.5 223t78.5 223q6 12 23.5 41t40 60.5t44 58t35.5 35.5q27 14 39 21t22.5 10t23.5 3h42q10 0 25.5 -8t28.5 -20.5t23.5 -26.5t10.5 -27v-63.5t-16 -58.5q-16 -31 -28.5 -50.5t-24 -33t-21.5 -27.5t-21 -37q-4 -8 -16 -30.5t-25.5 -48t-23.5 -49 t-10 -32.5q0 -18 2 -38.5t10 -36t26.5 -25.5t51.5 -10q84 0 196 186q20 33 32.5 54.5t22 39t18.5 33.5t22 39q45 80 91 149.5t134 112.5q25 12 46 6t35.5 -20.5t22.5 -30.5t8 -24q0 -37 -10 -92.5t-22 -104.5q-4 -23 -9.5 -43.5t-9.5 -36.5q-12 -70 -22.5 -125t-10.5 -119 q0 -31 3.5 -42t6.5 -19t6 -18.5t3 -40.5q0 -29 -17.5 -69t-52.5 -54q-31 -12 -63.5 -29.5t-73.5 -17.5q-49 0 -71.5 19t-22.5 48q0 33 1 50.5t3 30.5t3 28.5t1 44.5q0 33 -10 31.5t-25 -23.5q-70 -104 -184.5 -175t-261.5 -71q-41 0 -70 20.5t-49.5 54.5t-29.5 74t-9 81z " />
<glyph unicode="&#xfc;" horiz-adv-x="1099" d="M70 266q0 57 5 132t15 130q14 82 33.5 142.5t42.5 132.5q8 25 30.5 57.5t36.5 46.5q20 20 52 26.5t88 6.5q14 0 35.5 -10t42 -25.5t36 -33t15.5 -29.5q0 -39 -15.5 -60.5t-31.5 -56.5q-6 -14 -21.5 -34.5t-31 -42t-28 -42t-14.5 -37.5q-2 -16 -5 -30.5t-5 -30.5 q-4 -18 -6 -31.5t-2 -32.5q0 -39 11.5 -58t45.5 -19q20 0 42 15t43.5 39.5t43 56.5t43.5 65q20 31 33.5 52t23 37.5t18.5 32t22 37.5q20 35 41.5 64t38.5 51q20 27 46.5 48.5t52 35.5t49.5 21.5t40 7.5q27 0 41 -3t22.5 -11.5t13.5 -22.5t13 -35q6 -16 4 -56t-8 -65 t-13.5 -49t-15.5 -55q-8 -37 -13 -66.5t-15 -70.5q-10 -45 -18.5 -80t-8.5 -60t6 -42t12.5 -30.5t12.5 -29t6 -35.5q0 -37 -32 -71.5t-73 -62.5t-84 -43t-63 -13q-49 4 -58.5 24.5t-9.5 48.5q0 61 3.5 115.5t3.5 104.5q0 33 -12.5 31.5t-22.5 -23.5q-8 -20 -26.5 -40 t-39.5 -44q-6 -6 -19.5 -22.5t-27.5 -34t-26.5 -32t-16.5 -18.5q-106 -78 -169.5 -102.5t-90.5 -24.5q-66 0 -103.5 73t-37.5 181zM346 1143q0 18 15.5 43.5t40 49.5t53 40t53.5 16t45 -9t35.5 -24.5t25 -34t9.5 -34.5q0 -23 -17.5 -50.5t-42 -52t-53.5 -41t-49 -16.5 q-43 0 -79 26.5t-36 86.5zM745 1067q-2 49 0.5 66.5t2.5 40.5q0 33 35.5 68.5t101.5 35.5t98.5 -42t32.5 -95q0 -27 -16.5 -54.5t-40 -49t-50.5 -36t-45 -14.5t-38.5 6t-38 16.5t-30 26t-12.5 31.5z" />
<glyph unicode="&#xfd;" horiz-adv-x="995" d="M66 813q0 14 3 23.5t10 18.5t20.5 19.5t33.5 28.5q29 29 60.5 37t60.5 8q31 0 41 -3t27 -34q18 -31 24 -65.5t10 -69.5q4 -33 -2 -50t2 -46q8 -33 11.5 -53.5t5.5 -37t3 -30.5t7 -33q16 -59 31.5 -102t29.5 -59q29 -35 46.5 -22.5t31.5 32.5q14 25 32.5 85t39.5 124 q10 27 20.5 56.5t14.5 51.5q2 12 10 36t18.5 51.5t18.5 51t12 35.5q8 33 18.5 42.5t24.5 9.5q53 0 87 -16.5t67 -27.5q37 -12 55 -32.5t18 -36.5q0 -35 -7 -74t-17 -74.5t-21.5 -66.5t-21.5 -51q-20 -37 -34.5 -63.5t-27 -47t-22.5 -39t-23 -41.5q-6 -12 -17 -34.5 t-23.5 -47t-23.5 -47t-18 -35.5q-25 -45 -41 -76.5t-26 -52.5l-21 -41q-10 -25 -23 -53.5t-28 -50.5q-10 -20 -24.5 -46t-32.5 -67q-10 -23 -39 -65.5t-57 -83.5q-14 -23 -25.5 -40.5t-15.5 -29.5q-16 -39 -31.5 -81t-44.5 -60q-45 -29 -74 -29q-10 0 -32.5 8.5t-46 21.5 t-41 32.5t-17.5 42.5t10 45t14 39q2 14 5.5 27.5t8.5 30.5t14 40.5t26 58.5q27 51 50 105.5t46 83.5q8 10 18.5 26.5t22.5 35t23.5 34.5t19.5 29q8 10 7 24t-28 14q-35 0 -65.5 36t-46.5 77t-34.5 84t-35.5 82q-47 102 -59 205.5t-12 222.5zM465 1069q0 10 5 16.5t15.5 16.5 t27 28.5t38.5 53.5q12 18 28.5 39.5t33 41t29.5 37t20 29.5q23 39 35 60.5t21 31t20.5 10.5t33.5 1q27 0 58.5 -17.5t58.5 -40t44 -44t17 -27.5q0 -18 -17 -41t-45 -49.5t-64.5 -55t-73.5 -57.5q-33 -25 -67 -46.5t-63.5 -37t-52 -24.5t-30.5 -9q-31 0 -51.5 27.5 t-20.5 56.5z" />
<glyph unicode="&#xfe;" horiz-adv-x="1060" d="M4 -289q0 23 1 47.5t5 42.5q23 76 39.5 152t28.5 141q2 10 7 36t9 57.5t8 66.5t4 63q0 23 5.5 52.5t9.5 62.5q8 51 20.5 131t26.5 171t28.5 186.5t27 177.5t21.5 143.5t13 85.5q4 35 9 71t36 70q8 10 36 34t67 24q25 0 38 4t41 4q27 0 38.5 -22.5t14.5 -55.5t0 -68.5 t-8 -62.5q-6 -33 -21 -104.5t-31.5 -150.5t-29 -146.5t-12.5 -92.5q0 -29 6.5 -39t22.5 13q16 25 50 52.5t63 43.5q53 35 102 46t98 11q70 0 117 -24.5t75.5 -67.5t40 -99t11.5 -120q0 -55 -13.5 -112.5t-35.5 -116.5q-6 -16 -25.5 -42t-43 -53.5t-46 -52t-35.5 -37.5 q-41 -41 -95 -73.5t-114.5 -54t-125 -33t-123.5 -11.5q-14 0 -33 -2t-25 -36l-6 -37.5t-3 -24.5t-1 -29.5v-52.5q0 -41 -1 -64.5t-3 -54.5q-2 -18 -3 -49.5t-9 -70.5q-4 -23 -24.5 -45.5t-45.5 -40t-50.5 -27.5t-39.5 -10q-31 0 -46.5 8t-33.5 35q-20 27 -28.5 71.5 t-8.5 79.5zM385 391q0 -6 3 -21.5t14.5 -30.5t32 -27.5t54.5 -12.5q6 0 22.5 5t37 12.5t40.5 17.5t34 22q31 25 55 49.5t41.5 55.5t27 69.5t9.5 92.5q0 43 -12.5 57t-49.5 14q-33 0 -90 -45t-110 -110q-14 -18 -25.5 -28.5t-22 -19t-19.5 -17.5t-17 -23q-10 -16 -17.5 -29.5 t-7.5 -30.5z" />
<glyph unicode="&#xff;" horiz-adv-x="950" d="M18 743q0 27 20.5 51.5t49.5 43t61.5 30t57.5 11.5q31 0 41 -3.5t26 -33.5q18 -31 24.5 -66t10.5 -69q4 -33 -2 -50.5t2 -46.5q8 -33 11.5 -53t5.5 -36.5t3 -31t7 -32.5q16 -59 31.5 -102.5t29.5 -59.5q29 -35 46.5 -22.5t31.5 32.5q6 12 16.5 36t21.5 54.5t22.5 64.5 t21.5 64q10 27 20.5 56.5t14.5 52.5q20 100 92 162.5t164 58.5q18 -6 31.5 -20.5t22.5 -32t14.5 -32.5t5.5 -24q0 -35 -7.5 -73.5t-17.5 -74.5t-21.5 -66.5t-21.5 -51.5q-20 -37 -29.5 -54t-14.5 -26.5t-9 -18.5t-17 -32q-6 -12 -17 -34.5t-23.5 -47t-23.5 -47t-18 -35.5 q-25 -45 -41 -76.5t-26 -52.5l-21 -41q-10 -25 -23 -53.5t-28 -50.5q-10 -20 -24.5 -46t-32.5 -67q-10 -23 -39 -65.5t-57 -83.5q-14 -23 -25.5 -40.5t-15.5 -29.5q-16 -39 -31.5 -81t-44.5 -60q-45 -29 -74 -29q-10 0 -32.5 8.5t-46 21.5t-41 32.5t-17.5 42.5t10 45t14 39 q2 14 5.5 27.5t8.5 30.5t14 40.5t26 58.5q33 61 61.5 123t71.5 121q8 10 7 24.5t-28 14.5q-35 0 -65.5 36t-46.5 77t-35 83.5t-35 81.5q-47 102 -59.5 206t-12.5 222zM244 1217q0 18 15 43.5t40 49t53.5 40t53.5 16.5t49 -13.5t43.5 -31.5t33 -39.5t13.5 -38.5 q0 -23 -6.5 -49.5t-22.5 -50t-43 -38.5t-70 -15q-23 0 -50 8t-52 24.5t-41 40t-16 54.5zM733 1137q-2 49 1 64.5t3 37.5q0 16 9.5 34.5t25.5 35t42 28t58 11.5q66 0 99 -42t33 -96q0 -27 -16.5 -54.5t-40 -49t-50.5 -35.5t-45 -14t-38.5 6t-38 16.5t-30 25.5t-12.5 32z" />
<glyph unicode="&#x152;" horiz-adv-x="1488" d="M57 469q0 176 55.5 330.5t144.5 274.5t201.5 199t225.5 105q51 12 104 13q27 0 44.5 -5.5t33.5 -13.5q45 -20 96.5 -23t92.5 -8q16 -2 51 -11t78 -7q14 0 37.5 -1t48 -3t47 -4t35.5 -2q20 0 43.5 -22.5t34.5 -71.5q4 -23 6 -44.5t2 -39.5q0 -10 -3 -23.5t-14 -32.5 q-6 -10 -32.5 -15t-47.5 -5q-35 0 -79.5 4t-91 9t-90.5 9t-76 4q-25 0 -38.5 -23.5t-15.5 -37.5q-4 -47 -13 -93t-5 -75q4 -23 24.5 -26t55.5 -3q20 0 33.5 -1t27.5 -2t31.5 -2t48.5 -1t73 -15t58 -50q10 -23 13 -46.5t-15 -52.5q-16 -29 -57 -46t-78 -17h-197 q-29 0 -38 -15.5t-9 -46.5q0 -27 -7 -90t-17 -127q-4 -20 7 -34.5t34 -16.5q47 -4 90 -7t96 -7q14 0 42 -5t58.5 -9.5t61 -8.5t49.5 -4q4 0 14 -4t22.5 -11t22.5 -16.5t15 -21.5q10 -41 -9.5 -63.5t-56.5 -45.5q-23 -14 -54.5 -23t-47.5 -9q-61 0 -99.5 -10.5t-76.5 -6.5 q-16 0 -65.5 -4t-114 -11t-132 -16.5t-117.5 -17.5q-29 -4 -59.5 -9t-77.5 -5q-80 0 -155.5 31.5t-135 96t-96.5 163t-37 229.5zM348 498q0 -63 19.5 -117.5t52.5 -93.5q10 -14 27.5 -31.5t31.5 -28.5q23 -16 39.5 -17t38.5 -1q6 0 20.5 5t14.5 15l8 131q6 78 14.5 141.5 t18.5 121t19.5 109.5t17.5 110q4 20 9 40.5t9 45.5q4 27 2 58.5t-4 51.5q-2 12 -4 23.5t-18 11.5q-55 0 -111.5 -46t-101.5 -125t-74 -183.5t-29 -220.5z" />
<glyph unicode="&#x153;" horiz-adv-x="1447" d="M51 354q0 63 18.5 134t54.5 141.5t89 137.5t125 122q8 6 42 23.5t76 34t84 28.5t66 8q-2 0 12.5 -2t32 -8t32.5 -18.5t15 -30.5q0 -20 4.5 -33.5t26.5 -13.5q29 0 50.5 -12.5t43.5 -30.5q20 -16 42 -23.5t57 10.5q47 27 104 41.5t127 14.5q47 0 81 -12.5t64 -30.5 q20 -12 39 -34t33 -42q20 -29 32.5 -56.5t12.5 -66.5q0 -49 -19.5 -109.5t-54.5 -101.5q-14 -18 -40.5 -37.5t-56.5 -38t-58.5 -35t-48.5 -28.5q-55 -35 -106.5 -53.5t-80.5 -32.5q-23 -10 -46 -22.5t-23 -22.5q0 -29 33.5 -47.5t82.5 -18.5q35 0 55.5 3t37.5 7 q16 4 46.5 7.5t59.5 3.5h23.5t34 -2.5t29.5 -6.5t13 -12q0 -14 -3 -41t-19 -37q-35 -25 -51.5 -40t-30.5 -26.5t-31.5 -21.5t-54.5 -24q-33 -12 -69 -28.5t-93 -16.5q-117 0 -191.5 47t-109.5 131q-14 33 -33.5 34t-42.5 -16q-53 -37 -114.5 -57.5t-133.5 -20.5 q-78 0 -129 34t-81.5 87t-44 122t-13.5 140zM322 338q0 -127 55 -127q35 0 81 44t87 108.5t69.5 138t28.5 133.5q0 12 -1 18t-3 10.5t-7 12.5t-11 26t-13.5 27.5t-23.5 9.5t-32.5 -1t-29.5 -19q-14 -18 -34.5 -45t-40 -51.5t-35 -44t-19.5 -25.5q-37 -55 -54 -117.5 t-17 -97.5zM894.5 421q12.5 -15 49.5 -15q14 0 49 16t71 40.5t62.5 50.5t26.5 44t-8 33.5t-35 15.5q-18 0 -48 -13t-60.5 -33.5t-57 -44t-39.5 -42.5q-23 -37 -10.5 -52z" />
<glyph unicode="&#x178;" horiz-adv-x="1005" d="M59 1219q0 14 1 37.5t5.5 48t14.5 45t26 28.5q4 2 37 9.5t58 5.5q14 0 37.5 -9.5t46 -22.5t41 -31.5t22.5 -37.5q8 -35 15.5 -48t11.5 -48q2 -20 7 -66.5t11 -97.5t13.5 -96t13.5 -66q16 -45 33.5 -73.5t42.5 -69.5q14 -23 23 -15.5t16 17.5q10 16 24 45t29.5 64.5 t29 76.5t21.5 82q4 20 14.5 44t20.5 46q12 25 22.5 48.5t14.5 40.5q8 39 26.5 69.5t32.5 59.5q10 20 29.5 28t36.5 8q37 0 61.5 -9t46.5 -17q12 -4 23.5 -26.5t18.5 -52.5t12.5 -58.5t5.5 -42.5q0 -37 -29 -86.5t-51 -90.5q-41 -78 -67 -129t-48 -92q-10 -18 -26.5 -51 l-26.5 -53q-8 -14 -23.5 -45t-32.5 -64q-20 -37 -43 -82q-6 -23 -18 -38t-27 -44q-20 -41 -38.5 -73.5t-34.5 -69.5q-20 -47 -47 -96t-39 -88q-8 -23 -13.5 -38t-10.5 -26.5t-11 -21t-12 -21.5q-18 -33 -52.5 -48t-42.5 -15q-6 0 -22.5 2t-33.5 5t-32.5 7t-21.5 8 q-25 18 -42.5 39t-17.5 43q0 23 3 45.5t12.5 51t26 66.5t42.5 91q27 51 38 83t34 61q16 20 42 53t42 61q14 23 10 29t-26 6q-37 0 -74 29.5t-60 70.5q-14 27 -32.5 78t-38 113.5t-37 129t-31.5 125t-23.5 101.5t-9.5 58zM199 1708q0 18 15 44t40 49.5t53.5 40t52.5 16.5 q25 0 52.5 -12.5t51 -30t40 -38t16.5 -36.5q0 -23 -9 -50.5t-29.5 -52t-50.5 -41t-73 -16.5q-23 0 -50 8t-52 24.5t-41 40t-16 54.5zM688 1628q-2 49 1 64.5t3 38.5q0 16 9.5 34.5t25.5 35t42 27.5t58 11q66 0 98.5 -42t32.5 -95q0 -27 -16 -54.5t-39.5 -49t-50.5 -36 t-45 -14.5t-38.5 6.5t-38 16.5t-30 25.5t-12.5 31.5z" />
<glyph unicode="&#x2c6;" horiz-adv-x="907" d="M131 1153q0 10 5 16.5t15.5 16.5t27 28.5t38.5 53.5q12 18 28.5 39.5t33 41t30 37t19.5 29.5q23 39 35 56.5t22 24.5t21.5 9t31.5 13q25 10 54.5 17t64.5 7q43 0 77 -30.5t58 -102.5q4 -12 15.5 -33.5t24.5 -46t27.5 -49.5t26.5 -43q23 -35 36.5 -54.5t21.5 -29.5 t10 -16.5t2 -16.5q0 -29 -12 -55.5t-43 -26.5q-18 0 -66.5 28t-113.5 79q-14 12 -30 30.5t-31 36t-31.5 28.5t-32.5 7q-35 -10 -72 -38.5t-59 -51.5q-29 -29 -55.5 -42t-48 -17t-38 -3t-24.5 1q-31 0 -49.5 14t-18.5 43z" />
<glyph unicode="&#x2dc;" horiz-adv-x="1046" d="M123 1151q0 10 1 44t36 93q10 18 30.5 44t47 47.5t57.5 37t61 15.5q61 0 114.5 -13.5t113.5 -48.5q14 -8 38.5 -26.5t54.5 -38t61.5 -34t60.5 -14.5q31 0 65.5 21.5t65.5 34.5q35 14 59.5 -6.5t24.5 -65.5q0 -31 -16.5 -63.5t-43.5 -61.5q-16 -16 -42.5 -30.5 t-57.5 -24.5t-59.5 -15.5t-49.5 -5.5q-41 0 -73.5 20.5t-65.5 44t-70.5 44t-89.5 20.5q-12 0 -26 -9t-25.5 -20.5t-20.5 -22.5t-14 -15q-39 -35 -67.5 -43t-40.5 -8q-16 0 -39 12t-43 28.5t-33.5 33t-13.5 26.5z" />
<glyph unicode="&#x2000;" horiz-adv-x="1014" />
<glyph unicode="&#x2001;" horiz-adv-x="2028" />
<glyph unicode="&#x2002;" horiz-adv-x="1014" />
<glyph unicode="&#x2003;" horiz-adv-x="2028" />
<glyph unicode="&#x2004;" horiz-adv-x="676" />
<glyph unicode="&#x2005;" horiz-adv-x="507" />
<glyph unicode="&#x2006;" horiz-adv-x="338" />
<glyph unicode="&#x2007;" horiz-adv-x="338" />
<glyph unicode="&#x2008;" horiz-adv-x="253" />
<glyph unicode="&#x2009;" horiz-adv-x="405" />
<glyph unicode="&#x200a;" horiz-adv-x="112" />
<glyph unicode="&#x2010;" d="M96 631q0 12 6.5 31.5t22.5 38t45 31.5t72 13q12 0 28.5 -1t34.5 -3q16 -2 34.5 -3t31.5 -1h59.5t46.5 -2q23 0 48.5 -1t56.5 -1h13t15 -2q10 -2 23.5 -3t34.5 -1q49 0 82.5 -42t33.5 -142q0 -14 -13 -31.5t-39.5 -33t-63.5 -27t-84 -11.5t-76 5.5t-49 9.5q-10 4 -21.5 6 t-27.5 2q-10 0 -27.5 -1t-34.5 -1q-23 -2 -46 -2h-46h-31.5t-27.5 4q-37 8 -69 56t-32 112z" />
<glyph unicode="&#x2011;" d="M96 631q0 12 6.5 31.5t22.5 38t45 31.5t72 13q12 0 28.5 -1t34.5 -3q16 -2 34.5 -3t31.5 -1h59.5t46.5 -2q23 0 48.5 -1t56.5 -1h13t15 -2q10 -2 23.5 -3t34.5 -1q49 0 82.5 -42t33.5 -142q0 -14 -13 -31.5t-39.5 -33t-63.5 -27t-84 -11.5t-76 5.5t-49 9.5q-10 4 -21.5 6 t-27.5 2q-10 0 -27.5 -1t-34.5 -1q-23 -2 -46 -2h-46h-31.5t-27.5 4q-37 8 -69 56t-32 112z" />
<glyph unicode="&#x2012;" d="M96 631q0 12 6.5 31.5t22.5 38t45 31.5t72 13q12 0 28.5 -1t34.5 -3q16 -2 34.5 -3t31.5 -1h59.5t46.5 -2q23 0 48.5 -1t56.5 -1h13t15 -2q10 -2 23.5 -3t34.5 -1q49 0 82.5 -42t33.5 -142q0 -14 -13 -31.5t-39.5 -33t-63.5 -27t-84 -11.5t-76 5.5t-49 9.5q-10 4 -21.5 6 t-27.5 2q-10 0 -27.5 -1t-34.5 -1q-23 -2 -46 -2h-46h-31.5t-27.5 4q-37 8 -69 56t-32 112z" />
<glyph unicode="&#x2013;" horiz-adv-x="1067" d="M84 635q0 12 6 29.5t17.5 35t27 29.5t35.5 12h24.5h40h41h29.5q16 -2 34.5 -3t31.5 -1h68.5t110.5 -1t107.5 -2t61.5 -1q23 0 38 -8t46 -8q2 0 13 -1t24.5 -2t25 -2t15.5 -1q10 -2 26.5 -5.5t36.5 -3.5q49 0 67.5 -28.5t18.5 -71.5q0 -14 -6 -37.5t-17.5 -46t-28.5 -39 t-40 -16.5t-60.5 -1t-75.5 -2t-69 -1t-41 2q-6 2 -31.5 3t-55.5 1h-56.5h-34.5q-6 0 -32.5 1t-58.5 3t-60.5 3t-36.5 1q-23 -2 -35 -2h-35q-8 0 -23.5 1t-33 2t-31.5 3t-21 4q-37 8 -50 49t-13 105z" />
<glyph unicode="&#x2014;" horiz-adv-x="1271" d="M57 670q0 12 10.5 24.5t27 22.5t36 17t39.5 7h24.5h40h41h29.5q16 -2 34.5 -3t31.5 -1q16 0 41.5 -1t52.5 -3t49.5 -4t34.5 -2h43h83t103.5 1t104.5 1h86h47q2 0 13 -1t24.5 -2t25 -2t15.5 -1q10 -2 26.5 -5t36.5 -3q49 0 67.5 -29t18.5 -72q0 -14 -4 -31.5t-13 -34 t-25.5 -27.5t-39.5 -11t-61.5 -6t-78.5 -14.5t-73 -13.5t-43 -3q-6 2 -64.5 1t-129 -3t-130 -4t-67.5 -2q-6 0 -29.5 -1t-53.5 -3t-55.5 -3t-33.5 -1q-23 -2 -44.5 -1t-43.5 1q-8 0 -28.5 1t-42 2t-40 2t-24.5 3q-18 4 -30.5 24.5t-19 50t-9.5 64.5t-3 66z" />
<glyph unicode="&#x2018;" horiz-adv-x="684" d="M166 958q0 25 17.5 54.5t47 72.5t70.5 105.5t90 155.5q35 63 73 95t71 32q12 0 27.5 -9.5t29.5 -24t23.5 -30.5t9.5 -29q0 -18 -13.5 -38.5t-33 -63.5t-41 -115.5t-39.5 -193.5q-10 -72 -29 -107t-66 -35q-61 0 -106 16.5t-68 33.5q-29 23 -46 47t-17 34z" />
<glyph unicode="&#x2019;" horiz-adv-x="696" d="M186 903q0 18 10.5 55t26 89.5t31.5 118t27 137.5q10 72 28.5 106.5t65.5 34.5q61 0 106 -16.5t68 -32.5q29 -23 46 -47.5t17 -34.5q0 -41 -18.5 -90t-46 -101.5t-60 -104.5t-63.5 -95q-41 -59 -94.5 -91t-85.5 -32q-12 0 -22.5 11t-18.5 27.5t-12.5 35t-4.5 30.5z" />
<glyph unicode="&#x201a;" horiz-adv-x="538" d="M37 -209q0 18 10 55t25.5 89.5t32 118t26.5 136.5q10 72 28.5 107t65.5 35q61 0 106.5 -16.5t67.5 -32.5q29 -23 46.5 -47.5t17.5 -34.5q0 -41 -18.5 -90.5t-46 -101.5t-60.5 -104t-64 -95q-41 -59 -94 -91t-86 -32q-12 0 -22.5 11t-18.5 27.5t-12 35t-4 30.5z" />
<glyph unicode="&#x201c;" horiz-adv-x="962" d="M129 868q0 20 1 62.5t22 120.5q6 23 16 54.5t20.5 62t19.5 57t11 39.5q16 88 32.5 123.5t61.5 35.5q47 0 72 -5t51 -11q25 -6 39 -25.5t20.5 -41t7.5 -40t1 -24.5q0 -35 -16.5 -104.5t-45.5 -147.5q-16 -49 -39.5 -98t-49 -89t-51 -66t-48.5 -26q-31 0 -54.5 13.5t-39 33 t-23.5 41t-8 35.5zM549 756q0 18 5 42.5t14.5 61.5t20.5 89t23 124q14 80 27.5 133.5t27 84t27 43t27.5 12.5q33 0 69.5 -9.5t65.5 -31t48.5 -55t19.5 -83.5q0 -41 -14.5 -88t-37 -97t-51 -100.5t-59.5 -93.5q-41 -59 -80 -78.5t-72 -19.5q-25 0 -43 19.5t-18 46.5z" />
<glyph unicode="&#x201d;" horiz-adv-x="1038" d="M129 868q0 20 1 62.5t22 120.5q6 23 16 54.5t20.5 62t19.5 57t11 39.5q16 88 32.5 123.5t61.5 35.5q25 0 39.5 -3t24.5 -7t20.5 -9t22.5 -7q25 -6 45 -19.5t34.5 -29t21.5 -28.5t7 -20q0 -43 -8 -76.5t-20.5 -65.5t-27.5 -63.5t-30 -70.5q-16 -49 -42.5 -96t-55.5 -86 t-57 -62.5t-51 -23.5q-31 0 -51.5 12t-33 29.5t-17.5 37t-5 33.5zM549 756q0 18 10 52t25.5 83t32 110.5t28.5 133.5q14 80 24.5 129t23 75.5t27.5 35.5t38 9q61 0 95 -25.5t56 -41.5q29 -23 42.5 -41.5t13.5 -61.5q0 -41 -20.5 -95t-51.5 -113.5t-65.5 -117t-65.5 -100.5 q-20 -29 -32.5 -48t-23 -30.5t-20.5 -15.5t-27 -4q-12 0 -30.5 5t-37 14.5t-30.5 21.5t-12 25z" />
<glyph unicode="&#x201e;" horiz-adv-x="946" d="M55 -119q0 20 1 62.5t22 119.5q6 23 16 55t20.5 62.5t19.5 57t11 38.5q16 88 33 124t62 36q25 0 39 -3t24 -7t20.5 -9t22.5 -7q25 -6 45.5 -19.5t34.5 -29t21.5 -29t7.5 -19.5q0 -43 -8.5 -76.5t-20.5 -65.5t-27.5 -63.5t-29.5 -70.5q-16 -49 -43 -96t-55.5 -86 t-57 -62.5t-51.5 -23.5q-31 0 -51.5 12t-32.5 29.5t-17.5 37t-5.5 33.5zM475 -231q0 18 10.5 52t25.5 83t31.5 110.5t28.5 132.5q14 80 24.5 129.5t23 76t28 35.5t37.5 9q61 0 95 -25.5t57 -41.5q29 -23 42 -41.5t13 -61.5q0 -41 -20.5 -95t-51.5 -113.5t-65.5 -117 t-65.5 -100.5q-20 -29 -32.5 -48t-22.5 -30.5t-20.5 -15.5t-26.5 -4q-12 0 -30.5 5t-37 14.5t-31 21.5t-12.5 25z" />
<glyph unicode="&#x2022;" horiz-adv-x="679" d="M145 684q0 61 24 104t60.5 69t79.5 37t84 11q53 0 77 -20.5t42 -67.5q25 -6 43 -25.5t29.5 -44t17.5 -48t6 -35.5q0 -55 -19.5 -98.5t-52 -71t-75.5 -42t-88 -14.5q-92 0 -160 59.5t-68 186.5z" />
<glyph unicode="&#x2026;" horiz-adv-x="1468" d="M84 135q0 66 59.5 98.5t149.5 32.5q43 0 65.5 -17.5t31.5 -44t9 -58v-60.5q0 -12 -17 -29.5t-42 -33t-52.5 -25.5t-47.5 -10q-78 0 -117 42t-39 105zM573 176q0 66 34 95.5t124 29.5q43 0 70.5 -15.5t43 -40t21.5 -54t6 -58.5q0 -12 -14 -32.5t-35.5 -40t-46 -34 t-45.5 -14.5q-78 0 -118 50.5t-40 113.5zM1077 135q0 59 38 101.5t118 42.5q39 0 62.5 -16.5t35.5 -42t16.5 -55t4.5 -54.5q0 -12 -13.5 -33t-34 -40.5t-43 -34.5t-40.5 -15q-72 0 -108 45t-36 102z" />
<glyph unicode="&#x202f;" horiz-adv-x="405" />
<glyph unicode="&#x2039;" horiz-adv-x="716" d="M68 601q0 42 19 81t67 70q25 18 52 40.5t54 46t51.5 44t42.5 35.5q8 6 25.5 16t39 20.5t43 17.5t38.5 7q49 0 91 -22.5t42 -67.5q0 -10 1 -26.5t0 -34t-5 -34t-13 -24.5q-16 -16 -39.5 -31.5t-48 -29t-44 -24.5t-25.5 -17q-8 -6 -21.5 -14.5t-26 -15.5t-21.5 -15.5 t-9 -16.5q0 -6 7 -22.5t22.5 -38t39 -45t56.5 -43.5q14 -10 38.5 -19.5t46 -23t38 -33.5t16.5 -51q0 -25 -16.5 -40.5t-40 -23.5t-50 -11t-46.5 -3q-29 0 -48.5 5t-54.5 26q-10 6 -48 28.5t-79 48t-76.5 49t-44.5 31.5q-35 37 -54 78t-19 83z" />
<glyph unicode="&#x203a;" horiz-adv-x="716" d="M100 889q0 45 42 67.5t91 22.5q16 0 38 -7t43.5 -17.5t39 -20.5t25.5 -16q39 -29 81 -62t93 -68q45 -31 63.5 -76.5t14.5 -95t-26.5 -97.5t-55.5 -85q-8 -8 -37 -30.5t-62.5 -47t-64.5 -46t-41 -27.5q-35 -20 -85 -42t-79 -22q-41 0 -54 17.5t-13 66.5q0 31 12 55.5 t29.5 43t37 31.5t35.5 24q33 20 56.5 43.5t39 45t22.5 38t7 22.5q0 16 -17.5 40t-33.5 38q-6 6 -26.5 14.5t-45 19.5t-49 23.5t-41.5 28.5q-8 8 -15 24.5t-12.5 34t-8.5 34t-3 26.5z" />
<glyph unicode="&#x205f;" horiz-adv-x="507" />
<glyph unicode="&#x20ac;" horiz-adv-x="1093" d="M-18 512q0 23 18 53.5t57 30.5q37 0 56.5 17.5t27.5 48.5q10 37 7 62.5t-25 25.5q-43 0 -58.5 24.5t-15.5 61.5q0 12 11.5 32.5t26.5 40t33.5 34.5t33.5 15h27t13.5 2.5t7.5 9.5t11 19q39 66 90 134.5t116.5 124t148.5 90t186 34.5q14 0 39.5 -1t53 -2t52.5 -5t41 -10 q29 -10 60.5 -22.5t52.5 -28.5q23 -20 28.5 -35t5.5 -35q0 -29 -3 -45.5t-8 -27.5t-13 -19t-19 -21q-6 -6 -18 -19.5t-26.5 -26.5t-26.5 -22.5t-19 -9.5q-16 0 -34.5 5.5t-36 13.5t-30.5 14t-19 10q-18 14 -43 19.5t-76 5.5q-47 0 -102.5 -33t-80.5 -100q-10 -29 3.5 -32 t25.5 -3h18.5t28 1t29.5 1h22q18 2 27.5 2h30.5q14 0 48 -3t44 -7q31 -4 44 -21.5t13 -70.5q0 -10 -7 -31.5t-24.5 -43t-43 -38t-62.5 -16.5q-10 0 -23.5 1t-29.5 3q-12 2 -28.5 2h-26.5q-29 0 -57.5 1t-49.5 1q-45 0 -59.5 -16.5t-14.5 -57.5q0 -16 7.5 -28.5t41.5 -12.5 q8 0 30 1t38 1h78q6 0 22.5 -1t33 -3t31.5 -3t21 -3q31 -8 34 -27.5t3 -46.5q0 -10 -5 -32.5t-16 -45t-26.5 -40t-34.5 -17.5q-6 0 -20 -2t-30.5 -5t-31 -4t-22.5 -1q-14 2 -29.5 3t-27.5 1q-16 0 -22.5 -6t-8.5 -12q-2 -8 0 -19q20 -27 48 -44t77 -17q35 0 66.5 4t64.5 16 q23 8 62.5 11t60.5 3q20 0 34.5 -9t14.5 -21q0 -16 -7 -41t-22 -47q-10 -16 -29.5 -31.5t-37.5 -32.5q-20 -16 -40 -24.5t-53 -20.5q-45 -18 -91 -29.5t-117 -11.5q-37 0 -76 6t-76 20.5t-68.5 37t-56.5 55.5q-31 41 -58.5 86t-43.5 117q-2 10 -10.5 13t-12.5 5h-18.5 t-26.5 -2t-28.5 -3t-22.5 -1t-17.5 12.5t-18.5 30.5t-15 41t-6 43z" />
<glyph unicode="&#x2122;" horiz-adv-x="1826" d="M59 1288q0 16 5.5 44t19.5 54.5t35.5 46t56.5 19.5q37 0 67.5 2t75.5 2q80 0 143.5 -6t133.5 -8h68q29 0 40 -8.5t27 -28.5q18 -23 30.5 -53.5t12.5 -40.5t-14.5 -25.5t-22.5 -15.5q-31 0 -57.5 -5t-58.5 -10q-14 0 -20.5 -1t-9.5 -2t-8 -2t-18 -1q-33 0 -39 -24 q-4 -25 -9 -52.5t-9 -56.5q-8 -47 -18.5 -93t-20.5 -93q-10 -72 -23.5 -145.5t-29.5 -145.5q-4 -20 -7 -39.5t-18 -56.5q-4 -14 -14.5 -26.5t-20.5 -16.5q-6 -2 -8 -7.5t-5 -9.5t-7 -6t-17 0q-16 2 -43.5 5t-42.5 14q-25 16 -34 31.5t-9 37.5q0 20 -1 34.5t8 29.5 q4 8 9 24.5t7 24.5q8 49 13 83t16 75q8 43 14 71.5t11 54t9.5 52t10.5 63.5q6 29 13 69t7 81q0 4 -4 11t-12 7h-39t-14.5 -1t-8.5 -2t-18 -1q-29 -2 -51.5 -2h-42.5q-35 0 -46.5 12.5t-11.5 36.5zM698.5 517.5q1.5 14.5 1.5 33.5q0 14 4.5 31.5t8.5 35.5q4 12 7 24.5t5 25.5 q10 63 17.5 118.5t17.5 124.5q6 37 11 58.5t10 37t9.5 31t8.5 39.5q6 41 19 83t26.5 79t24 63.5t12.5 38.5q4 16 7 26.5t7 21.5l12 32q12 33 30.5 39t29.5 17q16 16 46.5 19t41.5 -1q25 -4 39 -27.5t18 -33.5q8 -29 14.5 -55.5t14.5 -49.5q14 -45 25.5 -76.5t17.5 -58.5 q8 -33 23.5 -73t21.5 -62q6 -25 17 -22t24 24q4 6 7 9t8 9t12.5 18.5t19.5 37.5q6 12 16 35.5t21.5 49t21.5 49t19 36.5q14 27 29.5 52t33.5 48q10 14 17.5 22.5t12.5 14.5t11 10t17 14q10 8 33.5 15.5t66.5 7.5q14 0 27.5 -11.5t21.5 -26.5t13 -29.5t5 -18.5q4 -29 6.5 -85 t4.5 -124q0 -74 -5.5 -134.5t-5.5 -131.5q0 -78 -3 -129t-11 -109q-4 -33 -7 -57.5t-3 -38.5q0 -18 -11.5 -40t-27.5 -36q-18 -16 -43 -24.5t-41 -8.5q-66 0 -85 10.5t-19 30.5q0 45 2 64.5t2 34.5q0 8 3 18t7 21q4 10 2 31.5t-2 39.5t3 47t9 64q2 18 6 43.5t7.5 52.5 t5.5 50.5t2 35.5q0 35 -15.5 31t-25.5 -25q-16 -31 -30.5 -53.5t-27 -42.5t-23.5 -40.5t-22 -45.5q-6 -18 -20.5 -41t-30.5 -42t-33.5 -32.5t-31.5 -13.5q-35 0 -68 18q-12 8 -22.5 16.5t-14.5 22.5q-4 12 -11 38t-15.5 53.5t-14.5 51t-8 33.5q0 4 -5 15.5t-10.5 24 t-10.5 23.5t-5 15q-4 16 -14 25.5t-19 -19.5q-4 -14 -8 -43.5t-8 -46.5q-2 -8 -5 -26.5t-6 -38l-6 -39t-3 -31.5q-2 -14 -4.5 -25.5t-6.5 -25.5q-4 -16 -11 -47t-13 -49q-6 -25 -9 -54.5t-6 -50.5v-13t1.5 -23.5t2.5 -22.5t1 -12q0 -23 -35 -39q-14 -8 -31.5 -15.5 t-28.5 -7.5q-8 0 -24.5 5t-33.5 13.5t-33.5 17.5t-22.5 19q-14 18 -12.5 32.5z" />
<glyph unicode="&#x25fc;" horiz-adv-x="983" d="M0 0v983h983v-983h-983z" />
</font>
</defs>
</svg>
